SplineFontDB: 3.2
FontName: ComicRecidivistMonoLigRuby
FullName: Comic Recidivist Mono with Ruby Ligatures
FamilyName: Comic Recidivist Mono Ruby Lig
Weight: Book
Copyright: MIT License\n\nCopyright (c) 2023 Coltrane\nCopyright (c) 2018 Shannon Miwa\n\nPermission is hereby granted, free of charge, to any person obtaining a copy of this software and associated documentation files (the "Software"), to deal in the Software without restriction, including without limitation the rights to use, copy, modify, merge, publish, distribute, sublicense, and/or sell copies of the Software, and to permit persons to whom the Software is furnished to do so, subject to the following conditions:\n\nThe above copyright notice and this permission notice shall be included in all copies or substantial portions of the Software.\n\nTHE SOFTWARE IS PROVIDED "AS IS", WITHOUT WARRANTY OF ANY KIND, EXPRESS OR IMPLIED, INCLUDING BUT NOT LIMITED TO THE WARRANTIES OF MERCHANTABILITY, FITNESS FOR A PARTICULAR PURPOSE AND NONINFRINGEMENT. IN NO EVENT SHALL THE AUTHORS OR COPYRIGHT HOLDERS BE LIABLE FOR ANY CLAIM, DAMAGES OR OTHER LIABILITY, WHETHER IN AN ACTION OF CONTRACT, TORT OR OTHERWISE, ARISING FROM, OUT OF OR IN CONNECTION WITH THE SOFTWARE OR THE USE OR OTHER DEALINGS IN THE SOFTWARE.
Version: 1.0L0.1
ItalicAngle: 0
UnderlinePosition: 0
UnderlineWidth: 0
Ascent: 750
Descent: 250
InvalidEm: 0
sfntRevision: 0x00000000
LayerCount: 2
Layer: 0 1 "Back" 1
Layer: 1 1 "Fore" 0
XUID: [1021 983 -642693282 13911]
StyleMap: 0x0040
FSType: 4
OS2Version: 3
OS2_WeightWidthSlopeOnly: 0
OS2_UseTypoMetrics: 0
CreationTime: 1608751085
ModificationTime: 1705520362
PfmFamily: 81
TTFWeight: 400
TTFWidth: 5
LineGap: 200
VLineGap: 0
Panose: 0 0 0 0 0 0 0 0 0 0
OS2TypoAscent: 750
OS2TypoAOffset: 0
OS2TypoDescent: -250
OS2TypoDOffset: 0
OS2TypoLinegap: 200
OS2WinAscent: 1167
OS2WinAOffset: 0
OS2WinDescent: 564
OS2WinDOffset: 0
HheadAscent: 750
HheadAOffset: 0
HheadDescent: -250
HheadDOffset: 0
OS2SubXSize: 650

StartChar: .notdef
Encoding: 325 -1 0
Width: 500
GlyphClass: 1
Flags: W
LayerCount: 2
Fore
SplineSet
50 -250 m 1,0,-1
 50 700 l 1,1,-1
 450 700 l 1,2,-1
 450 -250 l 1,3,-1
 50 -250 l 1,0,-1
100 -200 m 1,4,-1
 400 -200 l 1,5,-1
 400 650 l 1,6,-1
 100 650 l 1,7,-1
 100 -200 l 1,4,-1
EndSplineSet
Validated: 1
EndChar

StartChar: exclam
Encoding: 1 33 4
Width: 550
GlyphClass: 1
Flags: W
LayerCount: 2
Fore
SplineSet
332 685 m 4,0,1
 332 661 332 661 330.5 623.5 c 132,-1,2
 329 586 329 586 327.5 540 c 132,-1,3
 326 494 326 494 325.5 442 c 132,-1,4
 325 390 325 390 326 339 c 4,5,6
 327 287 327 287 327 269 c 132,-1,7
 327 251 327 251 326 245.5 c 132,-1,8
 325 240 325 240 324.5 234 c 132,-1,9
 324 228 324 228 325 198 c 4,10,11
 323 174 323 174 308 161.5 c 132,-1,12
 293 149 293 149 273 150 c 4,13,14
 256 150 256 150 242.5 163 c 132,-1,15
 229 176 229 176 231 203 c 4,16,17
 232 224 232 224 234 233.5 c 132,-1,18
 236 243 236 243 237.5 258 c 132,-1,19
 239 273 239 273 239 305 c 132,-1,20
 239 337 239 337 237 400 c 4,21,22
 234 487 234 487 236 562.5 c 132,-1,23
 238 638 238 638 239 681 c 4,24,25
 240 712 240 712 254.5 725 c 132,-1,26
 269 738 269 738 287 738 c 4,27,28
 306 739 306 739 319 727 c 132,-1,29
 332 715 332 715 332 685 c 4,0,1
301 -26 m 4,30,31
 278 -29 278 -29 258 -10.5 c 132,-1,32
 238 8 238 8 231 30 c 4,33,34
 223 52 223 52 234 67.5 c 132,-1,35
 245 83 245 83 263 84 c 4,36,37
 286 85 286 85 304.5 69 c 132,-1,38
 323 53 323 53 331 31 c 4,39,40
 338 8 338 8 330 -7.5 c 132,-1,41
 322 -23 322 -23 301 -26 c 4,30,31
EndSplineSet
Validated: 33
EndChar

StartChar: quotedbl
Encoding: 2 34 5
Width: 550
GlyphClass: 1
Flags: W
LayerCount: 2
Fore
SplineSet
235 688 m 0,0,1
 235 674 235 674 235 640 c 128,-1,2
 235 606 235 606 234 569 c 128,-1,3
 233 532 233 532 231.5 496 c 128,-1,4
 230 460 230 460 228 442 c 0,5,6
 225 422 225 422 210.5 413 c 128,-1,7
 196 404 196 404 183 406 c 0,8,9
 167 406 167 406 151 416 c 128,-1,10
 135 426 135 426 137 448 c 0,11,12
 139 464 139 464 139.5 499 c 128,-1,13
 140 534 140 534 139.5 571 c 128,-1,14
 139 608 139 608 138 643 c 128,-1,15
 137 678 137 678 136 694 c 0,16,17
 135 718 135 718 154 725 c 128,-1,18
 173 732 173 732 188 730 c 0,19,20
 203 730 203 730 218.5 722 c 128,-1,21
 234 714 234 714 235 688 c 0,0,1
420 688 m 0,22,23
 420 674 420 674 420 640 c 128,-1,24
 420 606 420 606 419 569 c 128,-1,25
 418 532 418 532 416.5 496 c 128,-1,26
 415 460 415 460 413 442 c 0,27,28
 410 422 410 422 395.5 413 c 128,-1,29
 381 404 381 404 368 406 c 0,30,31
 352 406 352 406 336 416 c 128,-1,32
 320 426 320 426 322 448 c 0,33,34
 324 464 324 464 324.5 499 c 128,-1,35
 325 534 325 534 324.5 571 c 128,-1,36
 324 608 324 608 323 643 c 128,-1,37
 322 678 322 678 321 694 c 0,38,39
 320 718 320 718 339 725 c 128,-1,40
 358 732 358 732 373 730 c 0,41,42
 388 730 388 730 403.5 722 c 128,-1,43
 419 714 419 714 420 688 c 0,22,23
EndSplineSet
Validated: 33
EndChar

StartChar: numbersign
Encoding: 3 35 6
Width: 550
GlyphClass: 1
Flags: W
LayerCount: 2
Fore
SplineSet
76 232 m 5,0,-1
 87 233 l 5,1,-1
 98 233 l 5,2,-1
 110 233 l 5,3,-1
 124 234 l 5,4,-1
 129 258 l 5,5,-1
 137 294 l 5,6,-1
 146 330 l 5,7,-1
 152 357 l 5,8,-1
 143 357 l 5,9,-1
 133 357 l 5,10,-1
 124 356 l 5,11,-1
 115 356 l 5,12,-1
 94 358 l 5,13,-1
 79 368 l 5,14,-1
 71 382 l 5,15,-1
 68 399 l 5,16,-1
 70 415 l 5,17,-1
 78 430 l 5,18,-1
 93 441 l 5,19,-1
 114 446 l 5,20,-1
 127 447 l 5,21,-1
 141 447 l 5,22,-1
 171 447 l 5,23,-1
 176 473 l 5,24,-1
 184 507 l 5,25,-1
 191 538 l 5,26,-1
 195 563 l 5,27,-1
 205 582 l 5,28,-1
 219 593 l 5,29,-1
 235 597 l 5,30,-1
 251 597 l 5,31,-1
 268 591 l 5,32,-1
 281 580 l 5,33,-1
 287 565 l 5,34,-1
 286 545 l 5,35,-1
 282 524 l 5,36,-1
 276 498 l 5,37,-1
 269 469 l 5,38,-1
 264 448 l 5,39,-1
 369 449 l 5,40,-1
 374 472 l 5,41,-1
 381 505 l 5,42,-1
 387 533 l 5,43,-1
 391 557 l 5,44,-1
 401 576 l 5,45,-1
 415 587 l 5,46,-1
 432 591 l 5,47,-1
 448 590 l 5,48,-1
 465 585 l 5,49,-1
 478 575 l 5,50,-1
 485 560 l 5,51,-1
 482 539 l 5,52,-1
 477 519 l 5,53,-1
 472 495 l 5,54,-1
 466 467 l 5,55,-1
 462 450 l 5,56,-1
 471 450 l 5,57,-1
 492 447 l 5,58,-1
 508 435 l 5,59,-1
 519 420 l 5,60,-1
 523 405 l 5,61,-1
 521 389 l 5,62,-1
 513 374 l 5,63,-1
 500 363 l 5,64,-1
 479 358 l 5,65,-1
 443 358 l 5,66,-1
 438 332 l 5,67,-1
 432 297 l 5,68,-1
 425 261 l 5,69,-1
 421 236 l 5,70,-1
 456 236 l 5,71,-1
 476 233 l 5,72,-1
 488 224 l 5,73,-1
 493 211 l 5,74,-1
 496 197 l 5,75,-1
 494 181 l 5,76,-1
 489 166 l 5,77,-1
 477 155 l 5,78,-1
 456 152 l 5,79,-1
 402 152 l 5,80,-1
 397 122 l 5,81,-1
 390 88 l 5,82,-1
 384 57 l 5,83,-1
 378 30 l 5,84,-1
 368 15 l 5,85,-1
 351 4 l 5,86,-1
 332 -2 l 5,87,-1
 314 -1 l 5,88,-1
 299 6 l 5,89,-1
 288 19 l 5,90,-1
 283 36 l 5,91,-1
 286 56 l 5,92,-1
 291 72 l 5,93,-1
 297 96 l 5,94,-1
 303 124 l 5,95,-1
 309 151 l 5,96,-1
 282 151 l 5,97,-1
 254 150 l 5,98,-1
 227 150 l 5,99,-1
 198 150 l 5,100,-1
 193 122 l 5,101,-1
 185 89 l 5,102,-1
 178 60 l 5,103,-1
 172 34 l 5,104,-1
 161 18 l 5,105,-1
 145 6 l 5,106,-1
 126 -2 l 5,107,-1
 107 -1 l 5,108,-1
 93 6 l 5,109,-1
 82 20 l 5,110,-1
 77 39 l 5,111,-1
 81 59 l 5,112,-1
 91 98 l 5,113,-1
 99 125 l 5,114,-1
 104 149 l 5,115,-1
 78 149 l 5,116,-1
 57 151 l 5,117,-1
 42 159 l 5,118,-1
 33 171 l 5,119,-1
 30 186 l 5,120,-1
 32 202 l 5,121,-1
 40 217 l 5,122,-1
 54 227 l 5,123,-1
 76 232 l 5,0,-1
245 358 m 5,124,-1
 240 332 l 5,125,-1
 232 297 l 5,126,-1
 223 261 l 5,127,-1
 217 236 l 5,128,-1
 243 237 l 5,129,-1
 271 237 l 5,130,-1
 326 237 l 5,131,-1
 331 261 l 5,132,-1
 338 296 l 5,133,-1
 346 331 l 5,134,-1
 350 358 l 5,135,-1
 245 358 l 5,124,-1
EndSplineSet
Validated: 1
EndChar

StartChar: dollar
Encoding: 4 36 7
Width: 550
GlyphClass: 1
Flags: W
LayerCount: 2
Fore
SplineSet
63 88 m 4,0,1
 50 113 50 113 55 129.5 c 132,-1,2
 60 146 60 146 75 153 c 4,3,4
 94 161 94 161 108 160 c 132,-1,5
 122 159 122 159 139 134 c 4,6,7
 155 110 155 110 178.5 91 c 132,-1,8
 202 72 202 72 242 72 c 6,9,-1
 252 72 l 5,10,11
 253 126 253 126 253.5 193.5 c 132,-1,12
 254 261 254 261 254 329 c 5,13,14
 244 330 244 330 233.5 332 c 132,-1,15
 223 334 223 334 212 335 c 4,16,17
 143 342 143 342 107 379 c 132,-1,18
 71 416 71 416 71 453 c 4,19,20
 71 487 71 487 82 519 c 132,-1,21
 93 551 93 551 115 577 c 132,-1,22
 137 603 137 603 172 622.5 c 132,-1,23
 207 642 207 642 255 650 c 5,24,25
 256 666 256 666 256 679 c 132,-1,26
 256 692 256 692 256 702 c 4,27,28
 257 729 257 729 265 741 c 132,-1,29
 273 753 273 753 286 753 c 4,30,31
 305 754 305 754 316.5 743 c 132,-1,32
 328 732 328 732 328 705 c 6,33,-1
 328 655 l 5,34,35
 339 654 339 654 355 651 c 132,-1,36
 371 648 371 648 387.5 644.5 c 132,-1,37
 404 641 404 641 418.5 637 c 132,-1,38
 433 633 433 633 441 630 c 4,39,40
 460 623 460 623 467 608.5 c 132,-1,41
 474 594 474 594 472 579 c 4,42,43
 469 556 469 556 449.5 554.5 c 132,-1,44
 430 553 430 553 416 557 c 4,45,46
 397 561 397 561 381.5 570.5 c 132,-1,47
 366 580 366 580 327 581 c 5,48,49
 326 542 326 542 325.5 497 c 132,-1,50
 325 452 325 452 324 403 c 5,51,52
 380 396 380 396 416.5 376 c 132,-1,53
 453 356 453 356 474 329 c 132,-1,54
 495 302 495 302 503.5 271 c 132,-1,55
 512 240 512 240 512 210 c 4,56,57
 512 170 512 170 497 136 c 132,-1,58
 482 102 482 102 456.5 75.5 c 132,-1,59
 431 49 431 49 396 30.5 c 132,-1,60
 361 12 361 12 321 2 c 5,61,62
 321 -20 321 -20 321 -39.5 c 132,-1,63
 321 -59 321 -59 322 -72 c 4,64,65
 320 -93 320 -93 306 -104.5 c 132,-1,66
 292 -116 292 -116 273 -115 c 4,67,68
 260 -115 260 -115 253 -103 c 132,-1,69
 246 -91 246 -91 248 -67 c 4,70,71
 249 -59 249 -59 249.5 -43.5 c 132,-1,72
 250 -28 250 -28 251 -7 c 5,73,-1
 238 -7 l 6,74,75
 169 -7 169 -7 125 23.5 c 132,-1,76
 81 54 81 54 63 88 c 4,0,1
158 476 m 4,77,78
 158 453 158 453 183.5 435 c 132,-1,79
 209 417 209 417 254 410 c 5,80,81
 255 454 255 454 255 496 c 132,-1,82
 255 538 255 538 255 574 c 5,83,84
 213 564 213 564 185.5 538.5 c 132,-1,85
 158 513 158 513 158 476 c 4,77,78
425 194 m 4,86,87
 425 227 425 227 406 259 c 132,-1,88
 387 291 387 291 323 313 c 5,89,90
 322 254 322 254 322 195.5 c 132,-1,91
 322 137 322 137 321 87 c 5,92,93
 362 101 362 101 393.5 129 c 132,-1,94
 425 157 425 157 425 194 c 4,86,87
EndSplineSet
Validated: 33
EndChar

StartChar: percent
Encoding: 5 37 8
Width: 550
GlyphClass: 1
Flags: W
LayerCount: 2
Fore
SplineSet
145 404 m 0,0,1
 94 405 94 405 65 442.5 c 128,-1,2
 36 480 36 480 37 527 c 0,3,4
 37 582 37 582 68.5 620.5 c 128,-1,5
 100 659 100 659 160 659 c 0,6,7
 182 659 182 659 203.5 651.5 c 128,-1,8
 225 644 225 644 240.5 627.5 c 128,-1,9
 256 611 256 611 264.5 584.5 c 128,-1,10
 273 558 273 558 270 520 c 0,11,12
 267 466 267 466 238 434.5 c 128,-1,13
 209 403 209 403 145 404 c 0,0,1
60 57 m 0,14,15
 72 81 72 81 129 166 c 0,16,17
 175 234 175 234 234 323 c 0,18,19
 335 475 335 475 341 486 c 0,20,21
 379 553 379 553 415 608 c 0,22,23
 425 624 425 624 447 627 c 0,24,25
 465 629 465 629 486 623 c 0,26,27
 505 616 505 616 508 603 c 0,28,29
 512 591 512 591 499 572 c 0,30,31
 441 486 441 486 432 473 c 0,32,33
 384 399 384 399 327 314 c 0,34,35
 268 225 268 225 219 147 c 0,36,37
 145 28 145 28 144 28 c 0,38,39
 132 5 132 5 115 1 c 0,40,41
 99 -4 99 -4 81 2 c 0,42,43
 60 9 60 9 54 22 c 0,44,45
 49 35 49 35 60 57 c 0,14,15
155 474 m 0,46,47
 180 473 180 473 191.5 489.5 c 128,-1,48
 203 506 203 506 205 529 c 0,49,50
 206 562 206 562 191.5 576.5 c 128,-1,51
 177 591 177 591 153 591 c 0,52,53
 130 591 130 591 118 574 c 128,-1,54
 106 557 106 557 104 530 c 0,55,56
 103 506 103 506 113 491 c 128,-1,57
 123 476 123 476 155 474 c 0,46,47
395 -26 m 4,58,59
 344 -25 344 -25 315 12.5 c 132,-1,60
 286 50 286 50 287 97 c 4,61,62
 287 152 287 152 318.5 190.5 c 132,-1,63
 350 229 350 229 410 229 c 4,64,65
 432 229 432 229 453.5 221.5 c 132,-1,66
 475 214 475 214 490.5 197.5 c 132,-1,67
 506 181 506 181 514.5 154.5 c 132,-1,68
 523 128 523 128 520 90 c 4,69,70
 517 36 517 36 488 4.5 c 132,-1,71
 459 -27 459 -27 395 -26 c 4,58,59
405 45 m 4,72,73
 429 44 429 44 441 60.5 c 132,-1,74
 453 77 453 77 454 99 c 4,75,76
 455 132 455 132 441 146 c 132,-1,77
 427 160 427 160 403 160 c 4,78,79
 381 160 381 160 368.5 143 c 132,-1,80
 356 126 356 126 355 100 c 4,81,82
 354 77 354 77 364 61.5 c 132,-1,83
 374 46 374 46 405 45 c 4,72,73
EndSplineSet
Validated: 33
EndChar

StartChar: ampersand
Encoding: 6 38 9
Width: 550
GlyphClass: 1
Flags: W
LayerCount: 2
Fore
SplineSet
492 -54 m 5,0,-1
 472 -62 l 5,1,-1
 449 -53 l 5,2,-1
 433 -30 l 5,3,-1
 415 4 l 5,4,-1
 408 15 l 5,5,-1
 402 32 l 5,6,-1
 395 50 l 5,7,-1
 388 66 l 5,8,-1
 376 50 l 5,9,-1
 362 33 l 5,10,-1
 347 16 l 5,11,-1
 329 -1 l 5,12,-1
 308 -16 l 5,13,-1
 284 -28 l 5,14,-1
 256 -36 l 5,15,-1
 223 -39 l 5,16,-1
 184 -35 l 5,17,-1
 148 -24 l 5,18,-1
 116 -5 l 5,19,-1
 89 18 l 5,20,-1
 67 47 l 5,21,-1
 50 80 l 5,22,-1
 39 117 l 5,23,-1
 35 154 l 5,24,-1
 44 234 l 5,25,-1
 72 302 l 5,26,-1
 118 356 l 5,27,-1
 221 425 l 5,28,-1
 213 450 l 5,29,-1
 206 470 l 5,30,-1
 200 486 l 5,31,-1
 195 502 l 5,32,-1
 192 517 l 5,33,-1
 191 532 l 5,34,-1
 190 549 l 5,35,-1
 192 574 l 5,36,-1
 193 592 l 5,37,-1
 197 612 l 5,38,-1
 203 632 l 5,39,-1
 213 650 l 5,40,-1
 227 666 l 5,41,-1
 244 679 l 5,42,-1
 266 688 l 5,43,-1
 290 690 l 5,44,-1
 310 688 l 5,45,-1
 329 682 l 5,46,-1
 347 672 l 5,47,-1
 364 659 l 5,48,-1
 377 641 l 5,49,-1
 388 619 l 5,50,-1
 395 594 l 5,51,-1
 397 565 l 5,52,-1
 395 543 l 5,53,-1
 389 512 l 5,54,-1
 379 486 l 5,55,-1
 367 464 l 5,56,-1
 353 445 l 5,57,-1
 338 429 l 5,58,-1
 323 413 l 5,59,-1
 306 396 l 5,60,-1
 329 333 l 5,61,-1
 354 282 l 5,62,-1
 376 242 l 5,63,-1
 393 209 l 5,64,-1
 404 250 l 5,65,-1
 411 281 l 5,66,-1
 417 305 l 5,67,-1
 421 321 l 5,68,-1
 433 349 l 5,69,-1
 444 362 l 5,70,-1
 455 365 l 5,71,-1
 468 358 l 5,72,-1
 477 344 l 5,73,-1
 482 320 l 5,74,-1
 482 290 l 5,75,-1
 476 256 l 5,76,-1
 472 232 l 5,77,-1
 467 209 l 5,78,-1
 458 173 l 5,79,-1
 447 146 l 5,80,-1
 441 130 l 5,81,-1
 464 90 l 5,82,-1
 477 67 l 5,83,-1
 487 50 l 5,84,-1
 496 29 l 5,85,-1
 504 -3 l 5,86,-1
 504 -36 l 5,87,-1
 492 -54 l 5,0,-1
256 564 m 5,88,-1
 258 542 l 5,89,-1
 263 519 l 5,90,-1
 270 494 l 5,91,-1
 280 467 l 5,92,-1
 303 490 l 5,93,-1
 317 510 l 5,94,-1
 326 532 l 5,95,-1
 330 565 l 5,96,-1
 327 592 l 5,97,-1
 317 610 l 5,98,-1
 304 620 l 5,99,-1
 290 623 l 5,100,-1
 272 617 l 5,101,-1
 262 601 l 5,102,-1
 258 581 l 5,103,-1
 256 564 l 5,88,-1
128 163 m 5,104,-1
 135 118 l 5,105,-1
 155 82 l 5,106,-1
 186 57 l 5,107,-1
 224 49 l 5,108,-1
 250 51 l 5,109,-1
 272 57 l 5,110,-1
 290 66 l 5,111,-1
 305 77 l 5,112,-1
 318 90 l 5,113,-1
 329 103 l 5,114,-1
 338 116 l 5,115,-1
 347 128 l 5,116,-1
 340 144 l 5,117,-1
 333 158 l 5,118,-1
 326 172 l 5,119,-1
 319 185 l 5,120,-1
 297 227 l 5,121,-1
 279 264 l 5,122,-1
 261 304 l 5,123,-1
 244 350 l 5,124,-1
 177 296 l 5,125,-1
 148 257 l 5,126,-1
 133 212 l 5,127,-1
 128 163 l 5,104,-1
EndSplineSet
Validated: 1
EndChar

StartChar: quotesingle
Encoding: 7 39 10
Width: 550
GlyphClass: 1
Flags: W
LayerCount: 2
Fore
SplineSet
329 680 m 0,0,1
 329 665 329 665 329 634.5 c 128,-1,2
 329 604 329 604 328 570.5 c 128,-1,3
 327 537 327 537 325.5 504.5 c 128,-1,4
 324 472 324 472 322 454 c 0,5,6
 319 434 319 434 304.5 425 c 128,-1,7
 290 416 290 416 277 417 c 0,8,9
 261 418 261 418 245 428 c 128,-1,10
 229 438 229 438 231 460 c 0,11,12
 233 476 233 476 233.5 507 c 128,-1,13
 234 538 234 538 233.5 572 c 128,-1,14
 233 606 233 606 232 637.5 c 128,-1,15
 231 669 231 669 230 685 c 0,16,17
 229 710 229 710 248 716.5 c 128,-1,18
 267 723 267 723 282 722 c 0,19,20
 297 722 297 722 312.5 713.5 c 128,-1,21
 328 705 328 705 329 680 c 0,0,1
EndSplineSet
Validated: 33
EndChar

StartChar: parenleft
Encoding: 8 40 11
Width: 550
GlyphClass: 1
Flags: W
LayerCount: 2
Fore
SplineSet
386 -123 m 4,0,1
 339 -123 339 -123 298.5 -97 c 132,-1,2
 258 -71 258 -71 227 -24.5 c 132,-1,3
 196 22 196 22 175.5 87.5 c 132,-1,4
 155 153 155 153 148 230 c 4,5,6
 145 259 145 259 145 304.5 c 132,-1,7
 145 350 145 350 149.5 400 c 132,-1,8
 154 450 154 450 163 500 c 132,-1,9
 172 550 172 550 187 588 c 4,10,11
 199 618 199 618 219 649 c 132,-1,12
 239 680 239 680 265.5 704.5 c 132,-1,13
 292 729 292 729 323 745 c 132,-1,14
 354 761 354 761 387 761 c 4,15,16
 398 761 398 761 411.5 754.5 c 132,-1,17
 425 748 425 748 425 723 c 4,18,19
 425 701 425 701 412.5 693 c 132,-1,20
 400 685 400 685 385 685 c 4,21,22
 360 685 360 685 339.5 670.5 c 132,-1,23
 319 656 319 656 303 632.5 c 132,-1,24
 287 609 287 609 275 579 c 132,-1,25
 263 549 263 549 256 517 c 4,26,27
 250 492 250 492 245.5 456 c 132,-1,28
 241 420 241 420 239 382 c 132,-1,29
 237 344 237 344 237 307.5 c 132,-1,30
 237 271 237 271 239 245 c 4,31,32
 244 187 244 187 259.5 134 c 132,-1,33
 275 81 275 81 295.5 42 c 132,-1,34
 316 3 316 3 340 -20.5 c 132,-1,35
 364 -44 364 -44 386 -44 c 4,36,37
 402 -44 402 -44 413 -52.5 c 132,-1,38
 424 -61 424 -61 424 -87 c 4,39,40
 424 -103 424 -103 411 -113 c 132,-1,41
 398 -123 398 -123 386 -123 c 4,0,1
EndSplineSet
Validated: 1
EndChar

StartChar: parenright
Encoding: 9 41 12
Width: 550
GlyphClass: 1
Flags: W
LayerCount: 2
Fore
SplineSet
169 -123 m 0,0,1
 157 -123 157 -123 144 -113 c 128,-1,2
 131 -103 131 -103 131 -87 c 0,3,4
 131 -61 131 -61 142 -52.5 c 128,-1,5
 153 -44 153 -44 169 -44 c 0,6,7
 191 -44 191 -44 215 -20.5 c 128,-1,8
 239 3 239 3 259.5 42 c 128,-1,9
 280 81 280 81 295.5 134 c 128,-1,10
 311 187 311 187 316 245 c 0,11,12
 318 271 318 271 318 307.5 c 128,-1,13
 318 344 318 344 316 382 c 128,-1,14
 314 420 314 420 309.5 456 c 128,-1,15
 305 492 305 492 299 517 c 0,16,17
 292 549 292 549 280 579 c 128,-1,18
 268 609 268 609 252 632.5 c 128,-1,19
 236 656 236 656 215.5 670.5 c 128,-1,20
 195 685 195 685 170 685 c 0,21,22
 155 685 155 685 142.5 693 c 128,-1,23
 130 701 130 701 130 723 c 0,24,25
 130 748 130 748 143.5 754.5 c 128,-1,26
 157 761 157 761 168 761 c 0,27,28
 201 761 201 761 232 745 c 128,-1,29
 263 729 263 729 289.5 704.5 c 128,-1,30
 316 680 316 680 336 649 c 128,-1,31
 356 618 356 618 368 588 c 0,32,33
 383 550 383 550 392 500 c 128,-1,34
 401 450 401 450 405.5 400 c 128,-1,35
 410 350 410 350 410 304.5 c 128,-1,36
 410 259 410 259 407 230 c 0,37,38
 400 153 400 153 379.5 87.5 c 128,-1,39
 359 22 359 22 328 -24.5 c 128,-1,40
 297 -71 297 -71 256.5 -97 c 128,-1,41
 216 -123 216 -123 169 -123 c 0,0,1
EndSplineSet
Validated: 1
EndChar

StartChar: asterisk
Encoding: 10 42 13
Width: 550
GlyphClass: 1
Flags: W
LayerCount: 2
Fore
SplineSet
101 226 m 5,0,-1
 116 238 l 5,1,-1
 138 256 l 5,2,-1
 166 279 l 5,3,-1
 199 305 l 5,4,-1
 164 317 l 5,5,-1
 127 331 l 5,6,-1
 95 343 l 5,7,-1
 68 355 l 5,8,-1
 47 368 l 5,9,-1
 37 385 l 5,10,-1
 35 403 l 5,11,-1
 40 418 l 5,12,-1
 49 432 l 5,13,-1
 66 445 l 5,14,-1
 87 451 l 5,15,-1
 112 445 l 5,16,-1
 142 431 l 5,17,-1
 174 416 l 5,18,-1
 208 400 l 5,19,-1
 227 391 l 5,20,-1
 232 409 l 5,21,-1
 232 441 l 5,22,-1
 232 471 l 5,23,-1
 231 498 l 5,24,-1
 234 521 l 5,25,-1
 246 537 l 5,26,-1
 264 546 l 5,27,-1
 280 549 l 5,28,-1
 296 545 l 5,29,-1
 313 534 l 5,30,-1
 324 517 l 5,31,-1
 326 495 l 5,32,-1
 323 469 l 5,33,-1
 321 438 l 5,34,-1
 319 404 l 5,35,-1
 340 406 l 5,36,-1
 375 410 l 5,37,-1
 407 414 l 5,38,-1
 435 419 l 5,39,-1
 456 425 l 5,40,-1
 476 426 l 5,41,-1
 493 420 l 5,42,-1
 505 406 l 5,43,-1
 510 393 l 5,44,-1
 513 383 l 5,45,-1
 512 369 l 5,46,-1
 506 350 l 5,47,-1
 485 338 l 5,48,-1
 455 333 l 5,49,-1
 415 326 l 5,50,-1
 384 322 l 5,51,-1
 350 317 l 5,52,-1
 382 271 l 5,53,-1
 409 239 l 5,54,-1
 431 214 l 5,55,-1
 444 196 l 5,56,-1
 457 175 l 5,57,-1
 461 155 l 5,58,-1
 459 137 l 5,59,-1
 451 125 l 5,60,-1
 435 117 l 5,61,-1
 410 113 l 5,62,-1
 386 117 l 5,63,-1
 369 135 l 5,64,-1
 352 164 l 5,65,-1
 336 187 l 5,66,-1
 317 210 l 5,67,-1
 277 255 l 5,68,-1
 251 235 l 5,69,-1
 210 193 l 5,70,-1
 186 166 l 5,71,-1
 168 146 l 5,72,-1
 150 133 l 5,73,-1
 128 135 l 5,74,-1
 107 145 l 5,75,-1
 94 156 l 5,76,-1
 87 170 l 5,77,-1
 84 188 l 5,78,-1
 87 209 l 5,79,-1
 101 226 l 5,0,-1
EndSplineSet
Validated: 1
EndChar

StartChar: plus
Encoding: 11 43 14
Width: 550
GlyphClass: 1
Flags: W
LayerCount: 2
Fore
SplineSet
98 316 m 4,0,1
 129 315 129 315 164.5 314.5 c 132,-1,2
 200 314 200 314 237 313 c 5,3,4
 237 359 237 359 236.5 399.5 c 132,-1,5
 236 440 236 440 235 463 c 4,6,7
 234 488 234 488 248 495.5 c 132,-1,8
 262 503 262 503 277 503 c 4,9,10
 292 504 292 504 306.5 496.5 c 132,-1,11
 321 489 321 489 320 464 c 4,12,13
 319 433 319 433 318 393.5 c 132,-1,14
 317 354 317 354 317 313 c 5,15,-1
 462 313 l 6,16,17
 486 313 486 313 493.5 301 c 132,-1,18
 501 289 501 289 502 276 c 4,19,20
 502 261 502 261 494.5 246 c 132,-1,21
 487 231 487 231 462 233 c 4,22,23
 448 234 448 234 407 234.5 c 132,-1,24
 366 235 366 235 316 234 c 5,25,26
 316 179 316 179 316.5 134.5 c 132,-1,27
 317 90 317 90 317 74 c 4,28,29
 317 50 317 50 305 42.5 c 132,-1,30
 293 35 293 35 280 34 c 4,31,32
 265 34 265 34 251 41.5 c 132,-1,33
 237 49 237 49 237 74 c 6,34,-1
 237 233 l 5,35,36
 195 232 195 232 158 231.5 c 132,-1,37
 121 231 121 231 99 231 c 4,38,39
 74 231 74 231 63.5 244.5 c 132,-1,40
 53 258 53 258 53 273 c 4,41,42
 52 288 52 288 62.5 302.5 c 132,-1,43
 73 317 73 317 98 316 c 4,0,1
EndSplineSet
Validated: 33
EndChar

StartChar: comma
Encoding: 12 44 15
Width: 550
GlyphClass: 1
Flags: W
LayerCount: 2
Fore
SplineSet
326 1 m 0,0,1
 322 -11 322 -11 313 -38 c 128,-1,2
 304 -65 304 -65 292 -93.5 c 128,-1,3
 280 -122 280 -122 268 -146.5 c 128,-1,4
 256 -171 256 -171 249 -180 c 0,5,6
 235 -194 235 -194 214.5 -199.5 c 128,-1,7
 194 -205 194 -205 182 -201 c 0,8,9
 170 -199 170 -199 161.5 -187 c 128,-1,10
 153 -175 153 -175 164 -162 c 0,11,12
 173 -151 173 -151 186.5 -126 c 128,-1,13
 200 -101 200 -101 213 -73 c 128,-1,14
 226 -45 226 -45 236 -19.5 c 128,-1,15
 246 6 246 6 249 17 c 0,16,17
 252 32 252 32 268.5 35 c 128,-1,18
 285 38 285 38 299 35 c 0,19,20
 310 33 310 33 319.5 24 c 128,-1,21
 329 15 329 15 326 1 c 0,0,1
EndSplineSet
Validated: 33
EndChar

StartChar: hyphen
Encoding: 13 45 16
Width: 550
GlyphClass: 1
Flags: W
LayerCount: 2
Fore
SplineSet
169 308 m 4,0,1
 237 308 237 308 295.5 309.5 c 132,-1,2
 354 311 354 311 379 311 c 4,3,4
 403 311 403 311 410.5 300 c 132,-1,5
 418 289 418 289 419 276 c 4,6,7
 419 261 419 261 411.5 248 c 132,-1,8
 404 235 404 235 379 235 c 4,9,10
 367 235 367 235 341.5 233.5 c 132,-1,11
 316 232 316 232 285 231 c 132,-1,12
 254 230 254 230 223 228.5 c 132,-1,13
 192 227 192 227 170 227 c 4,14,15
 145 227 145 227 137.5 239.5 c 132,-1,16
 130 252 130 252 130 267 c 4,17,18
 129 282 129 282 136.5 295 c 132,-1,19
 144 308 144 308 169 308 c 4,0,1
EndSplineSet
Validated: 1
EndChar

StartChar: period
Encoding: 14 46 17
Width: 550
GlyphClass: 1
Flags: W
LayerCount: 2
Fore
SplineSet
278 -13 m 4,0,1
 248 -17 248 -17 231 3 c 132,-1,2
 214 23 214 23 214 47 c 260,3,4
 214 71 214 71 234 88 c 132,-1,5
 254 105 254 105 278 106 c 4,6,7
 306 107 306 107 322.5 89.5 c 132,-1,8
 339 72 339 72 339 48 c 260,9,10
 339 24 339 24 322.5 7 c 132,-1,11
 306 -10 306 -10 278 -13 c 4,0,1
EndSplineSet
Validated: 33
EndChar

StartChar: slash
Encoding: 15 47 18
Width: 550
GlyphClass: 1
Flags: W
LayerCount: 2
Fore
SplineSet
498 632 m 4,0,1
 480 598 480 598 442.5 534 c 132,-1,2
 405 470 405 470 363 400.5 c 132,-1,3
 321 331 321 331 282.5 266 c 132,-1,4
 244 201 244 201 225 166 c 4,5,6
 213 144 213 144 200 117 c 132,-1,7
 187 90 187 90 174.5 64 c 132,-1,8
 162 38 162 38 151 16.5 c 132,-1,9
 140 -5 140 -5 134 -16 c 4,10,11
 119 -42 119 -42 96 -52 c 132,-1,12
 73 -62 73 -62 56 -52 c 4,13,14
 43 -45 43 -45 39.5 -17.5 c 132,-1,15
 36 10 36 10 50 32 c 4,16,17
 65 56 65 56 91 99.5 c 132,-1,18
 117 143 117 143 148.5 196.5 c 132,-1,19
 180 250 180 250 215.5 311 c 132,-1,20
 251 372 251 372 284 431 c 4,21,22
 327 506 327 506 361 572 c 132,-1,23
 395 638 395 638 413 674 c 4,24,25
 425 697 425 697 446 702 c 132,-1,26
 467 707 467 707 483 699 c 260,27,28
 499 691 499 691 504.5 673 c 132,-1,29
 510 655 510 655 498 632 c 4,0,1
EndSplineSet
Validated: 33
EndChar

StartChar: zero
Encoding: 16 48 19
Width: 550
GlyphClass: 1
Flags: W
LayerCount: 2
Fore
SplineSet
264 257 m 0,0,1
 282 257 282 257 300 262.5 c 128,-1,2
 318 268 318 268 325 282 c 0,3,4
 326 283 326 283 327 289 c 128,-1,5
 328 295 328 295 329 304 c 128,-1,6
 330 313 330 313 330.5 323 c 128,-1,7
 331 333 331 333 329 342 c 0,8,9
 327 356 327 356 313.5 365 c 128,-1,10
 300 374 300 374 281 374 c 0,11,12
 260 374 260 374 247 365.5 c 128,-1,13
 234 357 234 357 228 343 c 0,14,15
 224 333 224 333 222.5 321 c 128,-1,16
 221 309 221 309 222 298 c 0,17,18
 223 290 223 290 225 283 c 128,-1,19
 227 276 227 276 232 270 c 128,-1,20
 237 264 237 264 244.5 260.5 c 128,-1,21
 252 257 252 257 264 257 c 0,0,1
245 -23 m 0,22,23
 201 -22 201 -22 164.5 -2 c 128,-1,24
 128 18 128 18 102 52.5 c 128,-1,25
 76 87 76 87 61.5 133 c 128,-1,26
 47 179 47 179 48 230 c 0,27,28
 48 290 48 290 51.5 372.5 c 128,-1,29
 55 455 55 455 84 532 c 0,30,31
 107 592 107 592 166 631.5 c 128,-1,32
 225 671 225 671 300 671 c 0,33,34
 337 671 337 671 371.5 656.5 c 128,-1,35
 406 642 406 642 433 614.5 c 128,-1,36
 460 587 460 587 478.5 546 c 128,-1,37
 497 505 497 505 501 452 c 0,38,39
 504 419 504 419 505 378 c 128,-1,40
 506 337 506 337 505 296.5 c 128,-1,41
 504 256 504 256 500.5 219 c 128,-1,42
 497 182 497 182 490 157 c 0,43,44
 475 102 475 102 451.5 66.5 c 128,-1,45
 428 31 428 31 397.5 11.5 c 128,-1,46
 367 -8 367 -8 328.5 -15.5 c 128,-1,47
 290 -23 290 -23 245 -23 c 0,22,23
245 56 m 0,48,49
 293 56 293 56 338 82 c 128,-1,50
 383 108 383 108 402 170 c 0,51,52
 404 177 404 177 407.5 205.5 c 128,-1,53
 411 234 411 234 413.5 274 c 128,-1,54
 416 314 416 314 416.5 360.5 c 128,-1,55
 417 407 417 407 413 451 c 0,56,57
 408 511 408 511 373.5 553 c 128,-1,58
 339 595 339 595 289 595 c 0,59,60
 237 595 237 595 203.5 556.5 c 128,-1,61
 170 518 170 518 155 455 c 0,62,63
 143 405 143 405 140 352 c 128,-1,64
 137 299 137 299 139 245 c 0,65,66
 140 211 140 211 146 177 c 128,-1,67
 152 143 152 143 164 116 c 128,-1,68
 176 89 176 89 196 72.5 c 128,-1,69
 216 56 216 56 245 56 c 0,48,49
EndSplineSet
Validated: 41
EndChar

StartChar: one
Encoding: 17 49 20
Width: 550
GlyphClass: 1
Flags: W
LayerCount: 2
Fore
SplineSet
125 79 m 1,0,-1
 152 79 l 1,1,-1
 182 79 l 1,2,-1
 213 78 l 1,3,-1
 238 77 l 1,4,-1
 238 105 l 1,5,-1
 238 121 l 1,6,-1
 237 138 l 1,7,-1
 236 174 l 1,8,-1
 236 216 l 1,9,-1
 237 265 l 1,10,-1
 239 317 l 1,11,-1
 241 372 l 1,12,-1
 244 431 l 1,13,-1
 246 491 l 1,14,-1
 248 550 l 1,15,-1
 224 531 l 1,16,-1
 198 510 l 1,17,-1
 171 492 l 1,18,-1
 147 480 l 1,19,-1
 128 479 l 1,20,-1
 109 490 l 1,21,-1
 95 507 l 1,22,-1
 91 523 l 1,23,-1
 93 536 l 1,24,-1
 98 549 l 1,25,-1
 108 561 l 1,26,-1
 122 574 l 1,27,-1
 181 620 l 1,28,-1
 220 654 l 1,29,-1
 249 676 l 1,30,-1
 274 683 l 1,31,-1
 295 679 l 1,32,-1
 316 666 l 1,33,-1
 331 650 l 1,34,-1
 336 637 l 1,35,-1
 336 612 l 1,36,-1
 334 574 l 1,37,-1
 332 528 l 1,38,-1
 330 480 l 1,39,-1
 328 433 l 1,40,-1
 326 389 l 1,41,-1
 325 353 l 1,42,-1
 325 331 l 1,43,-1
 325 286 l 1,44,-1
 325 251 l 1,45,-1
 325 234 l 1,46,-1
 326 216 l 1,47,-1
 326 197 l 1,48,-1
 326 175 l 1,49,-1
 326 147 l 1,50,-1
 326 122 l 1,51,-1
 327 99 l 1,52,-1
 328 74 l 1,53,-1
 358 73 l 1,54,-1
 391 72 l 1,55,-1
 416 71 l 1,56,-1
 432 71 l 1,57,-1
 451 68 l 1,58,-1
 463 60 l 1,59,-1
 469 48 l 1,60,-1
 471 35 l 1,61,-1
 470 20 l 1,62,-1
 464 5 l 1,63,-1
 452 -5 l 1,64,-1
 430 -8 l 1,65,-1
 412 -8 l 1,66,-1
 380 -8 l 1,67,-1
 338 -7 l 1,68,-1
 292 -7 l 1,69,-1
 244 -6 l 1,70,-1
 196 -6 l 1,71,-1
 154 -5 l 1,72,-1
 124 -5 l 1,73,-1
 108 -2 l 1,74,-1
 98 7 l 1,75,-1
 92 21 l 1,76,-1
 90 35 l 1,77,-1
 91 51 l 1,78,-1
 97 65 l 1,79,-1
 108 76 l 1,80,-1
 125 79 l 1,0,-1
EndSplineSet
Validated: 1
EndChar

StartChar: two
Encoding: 18 50 21
Width: 550
GlyphClass: 1
Flags: W
LayerCount: 2
Fore
SplineSet
83 570 m 1,0,-1
 94 587 l 1,1,-1
 110 606 l 1,2,-1
 131 623 l 1,3,-1
 154 640 l 1,4,-1
 181 654 l 1,5,-1
 210 665 l 1,6,-1
 243 672 l 1,7,-1
 276 675 l 1,8,-1
 364 663 l 1,9,-1
 428 628 l 1,10,-1
 469 570 l 1,11,-1
 482 488 l 1,12,-1
 479 445 l 1,13,-1
 469 409 l 1,14,-1
 453 379 l 1,15,-1
 430 352 l 1,16,-1
 402 327 l 1,17,-1
 366 303 l 1,18,-1
 323 279 l 1,19,-1
 274 252 l 1,20,-1
 220 214 l 1,21,-1
 184 168 l 1,22,-1
 162 118 l 1,23,-1
 153 65 l 1,24,-1
 253 61 l 1,25,-1
 330 64 l 1,26,-1
 390 68 l 1,27,-1
 446 61 l 1,28,-1
 460 55 l 1,29,-1
 477 48 l 1,30,-1
 489 36 l 1,31,-1
 489 17 l 1,32,-1
 482 2 l 1,33,-1
 470 -15 l 1,34,-1
 455 -26 l 1,35,-1
 438 -25 l 1,36,-1
 394 -11 l 1,37,-1
 366 -13 l 1,38,-1
 314 -15 l 1,39,-1
 264 -16 l 1,40,-1
 216 -18 l 1,41,-1
 170 -18 l 1,42,-1
 130 -17 l 1,43,-1
 97 -15 l 1,44,-1
 79 -8 l 1,45,-1
 68 11 l 1,46,-1
 61 40 l 1,47,-1
 59 78 l 1,48,-1
 62 109 l 1,49,-1
 69 141 l 1,50,-1
 81 174 l 1,51,-1
 98 206 l 1,52,-1
 119 237 l 1,53,-1
 144 266 l 1,54,-1
 174 292 l 1,55,-1
 206 313 l 1,56,-1
 257 342 l 1,57,-1
 298 366 l 1,58,-1
 329 387 l 1,59,-1
 354 408 l 1,60,-1
 371 428 l 1,61,-1
 382 450 l 1,62,-1
 387 474 l 1,63,-1
 389 504 l 1,64,-1
 382 547 l 1,65,-1
 360 575 l 1,66,-1
 325 591 l 1,67,-1
 280 596 l 1,68,-1
 242 590 l 1,69,-1
 208 572 l 1,70,-1
 179 548 l 1,71,-1
 159 524 l 1,72,-1
 143 505 l 1,73,-1
 128 498 l 1,74,-1
 113 499 l 1,75,-1
 95 505 l 1,76,-1
 82 514 l 1,77,-1
 75 528 l 1,78,-1
 74 547 l 1,79,-1
 83 570 l 1,0,-1
EndSplineSet
Validated: 1
EndChar

StartChar: three
Encoding: 19 51 22
Width: 550
GlyphClass: 1
Flags: W
LayerCount: 2
Fore
SplineSet
501 186 m 0,0,1
 501 92 501 92 442 34.5 c 128,-1,2
 383 -23 383 -23 276 -23 c 0,3,4
 242 -23 242 -23 210.5 -13 c 128,-1,5
 179 -3 179 -3 154 12.5 c 128,-1,6
 129 28 129 28 110.5 46.5 c 128,-1,7
 92 65 92 65 83 82 c 0,8,9
 72 104 72 104 76 122 c 128,-1,10
 80 140 80 140 95 147 c 0,11,12
 114 155 114 155 129 151.5 c 128,-1,13
 144 148 144 148 159 128 c 0,14,15
 176 104 176 104 208 80 c 128,-1,16
 240 56 240 56 280 56 c 0,17,18
 335 56 335 56 371.5 88 c 128,-1,19
 408 120 408 120 408 170 c 0,20,21
 408 228 408 228 368.5 262.5 c 128,-1,22
 329 297 329 297 228 297 c 0,23,24
 209 297 209 297 195 312.5 c 128,-1,25
 181 328 181 328 181 347 c 0,26,27
 181 365 181 365 190.5 378 c 128,-1,28
 200 391 200 391 221 391 c 0,29,30
 297 391 297 391 342.5 422 c 128,-1,31
 388 453 388 453 387 513 c 0,32,33
 388 556 388 556 356.5 576 c 128,-1,34
 325 596 325 596 270 596 c 0,35,36
 230 596 230 596 210.5 577 c 128,-1,37
 191 558 191 558 175 535 c 0,38,39
 159 513 159 513 144.5 510.5 c 128,-1,40
 130 508 130 508 111 516 c 0,41,42
 96 523 96 523 92 541 c 128,-1,43
 88 559 88 559 99 581 c 0,44,45
 116 615 116 615 156.5 645 c 128,-1,46
 197 675 197 675 266 675 c 0,47,48
 373 675 373 675 427 629.5 c 128,-1,49
 481 584 481 584 480 497 c 0,50,51
 481 463 481 463 469.5 438 c 128,-1,52
 458 413 458 413 439.5 396.5 c 128,-1,53
 421 380 421 380 397 370 c 128,-1,54
 373 360 373 360 349 355 c 1,55,56
 422 339 422 339 461.5 303 c 128,-1,57
 501 267 501 267 501 186 c 0,0,1
EndSplineSet
Validated: 33
EndChar

StartChar: four
Encoding: 20 52 23
Width: 550
GlyphClass: 1
Flags: W
LayerCount: 2
Fore
SplineSet
402 -22 m 0,0,1
 385 -22 385 -22 368 -8 c 128,-1,2
 351 6 351 6 350 20 c 0,3,4
 349 39 349 39 349.5 89.5 c 128,-1,5
 350 140 350 140 350 209 c 1,6,7
 320 209 320 209 287 209 c 128,-1,8
 254 209 254 209 223 208 c 128,-1,9
 192 207 192 207 163.5 204 c 128,-1,10
 135 201 135 201 114 197 c 0,11,12
 95 193 95 193 82 200.5 c 128,-1,13
 69 208 69 208 62 221.5 c 128,-1,14
 55 235 55 235 54 251.5 c 128,-1,15
 53 268 53 268 58 283 c 0,16,17
 66 305 66 305 94 347 c 128,-1,18
 122 389 122 389 158.5 439 c 128,-1,19
 195 489 195 489 235 543 c 128,-1,20
 275 597 275 597 306 642 c 0,21,22
 319 660 319 660 334.5 669 c 128,-1,23
 350 678 350 678 363 678 c 0,24,25
 379 679 379 679 395.5 671.5 c 128,-1,26
 412 664 412 664 416 642 c 0,27,28
 420 616 420 616 423 575 c 128,-1,29
 426 534 426 534 427.5 486.5 c 128,-1,30
 429 439 429 439 430 386 c 128,-1,31
 431 333 431 333 432 283 c 1,32,33
 444 282 444 282 453.5 282 c 128,-1,34
 463 282 463 282 468 282 c 0,35,36
 492 282 492 282 499.5 271 c 128,-1,37
 507 260 507 260 508 247 c 0,38,39
 508 232 508 232 500.5 219 c 128,-1,40
 493 206 493 206 468 206 c 0,41,42
 463 206 463 206 454 206 c 128,-1,43
 445 206 445 206 433 207 c 1,44,45
 434 150 434 150 435 107 c 128,-1,46
 436 64 436 64 439 51 c 0,47,48
 445 21 445 21 434 -0.5 c 128,-1,49
 423 -22 423 -22 402 -22 c 0,0,1
343 563 m 1,50,51
 297 503 297 503 243 426.5 c 128,-1,52
 189 350 189 350 155 281 c 1,53,54
 199 284 199 284 251.5 284.5 c 128,-1,55
 304 285 304 285 350 284 c 1,56,57
 350 351 350 351 348.5 424 c 128,-1,58
 347 497 347 497 343 563 c 1,50,51
EndSplineSet
Validated: 33
EndChar

StartChar: five
Encoding: 21 53 24
Width: 550
GlyphClass: 1
Flags: W
LayerCount: 2
Fore
SplineSet
69 81 m 1,0,-1
 60 104 l 1,1,-1
 61 122 l 1,2,-1
 68 137 l 1,3,-1
 81 146 l 1,4,-1
 99 152 l 1,5,-1
 114 153 l 1,6,-1
 129 146 l 1,7,-1
 145 127 l 1,8,-1
 164 104 l 1,9,-1
 188 82 l 1,10,-1
 219 67 l 1,11,-1
 259 62 l 1,12,-1
 322 76 l 1,13,-1
 370 118 l 1,14,-1
 402 182 l 1,15,-1
 412 266 l 1,16,-1
 406 316 l 1,17,-1
 387 356 l 1,18,-1
 354 384 l 1,19,-1
 307 393 l 1,20,-1
 257 388 l 1,21,-1
 222 372 l 1,22,-1
 195 352 l 1,23,-1
 153 308 l 1,24,-1
 136 295 l 1,25,-1
 114 285 l 1,26,-1
 92 282 l 1,27,-1
 75 288 l 1,28,-1
 65 308 l 1,29,-1
 63 344 l 1,30,-1
 68 391 l 1,31,-1
 70 432 l 1,32,-1
 71 473 l 1,33,-1
 74 514 l 1,34,-1
 76 550 l 1,35,-1
 77 578 l 1,36,-1
 71 591 l 1,37,-1
 68 606 l 1,38,-1
 67 620 l 1,39,-1
 70 634 l 1,40,-1
 74 646 l 1,41,-1
 82 656 l 1,42,-1
 92 664 l 1,43,-1
 105 666 l 1,44,-1
 138 666 l 1,45,-1
 178 666 l 1,46,-1
 221 665 l 1,47,-1
 268 664 l 1,48,-1
 317 663 l 1,49,-1
 367 662 l 1,50,-1
 417 662 l 1,51,-1
 451 670 l 1,52,-1
 468 668 l 1,53,-1
 482 655 l 1,54,-1
 491 637 l 1,55,-1
 495 621 l 1,56,-1
 493 602 l 1,57,-1
 479 592 l 1,58,-1
 462 587 l 1,59,-1
 447 584 l 1,60,-1
 390 583 l 1,61,-1
 333 588 l 1,62,-1
 259 590 l 1,63,-1
 161 586 l 1,64,-1
 161 568 l 1,65,-1
 160 547 l 1,66,-1
 159 524 l 1,67,-1
 158 500 l 1,68,-1
 157 475 l 1,69,-1
 157 452 l 1,70,-1
 157 429 l 1,71,-1
 158 410 l 1,72,-1
 187 434 l 1,73,-1
 226 456 l 1,74,-1
 274 471 l 1,75,-1
 331 476 l 1,76,-1
 371 472 l 1,77,-1
 406 460 l 1,78,-1
 435 442 l 1,79,-1
 460 418 l 1,80,-1
 479 389 l 1,81,-1
 494 354 l 1,82,-1
 502 317 l 1,83,-1
 505 277 l 1,84,-1
 488 153 l 1,85,-1
 438 60 l 1,86,-1
 363 2 l 1,87,-1
 268 -17 l 1,88,-1
 192 -9 l 1,89,-1
 134 15 l 1,90,-1
 94 48 l 1,91,-1
 69 81 l 1,0,-1
EndSplineSet
Validated: 1
EndChar

StartChar: six
Encoding: 22 54 25
Width: 550
GlyphClass: 1
Flags: W
LayerCount: 2
Fore
SplineSet
505 230 m 1,0,-1
 501 179 l 1,1,-1
 488 131 l 1,2,-1
 468 88 l 1,3,-1
 441 52 l 1,4,-1
 408 22 l 1,5,-1
 370 -2 l 1,6,-1
 327 -16 l 1,7,-1
 281 -21 l 1,8,-1
 227 -15 l 1,9,-1
 180 2 l 1,10,-1
 141 29 l 1,11,-1
 110 65 l 1,12,-1
 86 110 l 1,13,-1
 68 164 l 1,14,-1
 59 226 l 1,15,-1
 56 295 l 1,16,-1
 59 369 l 1,17,-1
 82 441 l 1,18,-1
 126 514 l 1,19,-1
 164 562 l 1,20,-1
 202 596 l 1,21,-1
 242 631 l 1,22,-1
 274 658 l 1,23,-1
 295 675 l 1,24,-1
 316 687 l 1,25,-1
 334 692 l 1,26,-1
 352 691 l 1,27,-1
 368 681 l 1,28,-1
 374 670 l 1,29,-1
 376 656 l 1,30,-1
 373 641 l 1,31,-1
 366 629 l 1,32,-1
 351 614 l 1,33,-1
 339 604 l 1,34,-1
 325 595 l 1,35,-1
 311 582 l 1,36,-1
 294 568 l 1,37,-1
 277 554 l 1,38,-1
 253 534 l 1,39,-1
 223 508 l 1,40,-1
 201 478 l 1,41,-1
 175 438 l 1,42,-1
 159 408 l 1,43,-1
 217 433 l 1,44,-1
 266 446 l 1,45,-1
 319 450 l 1,46,-1
 395 437 l 1,47,-1
 454 399 l 1,48,-1
 492 331 l 1,49,-1
 505 230 l 1,0,-1
295 367 m 0,50,51
 246 367 246 367 205 341.5 c 128,-1,52
 164 316 164 316 140 281 c 1,53,54
 140 262 140 262 140.5 243.5 c 128,-1,55
 141 225 141 225 142 215 c 0,56,57
 144 190 144 190 154 162 c 128,-1,58
 164 134 164 134 181 111 c 128,-1,59
 198 88 198 88 223.5 72.5 c 128,-1,60
 249 57 249 57 282 58 c 0,61,62
 308 58 308 58 332.5 72.5 c 128,-1,63
 357 87 357 87 375 109.5 c 128,-1,64
 393 132 393 132 403.5 161 c 128,-1,65
 414 190 414 190 414 219 c 0,66,67
 414 309 414 309 382 338 c 128,-1,68
 350 367 350 367 295 367 c 0,50,51
EndSplineSet
Validated: 33
EndChar

StartChar: seven
Encoding: 23 55 26
Width: 550
GlyphClass: 1
Flags: W
LayerCount: 2
Fore
SplineSet
100 658 m 0,0,1
 138 665 138 665 195.5 666.5 c 128,-1,2
 253 668 253 668 308.5 666.5 c 128,-1,3
 364 665 364 665 408 663 c 128,-1,4
 452 661 452 661 462 661 c 0,5,6
 471 661 471 661 481.5 656.5 c 128,-1,7
 492 652 492 652 499 642.5 c 128,-1,8
 506 633 506 633 507.5 618.5 c 128,-1,9
 509 604 509 604 499 584 c 0,10,11
 483 549 483 549 451.5 499.5 c 128,-1,12
 420 450 420 450 379.5 382.5 c 128,-1,13
 339 315 339 315 290 226 c 128,-1,14
 241 137 241 137 190 24 c 0,15,16
 179 -1 179 -1 160.5 -13 c 128,-1,17
 142 -25 142 -25 125 -21 c 0,18,19
 106 -17 106 -17 97.5 1.5 c 128,-1,20
 89 20 89 20 99 41 c 0,21,22
 153 149 153 149 202 233.5 c 128,-1,23
 251 318 251 318 290.5 383 c 128,-1,24
 330 448 330 448 358.5 496 c 128,-1,25
 387 544 387 544 399 581 c 1,26,27
 358 582 358 582 312 582 c 128,-1,28
 266 582 266 582 225.5 581 c 128,-1,29
 185 580 185 580 153 578 c 128,-1,30
 121 576 121 576 106 572 c 0,31,32
 83 566 83 566 72 584 c 128,-1,33
 61 602 61 602 60 617 c 0,34,35
 60 632 60 632 67.5 643 c 128,-1,36
 75 654 75 654 100 658 c 0,0,1
EndSplineSet
Validated: 33
EndChar

StartChar: eight
Encoding: 24 56 27
Width: 550
GlyphClass: 1
Flags: W
LayerCount: 2
Fore
SplineSet
506 191 m 0,0,1
 506 155 506 155 493 116.5 c 128,-1,2
 480 78 480 78 451.5 46.5 c 128,-1,3
 423 15 423 15 376 -5.5 c 128,-1,4
 329 -26 329 -26 263 -26 c 0,5,6
 202 -26 202 -26 160 -6.5 c 128,-1,7
 118 13 118 13 93 43 c 128,-1,8
 68 73 68 73 57 110.5 c 128,-1,9
 46 148 46 148 46 183 c 0,10,11
 46 207 46 207 55.5 234 c 128,-1,12
 65 261 65 261 82 286 c 128,-1,13
 99 311 99 311 123 331.5 c 128,-1,14
 147 352 147 352 176 362 c 1,15,16
 125 386 125 386 98 424 c 128,-1,17
 71 462 71 462 71 500 c 0,18,19
 71 517 71 517 77.5 546 c 128,-1,20
 84 575 84 575 104.5 602.5 c 128,-1,21
 125 630 125 630 164 650.5 c 128,-1,22
 203 671 203 671 267 671 c 0,23,24
 332 671 332 671 371.5 651 c 128,-1,25
 411 631 411 631 431.5 603 c 128,-1,26
 452 575 452 575 458.5 545 c 128,-1,27
 465 515 465 515 465 496 c 0,28,29
 465 473 465 473 454.5 454 c 128,-1,30
 444 435 444 435 428.5 420 c 128,-1,31
 413 405 413 405 395 393 c 128,-1,32
 377 381 377 381 363 371 c 1,33,34
 408 352 408 352 436 328.5 c 128,-1,35
 464 305 464 305 479.5 281 c 128,-1,36
 495 257 495 257 500.5 233.5 c 128,-1,37
 506 210 506 210 506 191 c 0,0,1
159 503 m 0,38,39
 159 472 159 472 187.5 448 c 128,-1,40
 216 424 216 424 282 400 c 1,41,42
 320 415 320 415 350.5 442.5 c 128,-1,43
 381 470 381 470 381 494 c 0,44,45
 381 513 381 513 372 533 c 128,-1,46
 363 553 363 553 348 568.5 c 128,-1,47
 333 584 333 584 312 594 c 128,-1,48
 291 604 291 604 267 604 c 0,49,50
 222 604 222 604 190.5 572 c 128,-1,51
 159 540 159 540 159 503 c 0,38,39
267 54 m 0,52,53
 294 53 294 53 321 61.5 c 128,-1,54
 348 70 348 70 370 85.5 c 128,-1,55
 392 101 392 101 405.5 124 c 128,-1,56
 419 147 419 147 419 176 c 0,57,58
 419 192 419 192 414.5 212 c 128,-1,59
 410 232 410 232 395.5 252 c 128,-1,60
 381 272 381 272 353 292 c 128,-1,61
 325 312 325 312 278 329 c 1,62,63
 209 311 209 311 168 267 c 128,-1,64
 127 223 127 223 127 174 c 0,65,66
 127 147 127 147 139.5 124.5 c 128,-1,67
 152 102 152 102 171.5 87 c 128,-1,68
 191 72 191 72 216.5 63 c 128,-1,69
 242 54 242 54 267 54 c 0,52,53
EndSplineSet
Validated: 33
EndChar

StartChar: nine
Encoding: 25 57 28
Width: 550
GlyphClass: 1
Flags: W
LayerCount: 2
Fore
SplineSet
54 448 m 1,0,-1
 58 499 l 1,1,-1
 71 546 l 1,2,-1
 91 587 l 1,3,-1
 118 622 l 1,4,-1
 151 651 l 1,5,-1
 190 673 l 1,6,-1
 232 686 l 1,7,-1
 278 691 l 1,8,-1
 379 669 l 1,9,-1
 449 602 l 1,10,-1
 490 496 l 1,11,-1
 503 354 l 1,12,-1
 496 266 l 1,13,-1
 472 187 l 1,14,-1
 433 124 l 1,15,-1
 386 73 l 1,16,-1
 332 34 l 1,17,-1
 271 5 l 1,18,-1
 206 -14 l 1,19,-1
 172 -21 l 1,20,-1
 153 -20 l 1,21,-1
 136 -15 l 1,22,-1
 122 -5 l 1,23,-1
 116 11 l 1,24,-1
 118 23 l 1,25,-1
 128 36 l 1,26,-1
 140 48 l 1,27,-1
 154 54 l 1,28,-1
 175 61 l 1,29,-1
 202 66 l 1,30,-1
 229 74 l 1,31,-1
 258 84 l 1,32,-1
 287 98 l 1,33,-1
 315 116 l 1,34,-1
 344 140 l 1,35,-1
 370 170 l 1,36,-1
 394 204 l 1,37,-1
 413 238 l 1,38,-1
 420 272 l 1,39,-1
 388 246 l 1,40,-1
 350 230 l 1,41,-1
 304 223 l 1,42,-1
 253 220 l 1,43,-1
 212 225 l 1,44,-1
 174 239 l 1,45,-1
 140 261 l 1,46,-1
 112 290 l 1,47,-1
 88 324 l 1,48,-1
 70 362 l 1,49,-1
 58 405 l 1,50,-1
 54 448 l 1,0,-1
277 303 m 0,51,52
 317 303 317 303 356.5 321.5 c 128,-1,53
 396 340 396 340 420 373 c 1,54,55
 421 395 421 395 419.5 420 c 128,-1,56
 418 445 418 445 417 455 c 0,57,58
 415 480 415 480 405 508 c 128,-1,59
 395 536 395 536 378 559 c 128,-1,60
 361 582 361 582 335.5 597.5 c 128,-1,61
 310 613 310 613 277 612 c 0,62,63
 251 612 251 612 226.5 599 c 128,-1,64
 202 586 202 586 184 564.5 c 128,-1,65
 166 543 166 543 155.5 515.5 c 128,-1,66
 145 488 145 488 145 459 c 0,67,68
 145 383 145 383 178.5 343 c 128,-1,69
 212 303 212 303 277 303 c 0,51,52
EndSplineSet
Validated: 33
EndChar

StartChar: colon
Encoding: 26 58 29
Width: 550
GlyphClass: 1
Flags: W
LayerCount: 2
Fore
SplineSet
322 485 m 4,0,1
 325 469 325 469 325.5 454 c 132,-1,2
 326 439 326 439 325 424 c 4,3,4
 323 405 323 405 310.5 395 c 132,-1,5
 298 385 298 385 288 385 c 4,6,7
 267 384 267 384 252 391.5 c 132,-1,8
 237 399 237 399 232 419 c 4,9,10
 228 439 228 439 226 450 c 132,-1,11
 224 461 224 461 223 479 c 4,12,13
 220 502 220 502 238.5 510 c 132,-1,14
 257 518 257 518 269 519 c 260,15,16
 281 520 281 520 299 514 c 132,-1,17
 317 508 317 508 322 485 c 4,0,1
328 142 m 4,18,19
 333 123 333 123 334 106 c 132,-1,20
 335 89 335 89 334 72 c 4,21,22
 332 50 332 50 316.5 39 c 132,-1,23
 301 28 301 28 290 28 c 4,24,25
 277 27 277 27 259.5 35.5 c 132,-1,26
 242 44 242 44 238 67 c 4,27,28
 233 89 233 89 232.5 102 c 132,-1,29
 232 115 232 115 230 134 c 4,30,31
 227 161 227 161 244.5 170 c 132,-1,32
 262 179 262 179 275 179 c 4,33,34
 287 181 287 181 304 174 c 132,-1,35
 321 167 321 167 328 142 c 4,18,19
EndSplineSet
Validated: 33
EndChar

StartChar: semicolon
Encoding: 27 59 30
Width: 550
GlyphClass: 1
Flags: W
LayerCount: 2
Fore
SplineSet
333 403 m 1,0,-1
 337 387 l 1,1,-1
 339 372 l 1,2,-1
 340 357 l 1,3,-1
 340 342 l 1,4,-1
 337 325 l 1,5,-1
 328 312 l 1,6,-1
 316 304 l 1,7,-1
 305 300 l 1,8,-1
 290 300 l 1,9,-1
 273 304 l 1,10,-1
 257 312 l 1,11,-1
 248 328 l 1,12,-1
 243 346 l 1,13,-1
 240 359 l 1,14,-1
 237 371 l 1,15,-1
 235 387 l 1,16,-1
 238 406 l 1,17,-1
 249 419 l 1,18,-1
 265 427 l 1,19,-1
 279 431 l 1,20,-1
 292 432 l 1,21,-1
 309 429 l 1,22,-1
 324 420 l 1,23,-1
 333 403 l 1,0,-1
341 -51 m 1,24,-1
 340 -58 l 1,25,-1
 329 -74 l 1,26,-1
 315 -93 l 1,27,-1
 300 -113 l 1,28,-1
 285 -132 l 1,29,-1
 271 -150 l 1,30,-1
 270 -175 l 1,31,-1
 262 -192 l 1,32,-1
 250 -204 l 1,33,-1
 236 -210 l 1,34,-1
 222 -211 l 1,35,-1
 206 -208 l 1,36,-1
 190 -200 l 1,37,-1
 178 -187 l 1,38,-1
 176 -168 l 1,39,-1
 179 -145 l 1,40,-1
 190 -122 l 1,41,-1
 201 -104 l 1,42,-1
 212 -85 l 1,43,-1
 225 -66 l 1,44,-1
 237 -48 l 1,45,-1
 248 -32 l 1,46,-1
 258 -20 l 1,47,-1
 270 -11 l 1,48,-1
 282 -7 l 1,49,-1
 291 -8 l 1,50,-1
 304 -11 l 1,51,-1
 310 -13 l 1,52,-1
 318 -16 l 1,53,-1
 326 -20 l 1,54,-1
 333 -26 l 1,55,-1
 337 -31 l 1,56,-1
 341 -37 l 1,57,-1
 342 -44 l 1,58,-1
 341 -51 l 1,24,-1
EndSplineSet
Validated: 1
EndChar

StartChar: less
Encoding: 28 60 31
Width: 550
GlyphClass: 1
Flags: W
LayerCount: 2
Fore
SplineSet
149 265 m 5,0,-1
 133 280 l 5,1,-1
 126 302 l 5,2,-1
 134 324 l 5,3,-1
 154 339 l 5,4,-1
 196 365 l 5,5,-1
 242 405 l 5,6,-1
 285 449 l 5,7,-1
 323 487 l 5,8,-1
 349 511 l 5,9,-1
 375 523 l 5,10,-1
 396 519 l 5,11,-1
 412 505 l 5,12,-1
 422 490 l 5,13,-1
 425 473 l 5,14,-1
 420 456 l 5,15,-1
 404 438 l 5,16,-1
 374 409 l 5,17,-1
 338 376 l 5,18,-1
 302 344 l 5,19,-1
 257 303 l 5,20,-1
 303 269 l 5,21,-1
 340 234 l 5,22,-1
 376 199 l 5,23,-1
 393 181 l 5,24,-1
 407 163 l 5,25,-1
 413 146 l 5,26,-1
 410 128 l 5,27,-1
 400 115 l 5,28,-1
 385 105 l 5,29,-1
 364 101 l 5,30,-1
 335 114 l 5,31,-1
 308 136 l 5,32,-1
 256 193 l 5,33,-1
 198 242 l 5,34,-1
 149 265 l 5,0,-1
EndSplineSet
Validated: 1
EndChar

StartChar: equal
Encoding: 29 61 32
Width: 550
GlyphClass: 1
Flags: W
LayerCount: 2
Fore
SplineSet
130 486 m 4,0,1
 169 484 169 484 215 484 c 132,-1,2
 261 484 261 484 303 484 c 132,-1,3
 345 484 345 484 378.5 485 c 132,-1,4
 412 486 412 486 427 486 c 4,5,6
 447 486 447 486 453.5 475 c 132,-1,7
 460 464 460 464 461 450 c 4,8,9
 461 436 461 436 454.5 422 c 132,-1,10
 448 408 448 408 427 410 c 4,11,12
 413 410 413 410 375 410 c 132,-1,13
 337 410 337 410 292 409 c 132,-1,14
 247 408 247 408 203 407 c 132,-1,15
 159 406 159 406 134 406 c 4,16,17
 113 406 113 406 102 418 c 132,-1,18
 91 430 91 430 91 444 c 4,19,20
 90 460 90 460 99 473 c 132,-1,21
 108 486 108 486 130 486 c 4,0,1
133 218 m 4,22,23
 173 217 173 217 218.5 217.5 c 132,-1,24
 264 218 264 218 305.5 218.5 c 132,-1,25
 347 219 347 219 380 220 c 132,-1,26
 413 221 413 221 427 221 c 4,27,28
 448 221 448 221 454.5 210 c 132,-1,29
 461 199 461 199 462 186 c 4,30,31
 462 171 462 171 455.5 157 c 132,-1,32
 449 143 449 143 427 145 c 4,33,34
 413 146 413 146 375 146 c 132,-1,35
 337 146 337 146 291.5 144.5 c 132,-1,36
 246 143 246 143 201 142 c 132,-1,37
 156 141 156 141 131 141 c 4,38,39
 110 141 110 141 101 153.5 c 132,-1,40
 92 166 92 166 92 181 c 4,41,42
 91 196 91 196 101.5 207.5 c 132,-1,43
 112 219 112 219 133 218 c 4,22,23
EndSplineSet
Validated: 33
EndChar

StartChar: greater
Encoding: 30 62 33
Width: 550
GlyphClass: 1
Flags: W
LayerCount: 2
Fore
SplineSet
402 263 m 5,0,-1
 418 278 l 5,1,-1
 425 300 l 5,2,-1
 417 322 l 5,3,-1
 397 337 l 5,4,-1
 355 363 l 5,5,-1
 309 403 l 5,6,-1
 266 447 l 5,7,-1
 228 485 l 5,8,-1
 202 509 l 5,9,-1
 176 521 l 5,10,-1
 155 518 l 5,11,-1
 139 503 l 5,12,-1
 129 488 l 5,13,-1
 126 471 l 5,14,-1
 131 455 l 5,15,-1
 147 436 l 5,16,-1
 177 407 l 5,17,-1
 213 374 l 5,18,-1
 249 342 l 5,19,-1
 294 301 l 5,20,-1
 248 267 l 5,21,-1
 211 233 l 5,22,-1
 175 197 l 5,23,-1
 158 179 l 5,24,-1
 144 161 l 5,25,-1
 138 144 l 5,26,-1
 141 127 l 5,27,-1
 151 114 l 5,28,-1
 166 103 l 5,29,-1
 187 100 l 5,30,-1
 216 112 l 5,31,-1
 243 135 l 5,32,-1
 295 191 l 5,33,-1
 353 240 l 5,34,-1
 402 263 l 5,0,-1
EndSplineSet
Validated: 9
EndChar

StartChar: question
Encoding: 31 63 34
Width: 550
GlyphClass: 1
Flags: W
LayerCount: 2
Fore
SplineSet
266 212 m 5,0,-1
 241 184 l 5,1,-1
 223 177 l 5,2,-1
 200 182 l 5,3,-1
 190 190 l 5,4,-1
 179 208 l 5,5,-1
 177 230 l 5,6,-1
 184 258 l 5,7,-1
 212 290 l 5,8,-1
 247 316 l 5,9,-1
 277 342 l 5,10,-1
 307 365 l 5,11,-1
 336 386 l 5,12,-1
 361 407 l 5,13,-1
 380 431 l 5,14,-1
 388 462 l 5,15,-1
 386 508 l 5,16,-1
 374 533 l 5,17,-1
 352 560 l 5,18,-1
 319 581 l 5,19,-1
 305 588 l 5,20,-1
 289 593 l 5,21,-1
 272 593 l 5,22,-1
 255 590 l 5,23,-1
 239 585 l 5,24,-1
 222 578 l 5,25,-1
 207 569 l 5,26,-1
 192 559 l 5,27,-1
 178 551 l 5,28,-1
 156 539 l 5,29,-1
 139 539 l 5,30,-1
 126 546 l 5,31,-1
 112 559 l 5,32,-1
 105 574 l 5,33,-1
 104 591 l 5,34,-1
 112 609 l 5,35,-1
 129 628 l 5,36,-1
 147 641 l 5,37,-1
 168 654 l 5,38,-1
 191 666 l 5,39,-1
 217 675 l 5,40,-1
 245 680 l 5,41,-1
 274 682 l 5,42,-1
 304 678 l 5,43,-1
 335 667 l 5,44,-1
 366 653 l 5,45,-1
 427 607 l 5,46,-1
 465 543 l 5,47,-1
 478 451 l 5,48,-1
 467 407 l 5,49,-1
 446 376 l 5,50,-1
 422 341 l 5,51,-1
 392 320 l 5,52,-1
 361 299 l 5,53,-1
 331 276 l 5,54,-1
 297 245 l 5,55,-1
 266 212 l 5,0,-1
191 -8 m 4,56,57
 167 -5 167 -5 159 17 c 4,58,59
 152 37 152 37 159 61 c 4,60,61
 166 84 166 84 187 95 c 4,62,63
 208 107 208 107 227 103 c 4,64,65
 248 99 248 99 256 79 c 4,66,67
 264 58 264 58 257 37 c 4,68,69
 248 14 248 14 231 2 c 4,70,71
 212 -11 212 -11 191 -8 c 4,56,57
EndSplineSet
Validated: 33
EndChar

StartChar: at
Encoding: 32 64 35
Width: 550
GlyphClass: 1
Flags: W
LayerCount: 2
Fore
SplineSet
521 169 m 5,0,-1
 520 146 l 5,1,-1
 516 122 l 5,2,-1
 510 100 l 5,3,-1
 500 80 l 5,4,-1
 487 63 l 5,5,-1
 471 50 l 5,6,-1
 451 41 l 5,7,-1
 426 38 l 5,8,-1
 393 42 l 5,9,-1
 370 54 l 5,10,-1
 357 73 l 5,11,-1
 349 96 l 5,12,-1
 338 78 l 5,13,-1
 321 62 l 5,14,-1
 298 52 l 5,15,-1
 267 49 l 5,16,-1
 219 55 l 5,17,-1
 181 74 l 5,18,-1
 156 106 l 5,19,-1
 148 152 l 5,20,-1
 153 189 l 5,21,-1
 165 225 l 5,22,-1
 185 256 l 5,23,-1
 210 280 l 5,24,-1
 239 295 l 5,25,-1
 272 303 l 5,26,-1
 307 302 l 5,27,-1
 341 294 l 5,28,-1
 361 286 l 5,29,-1
 376 274 l 5,30,-1
 384 261 l 5,31,-1
 383 250 l 5,32,-1
 369 235 l 5,33,-1
 350 230 l 5,34,-1
 329 232 l 5,35,-1
 309 236 l 5,36,-1
 280 236 l 5,37,-1
 251 223 l 5,38,-1
 229 196 l 5,39,-1
 220 170 l 5,40,-1
 221 163 l 5,41,-1
 222 154 l 5,42,-1
 224 144 l 5,43,-1
 228 135 l 5,44,-1
 233 127 l 5,45,-1
 241 120 l 5,46,-1
 250 115 l 5,47,-1
 263 114 l 5,48,-1
 290 118 l 5,49,-1
 307 131 l 5,50,-1
 316 154 l 5,51,-1
 321 177 l 5,52,-1
 324 184 l 5,53,-1
 334 190 l 5,54,-1
 348 195 l 5,55,-1
 362 198 l 5,56,-1
 377 198 l 5,57,-1
 390 197 l 5,58,-1
 399 192 l 5,59,-1
 401 183 l 5,60,-1
 402 150 l 5,61,-1
 406 123 l 5,62,-1
 416 109 l 5,63,-1
 427 107 l 5,64,-1
 434 109 l 5,65,-1
 440 116 l 5,66,-1
 444 127 l 5,67,-1
 447 139 l 5,68,-1
 450 152 l 5,69,-1
 451 165 l 5,70,-1
 452 177 l 5,71,-1
 452 186 l 5,72,-1
 447 243 l 5,73,-1
 433 296 l 5,74,-1
 412 335 l 5,75,-1
 389 361 l 5,76,-1
 363 378 l 5,77,-1
 338 385 l 5,78,-1
 314 388 l 5,79,-1
 296 389 l 5,80,-1
 260 385 l 5,81,-1
 225 372 l 5,82,-1
 194 352 l 5,83,-1
 168 324 l 5,84,-1
 146 289 l 5,85,-1
 128 248 l 5,86,-1
 117 201 l 5,87,-1
 114 149 l 5,88,-1
 117 94 l 5,89,-1
 128 48 l 5,90,-1
 145 11 l 5,91,-1
 168 -12 l 5,92,-1
 193 -28 l 5,93,-1
 221 -39 l 5,94,-1
 250 -45 l 5,95,-1
 279 -47 l 5,96,-1
 335 -44 l 5,97,-1
 374 -33 l 5,98,-1
 396 -18 l 5,99,-1
 409 -4 l 5,100,-1
 419 7 l 5,101,-1
 429 15 l 5,102,-1
 440 20 l 5,103,-1
 456 21 l 5,104,-1
 470 13 l 5,105,-1
 479 4 l 5,106,-1
 481 -9 l 5,107,-1
 473 -28 l 5,108,-1
 465 -43 l 5,109,-1
 453 -59 l 5,110,-1
 438 -75 l 5,111,-1
 418 -89 l 5,112,-1
 392 -102 l 5,113,-1
 359 -113 l 5,114,-1
 318 -119 l 5,115,-1
 269 -121 l 5,116,-1
 221 -116 l 5,117,-1
 176 -103 l 5,118,-1
 135 -81 l 5,119,-1
 100 -53 l 5,120,-1
 71 -18 l 5,121,-1
 50 25 l 5,122,-1
 36 72 l 5,123,-1
 31 124 l 5,124,-1
 37 197 l 5,125,-1
 52 262 l 5,126,-1
 76 318 l 5,127,-1
 106 370 l 5,128,-1
 149 412 l 5,129,-1
 194 437 l 5,130,-1
 242 456 l 5,131,-1
 293 462 l 5,132,-1
 342 459 l 5,133,-1
 387 449 l 5,134,-1
 426 430 l 5,135,-1
 459 401 l 5,136,-1
 485 359 l 5,137,-1
 504 310 l 5,138,-1
 517 247 l 5,139,-1
 521 169 l 5,0,-1
EndSplineSet
Validated: 1
EndChar

StartChar: A
Encoding: 33 65 36
Width: 550
GlyphClass: 1
Flags: W
LayerCount: 2
Fore
SplineSet
503 -2 m 0,0,1
 487 -9 487 -9 469 -1 c 128,-1,2
 451 7 451 7 439 38 c 0,3,4
 432 57 432 57 419.5 110.5 c 128,-1,5
 407 164 407 164 392 235 c 1,6,7
 374 234 374 234 349 232.5 c 128,-1,8
 324 231 324 231 295.5 228.5 c 128,-1,9
 267 226 267 226 236.5 222.5 c 128,-1,10
 206 219 206 219 178 215 c 1,11,12
 156 153 156 153 139.5 104.5 c 128,-1,13
 123 56 123 56 117 38 c 0,14,15
 107 7 107 7 89.5 -1 c 128,-1,16
 72 -9 72 -9 56 -2 c 0,17,18
 41 5 41 5 35 22.5 c 128,-1,19
 29 40 29 40 36 69 c 0,20,21
 39 84 39 84 53.5 123.5 c 128,-1,22
 68 163 68 163 90 215 c 1,23,24
 82 220 82 220 77.5 227.5 c 128,-1,25
 73 235 73 235 73 242 c 0,26,27
 72 255 72 255 85.5 267 c 128,-1,28
 99 279 99 279 118 285 c 1,29,30
 139 335 139 335 163 387.5 c 128,-1,31
 187 440 187 440 210 487.5 c 128,-1,32
 233 535 233 535 255 575.5 c 128,-1,33
 277 616 277 616 295 642 c 0,34,35
 308 660 308 660 319 669 c 128,-1,36
 330 678 330 678 343 678 c 0,37,38
 359 679 359 679 374 671.5 c 128,-1,39
 389 664 389 664 393 642 c 0,40,41
 401 595 401 595 418.5 505.5 c 128,-1,42
 436 416 436 416 456 325.5 c 128,-1,43
 476 235 476 235 494.5 161 c 128,-1,44
 513 87 513 87 523 69 c 0,45,46
 537 43 537 43 527.5 24 c 128,-1,47
 518 5 518 5 503 -2 c 0,0,1
325 563 m 1,48,49
 313 545 313 545 299 516 c 128,-1,50
 285 487 285 487 269.5 452 c 128,-1,51
 254 417 254 417 238.5 377 c 128,-1,52
 223 337 223 337 208 297 c 1,53,54
 259 303 259 303 302.5 306 c 128,-1,55
 346 309 346 309 377 310 c 1,56,57
 364 374 364 374 350.5 440 c 128,-1,58
 337 506 337 506 325 563 c 1,48,49
EndSplineSet
Validated: 33
EndChar

StartChar: B
Encoding: 34 66 37
Width: 550
GlyphClass: 1
Flags: W
LayerCount: 2
Fore
SplineSet
219 -13 m 0,0,1
 171 -17 171 -17 139 -20.5 c 128,-1,2
 107 -24 107 -24 87 -20 c 1,3,-1
 84 -20 l 2,4,5
 67 -20 67 -20 54 -8 c 128,-1,6
 41 4 41 4 43 28 c 0,7,8
 44 47 44 47 44.5 86.5 c 128,-1,9
 45 126 45 126 44.5 177 c 128,-1,10
 44 228 44 228 42.5 287.5 c 128,-1,11
 41 347 41 347 39 405 c 0,12,13
 38 444 38 444 37.5 471.5 c 128,-1,14
 37 499 37 499 38 520.5 c 128,-1,15
 39 542 39 542 40 560 c 128,-1,16
 41 578 41 578 41 597 c 0,17,18
 42 624 42 624 56 636 c 128,-1,19
 70 648 70 648 87 648 c 2,20,-1
 91 648 l 1,21,22
 114 655 114 655 138 658.5 c 128,-1,23
 162 662 162 662 181.5 663 c 128,-1,24
 201 664 201 664 215.5 663.5 c 128,-1,25
 230 663 230 663 235 663 c 0,26,27
 330 663 330 663 392.5 610.5 c 128,-1,28
 455 558 455 558 456 469 c 0,29,30
 457 413 457 413 430.5 374.5 c 128,-1,31
 404 336 404 336 362 319 c 1,32,33
 385 311 385 311 409 297.5 c 128,-1,34
 433 284 433 284 452 267 c 128,-1,35
 471 250 471 250 483 232 c 128,-1,36
 495 214 495 214 495 197 c 0,37,38
 496 162 496 162 477.5 127 c 128,-1,39
 459 92 459 92 424 63 c 128,-1,40
 389 34 389 34 337 13.5 c 128,-1,41
 285 -7 285 -7 219 -13 c 0,0,1
233 589 m 0,42,43
 216 589 216 589 190.5 586.5 c 128,-1,44
 165 584 165 584 135 577 c 1,45,46
 134 536 134 536 131.5 480.5 c 128,-1,47
 129 425 129 425 130 347 c 1,48,49
 146 346 146 346 166.5 345.5 c 128,-1,50
 187 345 187 345 213 345 c 0,51,52
 264 345 264 345 295 358 c 128,-1,53
 326 371 326 371 342.5 390.5 c 128,-1,54
 359 410 359 410 364.5 432.5 c 128,-1,55
 370 455 370 455 370 474 c 0,56,57
 370 506 370 506 355.5 528 c 128,-1,58
 341 550 341 550 320.5 563.5 c 128,-1,59
 300 577 300 577 276 583 c 128,-1,60
 252 589 252 589 233 589 c 0,42,43
221 278 m 1,61,62
 192 278 192 278 170 278 c 128,-1,63
 148 278 148 278 132 277 c 1,64,65
 133 218 133 218 135 162 c 128,-1,66
 137 106 137 106 138 63 c 1,67,68
 152 64 152 64 170 64 c 128,-1,69
 188 64 188 64 208 65 c 0,70,71
 253 66 253 66 289 79 c 128,-1,72
 325 92 325 92 350 110.5 c 128,-1,73
 375 129 375 129 388.5 149.5 c 128,-1,74
 402 170 402 170 402 186 c 0,75,76
 402 208 402 208 360.5 236 c 128,-1,77
 319 264 319 264 221 278 c 1,61,62
EndSplineSet
Validated: 33
EndChar

StartChar: C
Encoding: 35 67 38
Width: 550
GlyphClass: 1
Flags: W
LayerCount: 2
Fore
SplineSet
359 667 m 0,0,1
 376 667 376 667 392.5 665 c 128,-1,2
 409 663 409 663 422 659 c 1,3,4
 426 673 426 673 437 682 c 128,-1,5
 448 691 448 691 460 692 c 0,6,7
 473 694 473 694 490 685 c 128,-1,8
 507 676 507 676 511 656 c 0,9,10
 519 619 519 619 519 591 c 128,-1,11
 519 563 519 563 519 547 c 0,12,13
 519 527 519 527 504.5 506.5 c 128,-1,14
 490 486 490 486 475 485 c 0,15,16
 460 483 460 483 441.5 493.5 c 128,-1,17
 423 504 423 504 423 525 c 0,18,19
 423 532 423 532 423.5 542 c 128,-1,20
 424 552 424 552 425 564 c 1,21,22
 414 571 414 571 399 581 c 128,-1,23
 384 591 384 591 366 591 c 0,24,25
 329 591 329 591 287.5 561.5 c 128,-1,26
 246 532 246 532 211.5 482 c 128,-1,27
 177 432 177 432 154 365 c 128,-1,28
 131 298 131 298 131 224 c 0,29,30
 131 193 131 193 141 162.5 c 128,-1,31
 151 132 151 132 167.5 108.5 c 128,-1,32
 184 85 184 85 207.5 70 c 128,-1,33
 231 55 231 55 258 55 c 0,34,35
 321 55 321 55 367 77 c 128,-1,36
 413 99 413 99 438 118 c 0,37,38
 454 129 454 129 469 134 c 128,-1,39
 484 139 484 139 498 129 c 0,40,41
 511 119 511 119 513.5 102 c 128,-1,42
 516 85 516 85 494 60 c 0,43,44
 481 45 481 45 460.5 29 c 128,-1,45
 440 13 440 13 410.5 0 c 128,-1,46
 381 -13 381 -13 340.5 -21.5 c 128,-1,47
 300 -30 300 -30 247 -29 c 0,48,49
 198 -29 198 -29 159 -9 c 128,-1,50
 120 11 120 11 93 42.5 c 128,-1,51
 66 74 66 74 52 114 c 128,-1,52
 38 154 38 154 38 194 c 0,53,54
 38 298 38 298 68.5 385.5 c 128,-1,55
 99 473 99 473 145.5 535.5 c 128,-1,56
 192 598 192 598 249 632.5 c 128,-1,57
 306 667 306 667 359 667 c 0,0,1
EndSplineSet
Validated: 33
EndChar

StartChar: D
Encoding: 36 68 39
Width: 550
GlyphClass: 1
Flags: W
LayerCount: 2
Fore
SplineSet
315 -29 m 1,0,-1
 224 -26 l 1,1,-1
 154 -15 l 1,2,-1
 106 -4 l 1,3,-1
 84 0 l 1,4,-1
 68 3 l 1,5,-1
 54 12 l 1,6,-1
 45 27 l 1,7,-1
 43 48 l 1,8,-1
 44 74 l 1,9,-1
 44 111 l 1,10,-1
 45 156 l 1,11,-1
 44 208 l 1,12,-1
 44 264 l 1,13,-1
 42 326 l 1,14,-1
 41 390 l 1,15,-1
 39 455 l 1,16,-1
 38 509 l 1,17,-1
 38 551 l 1,18,-1
 40 586 l 1,19,-1
 41 617 l 1,20,-1
 42 646 l 1,21,-1
 51 674 l 1,22,-1
 66 697 l 1,23,-1
 83 705 l 1,24,-1
 119 696 l 1,25,-1
 201 655 l 1,26,-1
 253 634 l 1,27,-1
 328 596 l 1,28,-1
 400 539 l 1,29,-1
 464 460 l 1,30,-1
 509 353 l 1,31,-1
 524 216 l 1,32,-1
 520 175 l 1,33,-1
 510 132 l 1,34,-1
 493 91 l 1,35,-1
 469 54 l 1,36,-1
 439 21 l 1,37,-1
 403 -6 l 1,38,-1
 362 -23 l 1,39,-1
 315 -29 l 1,0,-1
131 325 m 0,40,41
 133 260 133 260 134.5 200.5 c 128,-1,42
 136 141 136 141 138 82 c 1,43,44
 178 65 178 65 220.5 58 c 128,-1,45
 263 51 263 51 314 51 c 0,46,47
 341 51 341 51 363 69 c 128,-1,48
 385 87 385 87 401 114 c 128,-1,49
 417 141 417 141 425.5 174.5 c 128,-1,50
 434 208 434 208 434 239 c 0,51,52
 434 326 434 326 403 384.5 c 128,-1,53
 372 443 372 443 326.5 481 c 128,-1,54
 281 519 281 519 227.5 541.5 c 128,-1,55
 174 564 174 564 130 580 c 1,56,57
 129 520 129 520 129 459.5 c 128,-1,58
 129 399 129 399 131 325 c 0,40,41
EndSplineSet
Validated: 1
EndChar

StartChar: E
Encoding: 37 69 40
Width: 550
GlyphClass: 1
Flags: W
LayerCount: 2
Fore
SplineSet
455 -6 m 1,0,-1
 433 -6 l 1,1,-1
 398 -8 l 1,2,-1
 354 -10 l 1,3,-1
 305 -13 l 1,4,-1
 254 -16 l 1,5,-1
 201 -18 l 1,6,-1
 152 -19 l 1,7,-1
 111 -17 l 1,8,-1
 90 -11 l 1,9,-1
 69 4 l 1,10,-1
 52 26 l 1,11,-1
 43 53 l 1,12,-1
 41 79 l 1,13,-1
 40 114 l 1,14,-1
 40 156 l 1,15,-1
 40 204 l 1,16,-1
 41 256 l 1,17,-1
 41 314 l 1,18,-1
 40 374 l 1,19,-1
 39 435 l 1,20,-1
 38 494 l 1,21,-1
 38 538 l 1,22,-1
 40 573 l 1,23,-1
 41 607 l 1,24,-1
 45 630 l 1,25,-1
 56 646 l 1,26,-1
 71 655 l 1,27,-1
 87 658 l 1,28,-1
 98 658 l 1,29,-1
 108 655 l 1,30,-1
 117 650 l 1,31,-1
 129 646 l 1,32,-1
 166 658 l 1,33,-1
 213 668 l 1,34,-1
 259 676 l 1,35,-1
 309 675 l 1,36,-1
 354 674 l 1,37,-1
 395 668 l 1,38,-1
 434 659 l 1,39,-1
 461 650 l 1,40,-1
 484 638 l 1,41,-1
 496 630 l 1,42,-1
 502 618 l 1,43,-1
 504 605 l 1,44,-1
 502 589 l 1,45,-1
 497 573 l 1,46,-1
 485 564 l 1,47,-1
 461 567 l 1,48,-1
 417 575 l 1,49,-1
 369 584 l 1,50,-1
 321 589 l 1,51,-1
 277 589 l 1,52,-1
 238 582 l 1,53,-1
 200 573 l 1,54,-1
 163 563 l 1,55,-1
 134 552 l 1,56,-1
 133 524 l 1,57,-1
 132 479 l 1,58,-1
 130 429 l 1,59,-1
 130 376 l 1,60,-1
 177 377 l 1,61,-1
 226 379 l 1,62,-1
 274 382 l 1,63,-1
 320 385 l 1,64,-1
 363 387 l 1,65,-1
 401 390 l 1,66,-1
 432 391 l 1,67,-1
 453 392 l 1,68,-1
 473 389 l 1,69,-1
 485 380 l 1,70,-1
 491 367 l 1,71,-1
 494 353 l 1,72,-1
 492 337 l 1,73,-1
 486 323 l 1,74,-1
 474 312 l 1,75,-1
 453 308 l 1,76,-1
 432 308 l 1,77,-1
 397 305 l 1,78,-1
 355 302 l 1,79,-1
 308 298 l 1,80,-1
 260 294 l 1,81,-1
 211 291 l 1,82,-1
 167 288 l 1,83,-1
 131 287 l 1,84,-1
 132 258 l 1,85,-1
 132 223 l 1,86,-1
 132 188 l 1,87,-1
 133 156 l 1,88,-1
 134 126 l 1,89,-1
 136 100 l 1,90,-1
 138 75 l 1,91,-1
 156 72 l 1,92,-1
 191 71 l 1,93,-1
 236 71 l 1,94,-1
 285 73 l 1,95,-1
 334 76 l 1,96,-1
 381 79 l 1,97,-1
 419 83 l 1,98,-1
 442 86 l 1,99,-1
 475 88 l 1,100,-1
 493 76 l 1,101,-1
 501 59 l 1,102,-1
 504 43 l 1,103,-1
 502 27 l 1,104,-1
 493 10 l 1,105,-1
 478 -3 l 1,106,-1
 455 -6 l 1,0,-1
EndSplineSet
Validated: 1
EndChar

StartChar: F
Encoding: 38 70 41
Width: 550
GlyphClass: 1
Flags: W
LayerCount: 2
Fore
SplineSet
139 23 m 1,0,-1
 133 4 l 1,1,-1
 120 -10 l 1,2,-1
 102 -18 l 1,3,-1
 84 -20 l 1,4,-1
 68 -17 l 1,5,-1
 54 -8 l 1,6,-1
 45 7 l 1,7,-1
 43 28 l 1,8,-1
 44 53 l 1,9,-1
 44 90 l 1,10,-1
 45 134 l 1,11,-1
 44 185 l 1,12,-1
 44 241 l 1,13,-1
 42 302 l 1,14,-1
 41 364 l 1,15,-1
 39 425 l 1,16,-1
 38 461 l 1,17,-1
 38 492 l 1,18,-1
 37 518 l 1,19,-1
 38 540 l 1,20,-1
 39 561 l 1,21,-1
 40 580 l 1,22,-1
 41 598 l 1,23,-1
 41 617 l 1,24,-1
 45 640 l 1,25,-1
 56 656 l 1,26,-1
 71 665 l 1,27,-1
 87 668 l 1,28,-1
 98 668 l 1,29,-1
 108 665 l 1,30,-1
 118 660 l 1,31,-1
 167 666 l 1,32,-1
 211 672 l 1,33,-1
 258 674 l 1,34,-1
 304 675 l 1,35,-1
 350 672 l 1,36,-1
 394 665 l 1,37,-1
 432 658 l 1,38,-1
 478 643 l 1,39,-1
 494 631 l 1,40,-1
 502 619 l 1,41,-1
 503 607 l 1,42,-1
 500 595 l 1,43,-1
 492 582 l 1,44,-1
 480 572 l 1,45,-1
 456 569 l 1,46,-1
 434 575 l 1,47,-1
 377 587 l 1,48,-1
 294 593 l 1,49,-1
 211 586 l 1,50,-1
 134 572 l 1,51,-1
 133 532 l 1,52,-1
 131 486 l 1,53,-1
 130 435 l 1,54,-1
 130 376 l 1,55,-1
 155 383 l 1,56,-1
 192 391 l 1,57,-1
 238 395 l 1,58,-1
 282 398 l 1,59,-1
 318 397 l 1,60,-1
 356 394 l 1,61,-1
 387 390 l 1,62,-1
 410 387 l 1,63,-1
 430 382 l 1,64,-1
 442 374 l 1,65,-1
 448 364 l 1,66,-1
 450 352 l 1,67,-1
 448 337 l 1,68,-1
 443 323 l 1,69,-1
 431 313 l 1,70,-1
 410 311 l 1,71,-1
 379 311 l 1,72,-1
 346 314 l 1,73,-1
 308 317 l 1,74,-1
 267 318 l 1,75,-1
 236 315 l 1,76,-1
 192 307 l 1,77,-1
 153 300 l 1,78,-1
 131 296 l 1,79,-1
 132 257 l 1,80,-1
 133 218 l 1,81,-1
 134 179 l 1,82,-1
 135 142 l 1,83,-1
 136 108 l 1,84,-1
 137 76 l 1,85,-1
 138 47 l 1,86,-1
 139 23 l 1,0,-1
EndSplineSet
Validated: 1
EndChar

StartChar: G
Encoding: 39 71 42
Width: 550
GlyphClass: 1
Flags: W
LayerCount: 2
Fore
SplineSet
223 319 m 1,0,-1
 243 327 l 1,1,-1
 271 333 l 1,2,-1
 305 339 l 1,3,-1
 342 343 l 1,4,-1
 380 346 l 1,5,-1
 416 347 l 1,6,-1
 449 348 l 1,7,-1
 475 347 l 1,8,-1
 496 344 l 1,9,-1
 508 337 l 1,10,-1
 515 327 l 1,11,-1
 519 314 l 1,12,-1
 519 299 l 1,13,-1
 517 285 l 1,14,-1
 511 273 l 1,15,-1
 499 265 l 1,16,-1
 498 256 l 1,17,-1
 497 247 l 1,18,-1
 496 238 l 1,19,-1
 495 228 l 1,20,-1
 488 195 l 1,21,-1
 472 155 l 1,22,-1
 450 112 l 1,23,-1
 421 70 l 1,24,-1
 386 32 l 1,25,-1
 344 0 l 1,26,-1
 298 -22 l 1,27,-1
 247 -29 l 1,28,-1
 200 -24 l 1,29,-1
 159 -9 l 1,30,-1
 123 14 l 1,31,-1
 93 42 l 1,32,-1
 69 76 l 1,33,-1
 52 114 l 1,34,-1
 42 154 l 1,35,-1
 38 194 l 1,36,-1
 41 288 l 1,37,-1
 63 399 l 1,38,-1
 98 484 l 1,39,-1
 141 556 l 1,40,-1
 191 614 l 1,41,-1
 245 658 l 1,42,-1
 306 680 l 1,43,-1
 362 682 l 1,44,-1
 389 675 l 1,45,-1
 408 668 l 1,46,-1
 431 661 l 1,47,-1
 453 651 l 1,48,-1
 473 642 l 1,49,-1
 490 632 l 1,50,-1
 503 623 l 1,51,-1
 511 616 l 1,52,-1
 520 601 l 1,53,-1
 522 585 l 1,54,-1
 520 571 l 1,55,-1
 517 560 l 1,56,-1
 510 550 l 1,57,-1
 499 544 l 1,58,-1
 485 541 l 1,59,-1
 470 543 l 1,60,-1
 461 547 l 1,61,-1
 451 553 l 1,62,-1
 438 560 l 1,63,-1
 425 567 l 1,64,-1
 411 574 l 1,65,-1
 396 581 l 1,66,-1
 381 585 l 1,67,-1
 357 592 l 1,68,-1
 327 590 l 1,69,-1
 288 567 l 1,70,-1
 248 535 l 1,71,-1
 212 488 l 1,72,-1
 180 433 l 1,73,-1
 154 368 l 1,74,-1
 137 298 l 1,75,-1
 132 224 l 1,76,-1
 134 194 l 1,77,-1
 142 165 l 1,78,-1
 153 138 l 1,79,-1
 168 113 l 1,80,-1
 186 93 l 1,81,-1
 208 77 l 1,82,-1
 232 66 l 1,83,-1
 253 61 l 1,84,-1
 277 67 l 1,85,-1
 305 82 l 1,86,-1
 331 106 l 1,87,-1
 354 133 l 1,88,-1
 375 165 l 1,89,-1
 393 198 l 1,90,-1
 408 230 l 1,91,-1
 417 261 l 1,92,-1
 391 259 l 1,93,-1
 363 257 l 1,94,-1
 334 254 l 1,95,-1
 307 250 l 1,96,-1
 291 247 l 1,97,-1
 268 241 l 1,98,-1
 249 235 l 1,99,-1
 234 228 l 1,100,-1
 218 223 l 1,101,-1
 204 229 l 1,102,-1
 192 242 l 1,103,-1
 187 257 l 1,104,-1
 187 274 l 1,105,-1
 192 290 l 1,106,-1
 203 306 l 1,107,-1
 223 319 l 1,0,-1
EndSplineSet
Validated: 1
EndChar

StartChar: H
Encoding: 40 72 43
Width: 550
GlyphClass: 1
Flags: W
LayerCount: 2
Fore
SplineSet
151 620 m 1,0,-1
 150 600 l 1,1,-1
 148 580 l 1,2,-1
 147 554 l 1,3,-1
 146 522 l 1,4,-1
 142 472 l 1,5,-1
 140 437 l 1,6,-1
 141 374 l 1,7,-1
 140 330 l 1,8,-1
 216 345 l 1,9,-1
 286 357 l 1,10,-1
 344 369 l 1,11,-1
 401 381 l 1,12,-1
 400 406 l 1,13,-1
 400 416 l 1,14,-1
 399 425 l 1,15,-1
 399 435 l 1,16,-1
 398 495 l 1,17,-1
 398 542 l 1,18,-1
 406 594 l 1,19,-1
 416 628 l 1,20,-1
 426 649 l 1,21,-1
 440 662 l 1,22,-1
 457 667 l 1,23,-1
 473 665 l 1,24,-1
 490 659 l 1,25,-1
 503 647 l 1,26,-1
 510 630 l 1,27,-1
 508 607 l 1,28,-1
 494 567 l 1,29,-1
 493 502 l 1,30,-1
 492 422 l 1,31,-1
 490 327 l 1,32,-1
 486 247 l 1,33,-1
 491 162 l 1,34,-1
 495 86 l 1,35,-1
 500 28 l 1,36,-1
 495 8 l 1,37,-1
 483 -6 l 1,38,-1
 467 -16 l 1,39,-1
 449 -20 l 1,40,-1
 432 -18 l 1,41,-1
 418 -11 l 1,42,-1
 407 3 l 1,43,-1
 403 24 l 1,44,-1
 403 44 l 1,45,-1
 402 70 l 1,46,-1
 401 101 l 1,47,-1
 399 137 l 1,48,-1
 397 177 l 1,49,-1
 396 221 l 1,50,-1
 396 272 l 1,51,-1
 397 290 l 1,52,-1
 372 286 l 1,53,-1
 344 281 l 1,54,-1
 311 274 l 1,55,-1
 276 267 l 1,56,-1
 241 260 l 1,57,-1
 205 253 l 1,58,-1
 172 246 l 1,59,-1
 142 240 l 1,60,-1
 142 230 l 1,61,-1
 141 225 l 1,62,-1
 140 220 l 1,63,-1
 140 216 l 1,64,-1
 137 175 l 1,65,-1
 134 127 l 1,66,-1
 131 67 l 1,67,-1
 128 18 l 1,68,-1
 121 0 l 1,69,-1
 106 -13 l 1,70,-1
 88 -20 l 1,71,-1
 70 -20 l 1,72,-1
 54 -16 l 1,73,-1
 41 -6 l 1,74,-1
 33 10 l 1,75,-1
 33 31 l 1,76,-1
 36 61 l 1,77,-1
 41 108 l 1,78,-1
 46 169 l 1,79,-1
 52 238 l 1,80,-1
 53 304 l 1,81,-1
 52 357 l 1,82,-1
 50 416 l 1,83,-1
 52 486 l 1,84,-1
 53 511 l 1,85,-1
 54 542 l 1,86,-1
 54 558 l 1,87,-1
 54 571 l 1,88,-1
 55 582 l 1,89,-1
 56 593 l 1,90,-1
 57 604 l 1,91,-1
 57 617 l 1,92,-1
 61 640 l 1,93,-1
 72 656 l 1,94,-1
 87 665 l 1,95,-1
 103 668 l 1,96,-1
 121 666 l 1,97,-1
 136 658 l 1,98,-1
 147 643 l 1,99,-1
 151 620 l 1,0,-1
EndSplineSet
Validated: 1
EndChar

StartChar: I
Encoding: 41 73 44
Width: 550
GlyphClass: 1
Flags: W
LayerCount: 2
Fore
SplineSet
85 62 m 4,0,1
 114 63 114 63 150 64 c 132,-1,2
 186 65 186 65 223 66 c 5,3,4
 224 90 224 90 226 126.5 c 132,-1,5
 228 163 228 163 228.5 207 c 132,-1,6
 229 251 229 251 229 302 c 132,-1,7
 229 353 229 353 228 405 c 4,8,9
 225 476 225 476 227 513 c 132,-1,10
 229 550 229 550 230 584 c 5,11,12
 190 585 190 585 154 585 c 132,-1,13
 118 585 118 585 94 584 c 4,14,15
 69 583 69 583 57.5 594.5 c 132,-1,16
 46 606 46 606 46 621 c 4,17,18
 45 636 45 636 56.5 648.5 c 132,-1,19
 68 661 68 661 93 662 c 4,20,21
 195 665 195 665 288.5 664 c 132,-1,22
 382 663 382 663 463 655 c 4,23,24
 487 653 487 653 496 641.5 c 132,-1,25
 505 630 505 630 506 617 c 4,26,27
 506 602 506 602 496 585 c 132,-1,28
 486 568 486 568 461 572 c 4,29,30
 442 575 442 575 405 577.5 c 132,-1,31
 368 580 368 580 324 582 c 5,32,33
 323 542 323 542 322 486.5 c 132,-1,34
 321 431 321 431 323 350 c 4,35,36
 325 265 325 265 321.5 192.5 c 132,-1,37
 318 120 318 120 318 67 c 5,38,39
 369 67 369 67 410.5 66.5 c 132,-1,40
 452 66 452 66 468 66 c 4,41,42
 492 66 492 66 499.5 55 c 132,-1,43
 507 44 507 44 508 31 c 4,44,45
 508 16 508 16 500.5 1 c 132,-1,46
 493 -14 493 -14 468 -10 c 4,47,48
 441 -6 441 -6 389 -6 c 132,-1,49
 337 -6 337 -6 280 -7.5 c 132,-1,50
 223 -9 223 -9 169.5 -11 c 132,-1,51
 116 -13 116 -13 87 -13 c 4,52,53
 62 -13 62 -13 50.5 -3.5 c 132,-1,54
 39 6 39 6 39 21 c 4,55,56
 38 36 38 36 48.5 48.5 c 132,-1,57
 59 61 59 61 85 62 c 4,0,1
EndSplineSet
Validated: 33
EndChar

StartChar: J
Encoding: 42 74 45
Width: 550
GlyphClass: 1
Flags: W
LayerCount: 2
Fore
SplineSet
169 664 m 1,0,-1
 203 664 l 1,1,-1
 298 664 l 1,2,-1
 389 661 l 1,3,-1
 473 655 l 1,4,-1
 493 651 l 1,5,-1
 506 642 l 1,6,-1
 513 630 l 1,7,-1
 516 617 l 1,8,-1
 514 602 l 1,9,-1
 506 585 l 1,10,-1
 492 573 l 1,11,-1
 471 572 l 1,12,-1
 453 574 l 1,13,-1
 430 576 l 1,14,-1
 401 579 l 1,15,-1
 370 580 l 1,16,-1
 370 542 l 1,17,-1
 372 498 l 1,18,-1
 374 449 l 1,19,-1
 376 399 l 1,20,-1
 377 348 l 1,21,-1
 377 296 l 1,22,-1
 376 247 l 1,23,-1
 374 201 l 1,24,-1
 360 92 l 1,25,-1
 336 20 l 1,26,-1
 304 -20 l 1,27,-1
 264 -33 l 1,28,-1
 216 -27 l 1,29,-1
 174 -8 l 1,30,-1
 137 19 l 1,31,-1
 106 49 l 1,32,-1
 81 81 l 1,33,-1
 62 113 l 1,34,-1
 50 141 l 1,35,-1
 44 160 l 1,36,-1
 44 179 l 1,37,-1
 47 202 l 1,38,-1
 58 221 l 1,39,-1
 81 230 l 1,40,-1
 100 230 l 1,41,-1
 115 222 l 1,42,-1
 124 208 l 1,43,-1
 127 192 l 1,44,-1
 128 178 l 1,45,-1
 132 160 l 1,46,-1
 140 138 l 1,47,-1
 152 116 l 1,48,-1
 169 96 l 1,49,-1
 190 78 l 1,50,-1
 218 66 l 1,51,-1
 253 62 l 1,52,-1
 268 73 l 1,53,-1
 280 106 l 1,54,-1
 287 157 l 1,55,-1
 291 224 l 1,56,-1
 291 277 l 1,57,-1
 290 350 l 1,58,-1
 288 449 l 1,59,-1
 289 583 l 1,60,-1
 237 584 l 1,61,-1
 170 586 l 1,62,-1
 148 588 l 1,63,-1
 134 596 l 1,64,-1
 125 609 l 1,65,-1
 122 623 l 1,66,-1
 124 637 l 1,67,-1
 132 650 l 1,68,-1
 147 660 l 1,69,-1
 169 664 l 1,0,-1
EndSplineSet
Validated: 1
EndChar

StartChar: K
Encoding: 43 75 46
Width: 550
GlyphClass: 1
Flags: W
LayerCount: 2
Fore
SplineSet
412 -10 m 1,0,-1
 395 -1 l 1,1,-1
 356 26 l 1,2,-1
 319 55 l 1,3,-1
 284 95 l 1,4,-1
 238 143 l 1,5,-1
 203 188 l 1,6,-1
 163 237 l 1,7,-1
 131 284 l 1,8,-1
 131 265 l 1,9,-1
 133 192 l 1,10,-1
 136 128 l 1,11,-1
 138 72 l 1,12,-1
 139 23 l 1,13,-1
 133 4 l 1,14,-1
 120 -10 l 1,15,-1
 102 -18 l 1,16,-1
 84 -20 l 1,17,-1
 68 -17 l 1,18,-1
 54 -8 l 1,19,-1
 45 7 l 1,20,-1
 43 28 l 1,21,-1
 44 53 l 1,22,-1
 44 90 l 1,23,-1
 45 134 l 1,24,-1
 44 185 l 1,25,-1
 44 241 l 1,26,-1
 42 302 l 1,27,-1
 41 364 l 1,28,-1
 39 425 l 1,29,-1
 37 488 l 1,30,-1
 38 538 l 1,31,-1
 40 580 l 1,32,-1
 41 617 l 1,33,-1
 45 640 l 1,34,-1
 56 656 l 1,35,-1
 71 665 l 1,36,-1
 87 668 l 1,37,-1
 105 666 l 1,38,-1
 120 658 l 1,39,-1
 131 643 l 1,40,-1
 135 620 l 1,41,-1
 134 578 l 1,42,-1
 133 526 l 1,43,-1
 131 464 l 1,44,-1
 130 396 l 1,45,-1
 169 434 l 1,46,-1
 210 474 l 1,47,-1
 251 514 l 1,48,-1
 289 551 l 1,49,-1
 324 585 l 1,50,-1
 354 614 l 1,51,-1
 377 636 l 1,52,-1
 391 649 l 1,53,-1
 410 663 l 1,54,-1
 428 668 l 1,55,-1
 442 665 l 1,56,-1
 454 657 l 1,57,-1
 462 645 l 1,58,-1
 464 630 l 1,59,-1
 460 612 l 1,60,-1
 446 592 l 1,61,-1
 434 579 l 1,62,-1
 412 556 l 1,63,-1
 383 526 l 1,64,-1
 348 492 l 1,65,-1
 271 414 l 1,66,-1
 232 375 l 1,67,-1
 196 340 l 1,68,-1
 232 292 l 1,69,-1
 276 240 l 1,70,-1
 316 192 l 1,71,-1
 364 142 l 1,72,-1
 408 99 l 1,73,-1
 450 76 l 1,74,-1
 473 67 l 1,75,-1
 492 54 l 1,76,-1
 503 42 l 1,77,-1
 508 27 l 1,78,-1
 508 12 l 1,79,-1
 505 0 l 1,80,-1
 496 -14 l 1,81,-1
 483 -22 l 1,82,-1
 465 -25 l 1,83,-1
 444 -20 l 1,84,-1
 412 -10 l 1,0,-1
EndSplineSet
Validated: 1
EndChar

StartChar: L
Encoding: 44 76 47
Width: 550
GlyphClass: 1
Flags: W
LayerCount: 2
Fore
SplineSet
468 34 m 1,0,-1
 425 24 l 1,1,-1
 376 11 l 1,2,-1
 316 2 l 1,3,-1
 257 -6 l 1,4,-1
 194 -11 l 1,5,-1
 141 -13 l 1,6,-1
 103 -14 l 1,7,-1
 84 -14 l 1,8,-1
 68 -11 l 1,9,-1
 54 -2 l 1,10,-1
 45 13 l 1,11,-1
 43 34 l 1,12,-1
 47 84 l 1,13,-1
 54 147 l 1,14,-1
 62 228 l 1,15,-1
 69 333 l 1,16,-1
 70 367 l 1,17,-1
 70 406 l 1,18,-1
 70 448 l 1,19,-1
 70 488 l 1,20,-1
 69 525 l 1,21,-1
 68 560 l 1,22,-1
 68 589 l 1,23,-1
 68 609 l 1,24,-1
 72 632 l 1,25,-1
 83 648 l 1,26,-1
 98 657 l 1,27,-1
 114 660 l 1,28,-1
 132 658 l 1,29,-1
 148 650 l 1,30,-1
 158 635 l 1,31,-1
 162 612 l 1,32,-1
 161 556 l 1,33,-1
 158 482 l 1,34,-1
 155 394 l 1,35,-1
 152 297 l 1,36,-1
 149 234 l 1,37,-1
 144 178 l 1,38,-1
 140 123 l 1,39,-1
 139 67 l 1,40,-1
 180 68 l 1,41,-1
 232 73 l 1,42,-1
 281 80 l 1,43,-1
 328 90 l 1,44,-1
 371 100 l 1,45,-1
 409 108 l 1,46,-1
 439 115 l 1,47,-1
 459 121 l 1,48,-1
 479 122 l 1,49,-1
 494 112 l 1,50,-1
 504 95 l 1,51,-1
 509 80 l 1,52,-1
 508 65 l 1,53,-1
 503 53 l 1,54,-1
 492 43 l 1,55,-1
 468 34 l 1,0,-1
EndSplineSet
Validated: 1
EndChar

StartChar: M
Encoding: 45 77 48
Width: 550
GlyphClass: 1
Flags: W
LayerCount: 2
Fore
SplineSet
325 16 m 1,0,-1
 317 5 l 1,1,-1
 304 -2 l 1,2,-1
 289 -6 l 1,3,-1
 273 -7 l 1,4,-1
 256 -6 l 1,5,-1
 242 -1 l 1,6,-1
 232 7 l 1,7,-1
 227 18 l 1,8,-1
 220 51 l 1,9,-1
 210 102 l 1,10,-1
 200 164 l 1,11,-1
 188 234 l 1,12,-1
 177 310 l 1,13,-1
 164 388 l 1,14,-1
 153 464 l 1,15,-1
 143 533 l 1,16,-1
 137 468 l 1,17,-1
 132 398 l 1,18,-1
 127 321 l 1,19,-1
 121 237 l 1,20,-1
 117 172 l 1,21,-1
 112 120 l 1,22,-1
 108 81 l 1,23,-1
 107 55 l 1,24,-1
 104 28 l 1,25,-1
 94 7 l 1,26,-1
 79 -6 l 1,27,-1
 58 -10 l 1,28,-1
 40 -4 l 1,29,-1
 29 11 l 1,30,-1
 24 33 l 1,31,-1
 22 59 l 1,32,-1
 23 86 l 1,33,-1
 28 131 l 1,34,-1
 34 186 l 1,35,-1
 40 245 l 1,36,-1
 44 298 l 1,37,-1
 50 356 l 1,38,-1
 55 415 l 1,39,-1
 61 471 l 1,40,-1
 67 522 l 1,41,-1
 73 566 l 1,42,-1
 80 601 l 1,43,-1
 88 622 l 1,44,-1
 101 640 l 1,45,-1
 120 651 l 1,46,-1
 141 657 l 1,47,-1
 158 658 l 1,48,-1
 172 656 l 1,49,-1
 187 652 l 1,50,-1
 200 642 l 1,51,-1
 209 624 l 1,52,-1
 218 581 l 1,53,-1
 228 522 l 1,54,-1
 238 454 l 1,55,-1
 247 381 l 1,56,-1
 256 306 l 1,57,-1
 264 232 l 1,58,-1
 273 165 l 1,59,-1
 280 110 l 1,60,-1
 284 156 l 1,61,-1
 288 213 l 1,62,-1
 294 278 l 1,63,-1
 301 348 l 1,64,-1
 306 392 l 1,65,-1
 312 435 l 1,66,-1
 319 476 l 1,67,-1
 326 515 l 1,68,-1
 333 550 l 1,69,-1
 339 580 l 1,70,-1
 344 606 l 1,71,-1
 349 624 l 1,72,-1
 359 642 l 1,73,-1
 376 652 l 1,74,-1
 397 657 l 1,75,-1
 414 658 l 1,76,-1
 429 657 l 1,77,-1
 449 654 l 1,78,-1
 466 643 l 1,79,-1
 475 619 l 1,80,-1
 480 578 l 1,81,-1
 485 510 l 1,82,-1
 491 427 l 1,83,-1
 498 338 l 1,84,-1
 504 250 l 1,85,-1
 510 168 l 1,86,-1
 517 103 l 1,87,-1
 522 67 l 1,88,-1
 526 41 l 1,89,-1
 523 20 l 1,90,-1
 515 6 l 1,91,-1
 502 -4 l 1,92,-1
 486 -7 l 1,93,-1
 468 -3 l 1,94,-1
 453 11 l 1,95,-1
 441 36 l 1,96,-1
 435 66 l 1,97,-1
 430 118 l 1,98,-1
 424 184 l 1,99,-1
 420 258 l 1,100,-1
 415 340 l 1,101,-1
 412 424 l 1,102,-1
 408 507 l 1,103,-1
 406 582 l 1,104,-1
 397 535 l 1,105,-1
 387 474 l 1,106,-1
 378 407 l 1,107,-1
 371 336 l 1,108,-1
 366 281 l 1,109,-1
 360 226 l 1,110,-1
 354 176 l 1,111,-1
 348 130 l 1,112,-1
 341 89 l 1,113,-1
 335 56 l 1,114,-1
 330 31 l 1,115,-1
 325 16 l 1,0,-1
EndSplineSet
Validated: 1
EndChar

StartChar: N
Encoding: 46 78 49
Width: 550
GlyphClass: 1
Flags: W
LayerCount: 2
Fore
SplineSet
496 10 m 1,0,-1
 486 -1 l 1,1,-1
 472 -8 l 1,2,-1
 455 -12 l 1,3,-1
 437 -13 l 1,4,-1
 419 -12 l 1,5,-1
 406 -6 l 1,6,-1
 396 2 l 1,7,-1
 390 12 l 1,8,-1
 373 45 l 1,9,-1
 345 94 l 1,10,-1
 309 157 l 1,11,-1
 270 227 l 1,12,-1
 229 302 l 1,13,-1
 189 380 l 1,14,-1
 153 457 l 1,15,-1
 125 527 l 1,16,-1
 128 458 l 1,17,-1
 129 385 l 1,18,-1
 129 311 l 1,19,-1
 127 241 l 1,20,-1
 126 177 l 1,21,-1
 123 120 l 1,22,-1
 122 74 l 1,23,-1
 122 45 l 1,24,-1
 119 18 l 1,25,-1
 108 0 l 1,26,-1
 91 -10 l 1,27,-1
 72 -13 l 1,28,-1
 53 -8 l 1,29,-1
 42 5 l 1,30,-1
 36 25 l 1,31,-1
 34 50 l 1,32,-1
 34 87 l 1,33,-1
 36 147 l 1,34,-1
 38 223 l 1,35,-1
 40 305 l 1,36,-1
 41 389 l 1,37,-1
 42 471 l 1,38,-1
 42 544 l 1,39,-1
 39 600 l 1,40,-1
 44 632 l 1,41,-1
 63 651 l 1,42,-1
 88 659 l 1,43,-1
 114 660 l 1,44,-1
 130 656 l 1,45,-1
 144 652 l 1,46,-1
 158 642 l 1,47,-1
 167 624 l 1,48,-1
 183 582 l 1,49,-1
 210 524 l 1,50,-1
 245 455 l 1,51,-1
 282 384 l 1,52,-1
 322 311 l 1,53,-1
 362 240 l 1,54,-1
 397 177 l 1,55,-1
 426 129 l 1,56,-1
 427 181 l 1,57,-1
 428 245 l 1,58,-1
 428 315 l 1,59,-1
 428 383 l 1,60,-1
 423 450 l 1,61,-1
 416 513 l 1,62,-1
 406 563 l 1,63,-1
 395 599 l 1,64,-1
 391 620 l 1,65,-1
 396 638 l 1,66,-1
 409 651 l 1,67,-1
 426 658 l 1,68,-1
 451 659 l 1,69,-1
 466 652 l 1,70,-1
 476 638 l 1,71,-1
 485 616 l 1,72,-1
 493 588 l 1,73,-1
 504 515 l 1,74,-1
 513 421 l 1,75,-1
 514 319 l 1,76,-1
 512 217 l 1,77,-1
 509 121 l 1,78,-1
 503 47 l 1,79,-1
 496 10 l 1,0,-1
EndSplineSet
Validated: 1
EndChar

StartChar: O
Encoding: 47 79 50
Width: 550
GlyphClass: 1
Flags: W
LayerCount: 2
Fore
SplineSet
245 -23 m 0,0,1
 201 -22 201 -22 164.5 -2 c 128,-1,2
 128 18 128 18 102 52.5 c 128,-1,3
 76 87 76 87 61.5 133 c 128,-1,4
 47 179 47 179 48 230 c 0,5,6
 48 290 48 290 51.5 372.5 c 128,-1,7
 55 455 55 455 84 532 c 0,8,9
 107 592 107 592 166 631.5 c 128,-1,10
 225 671 225 671 300 671 c 0,11,12
 337 671 337 671 371.5 656.5 c 128,-1,13
 406 642 406 642 433 614.5 c 128,-1,14
 460 587 460 587 478.5 546 c 128,-1,15
 497 505 497 505 501 452 c 0,16,17
 504 419 504 419 505 378 c 128,-1,18
 506 337 506 337 505 296.5 c 128,-1,19
 504 256 504 256 500.5 219 c 128,-1,20
 497 182 497 182 490 157 c 0,21,22
 475 102 475 102 451.5 66.5 c 128,-1,23
 428 31 428 31 397.5 11.5 c 128,-1,24
 367 -8 367 -8 328.5 -15.5 c 128,-1,25
 290 -23 290 -23 245 -23 c 0,0,1
245 56 m 0,26,27
 293 56 293 56 338 82 c 128,-1,28
 383 108 383 108 402 170 c 0,29,30
 404 177 404 177 407.5 205.5 c 128,-1,31
 411 234 411 234 413.5 274 c 128,-1,32
 416 314 416 314 416.5 360.5 c 128,-1,33
 417 407 417 407 413 451 c 0,34,35
 408 511 408 511 373.5 553 c 128,-1,36
 339 595 339 595 289 595 c 0,37,38
 237 595 237 595 203.5 556.5 c 128,-1,39
 170 518 170 518 155 455 c 0,40,41
 143 405 143 405 140 352 c 128,-1,42
 137 299 137 299 139 245 c 0,43,44
 140 211 140 211 146 177 c 128,-1,45
 152 143 152 143 164 116 c 128,-1,46
 176 89 176 89 196 72.5 c 128,-1,47
 216 56 216 56 245 56 c 0,26,27
EndSplineSet
Validated: 33
EndChar

StartChar: P
Encoding: 48 80 51
Width: 550
GlyphClass: 1
Flags: W
LayerCount: 2
Fore
SplineSet
245 215 m 0,0,1
 205 215 205 215 177 218 c 128,-1,2
 149 221 149 221 131 225 c 1,3,4
 130 159 130 159 131 111.5 c 128,-1,5
 132 64 132 64 133 23 c 0,6,7
 133 2 133 2 115 -8.5 c 128,-1,8
 97 -19 97 -19 78 -18 c 0,9,10
 61 -17 61 -17 47.5 -6.5 c 128,-1,11
 34 4 34 4 37 28 c 0,12,13
 39 48 39 48 41.5 90 c 128,-1,14
 44 132 44 132 46 186 c 128,-1,15
 48 240 48 240 50.5 303 c 128,-1,16
 53 366 53 366 55 427 c 0,17,18
 58 493 58 493 60.5 525 c 128,-1,19
 63 557 63 557 65 588 c 0,20,21
 64 589 64 589 63 590.5 c 128,-1,22
 62 592 62 592 61 593 c 0,23,24
 50 609 50 609 61.5 627 c 128,-1,25
 73 645 73 645 86 648 c 0,26,27
 105 652 105 652 135 655.5 c 128,-1,28
 165 659 165 659 194.5 661 c 128,-1,29
 224 663 224 663 247 664 c 128,-1,30
 270 665 270 665 277 665 c 0,31,32
 324 665 324 665 364 652 c 128,-1,33
 404 639 404 639 432 614 c 128,-1,34
 460 589 460 589 475 551.5 c 128,-1,35
 490 514 490 514 488 466 c 0,36,37
 485 414 485 414 466 368 c 128,-1,38
 447 322 447 322 414.5 288 c 128,-1,39
 382 254 382 254 339 234.5 c 128,-1,40
 296 215 296 215 245 215 c 0,0,1
272 589 m 0,41,42
 255 589 255 589 220.5 586.5 c 128,-1,43
 186 584 186 584 154 581 c 1,44,45
 150 535 150 535 143.5 462.5 c 128,-1,46
 137 390 137 390 133 305 c 1,47,48
 147 300 147 300 167 295.5 c 128,-1,49
 187 291 187 291 221 291 c 0,50,51
 283 291 283 291 319 310 c 128,-1,52
 355 329 355 329 373 356.5 c 128,-1,53
 391 384 391 384 396 415.5 c 128,-1,54
 401 447 401 447 403 472 c 0,55,56
 405 506 405 506 391.5 529 c 128,-1,57
 378 552 378 552 358.5 565 c 128,-1,58
 339 578 339 578 315 583.5 c 128,-1,59
 291 589 291 589 272 589 c 0,41,42
EndSplineSet
Validated: 33
EndChar

StartChar: Q
Encoding: 49 81 52
Width: 550
GlyphClass: 1
Flags: W
LayerCount: 2
Fore
SplineSet
269 -23 m 0,0,1
 216 -23 216 -23 175.5 -2.5 c 128,-1,2
 135 18 135 18 107.5 52.5 c 128,-1,3
 80 87 80 87 65 133.5 c 128,-1,4
 50 180 50 180 48 230 c 0,5,6
 46 288 46 288 51 369.5 c 128,-1,7
 56 451 56 451 85 528 c 0,8,9
 108 588 108 588 166.5 629.5 c 128,-1,10
 225 671 225 671 300 671 c 0,11,12
 374 671 374 671 431.5 619.5 c 128,-1,13
 489 568 489 568 501 452 c 0,14,15
 504 419 504 419 505.5 377.5 c 128,-1,16
 507 336 507 336 506 294.5 c 128,-1,17
 505 253 505 253 502 215 c 128,-1,18
 499 177 499 177 494 152 c 0,19,20
 483 97 483 97 458.5 62 c 128,-1,21
 434 27 434 27 402 8 c 1,22,23
 433 -37 433 -37 462.5 -74 c 128,-1,24
 492 -111 492 -111 508 -132 c 0,25,26
 518 -146 518 -146 509.5 -165.5 c 128,-1,27
 501 -185 501 -185 491 -192 c 0,28,29
 477 -202 477 -202 459.5 -197 c 128,-1,30
 442 -192 442 -192 429 -176 c 0,31,32
 417 -161 417 -161 386 -115.5 c 128,-1,33
 355 -70 355 -70 323 -19 c 1,34,35
 310 -21 310 -21 296 -22 c 128,-1,36
 282 -23 282 -23 269 -23 c 0,0,1
269 56 m 2,37,-1
 279 56 l 1,38,39
 269 75 269 75 260.5 92 c 128,-1,40
 252 109 252 109 247 122 c 0,41,42
 236 151 236 151 239.5 170.5 c 128,-1,43
 243 190 243 190 256 200 c 0,44,45
 268 210 268 210 283.5 207 c 128,-1,46
 299 204 299 204 307 181 c 0,47,48
 316 156 316 156 328.5 130.5 c 128,-1,49
 341 105 341 105 356 80 c 1,50,51
 375 93 375 93 388.5 114 c 128,-1,52
 402 135 402 135 409 166 c 0,53,54
 410 173 410 173 413 202 c 128,-1,55
 416 231 416 231 417.5 271.5 c 128,-1,56
 419 312 419 312 418.5 359.5 c 128,-1,57
 418 407 418 407 413 451 c 0,58,59
 406 517 406 517 372.5 556 c 128,-1,60
 339 595 339 595 289 595 c 0,61,62
 237 595 237 595 203 557.5 c 128,-1,63
 169 520 169 520 154 457 c 0,64,65
 142 407 142 407 138.5 351.5 c 128,-1,66
 135 296 135 296 139 245 c 0,67,68
 142 205 142 205 152.5 170.5 c 128,-1,69
 163 136 163 136 180 110.5 c 128,-1,70
 197 85 197 85 219.5 70.5 c 128,-1,71
 242 56 242 56 269 56 c 2,37,-1
EndSplineSet
Validated: 33
EndChar

StartChar: R
Encoding: 50 82 53
Width: 550
GlyphClass: 1
Flags: W
LayerCount: 2
Fore
SplineSet
427 7 m 0,0,1
 414 24 414 24 385.5 54.5 c 128,-1,2
 357 85 357 85 318 119 c 128,-1,3
 279 153 279 153 231.5 186.5 c 128,-1,4
 184 220 184 220 134 242 c 1,5,6
 138 172 138 172 144 119 c 128,-1,7
 150 66 150 66 153 23 c 0,8,9
 154 2 154 2 136.5 -8.5 c 128,-1,10
 119 -19 119 -19 100 -18 c 0,11,12
 83 -17 83 -17 69 -6.5 c 128,-1,13
 55 4 55 4 57 28 c 0,14,15
 58 49 58 49 59.5 67 c 128,-1,16
 61 85 61 85 61.5 111 c 128,-1,17
 62 137 62 137 61.5 176.5 c 128,-1,18
 61 216 61 216 60 279 c 0,19,20
 59 317 59 317 61.5 357 c 128,-1,21
 64 397 64 397 62 465 c 0,22,23
 61 510 61 510 57 554.5 c 128,-1,24
 53 599 53 599 53 617 c 2,25,-1
 53 622 l 2,26,27
 52 630 52 630 55.5 638.5 c 128,-1,28
 59 647 59 647 65 653 c 0,29,30
 71 660 71 660 80 664 c 128,-1,31
 89 668 89 668 99 668 c 0,32,33
 107 668 107 668 114.5 666 c 128,-1,34
 122 664 122 664 128 660 c 0,35,36
 228 655 228 655 299 631 c 128,-1,37
 370 607 370 607 414 573 c 128,-1,38
 458 539 458 539 478.5 498.5 c 128,-1,39
 499 458 499 458 499 420 c 0,40,41
 499 378 499 378 480.5 350.5 c 128,-1,42
 462 323 462 323 428.5 306.5 c 128,-1,43
 395 290 395 290 348 281 c 128,-1,44
 301 272 301 272 245 268 c 1,45,46
 295 242 295 242 338.5 211.5 c 128,-1,47
 382 181 382 181 416 150.5 c 128,-1,48
 450 120 450 120 473 92.5 c 128,-1,49
 496 65 496 65 506 44 c 0,50,51
 513 28 513 28 506 13 c 128,-1,52
 499 -2 499 -2 489 -9 c 0,53,54
 475 -19 475 -19 458.5 -15.5 c 128,-1,55
 442 -12 442 -12 427 7 c 0,0,1
146 465 m 0,56,57
 146 443 146 443 142.5 406.5 c 128,-1,58
 139 370 139 370 136 336 c 1,59,60
 144 335 144 335 158 334.5 c 128,-1,61
 172 334 172 334 195 335 c 0,62,63
 297 340 297 340 355 355 c 128,-1,64
 413 370 413 370 413 416 c 0,65,66
 413 450 413 450 384 478 c 128,-1,67
 355 506 355 506 313 527.5 c 128,-1,68
 271 549 271 549 224 563 c 128,-1,69
 177 577 177 577 142 583 c 1,70,71
 143 555 143 555 144 527 c 128,-1,72
 145 499 145 499 146 465 c 0,56,57
EndSplineSet
Validated: 33
EndChar

StartChar: S
Encoding: 51 83 54
Width: 550
GlyphClass: 1
Flags: W
LayerCount: 2
Fore
SplineSet
52 62 m 0,0,1
 39 87 39 87 44 103.5 c 128,-1,2
 49 120 49 120 64 127 c 0,3,4
 83 135 83 135 97 134 c 128,-1,5
 111 133 111 133 128 108 c 0,6,7
 144 84 144 84 173 68 c 128,-1,8
 202 52 202 52 242 52 c 0,9,10
 270 52 270 52 301 62 c 128,-1,11
 332 72 332 72 358 90.5 c 128,-1,12
 384 109 384 109 401.5 135.5 c 128,-1,13
 419 162 419 162 419 194 c 0,14,15
 419 216 419 216 412.5 238 c 128,-1,16
 406 260 406 260 385 279 c 128,-1,17
 364 298 364 298 322.5 313 c 128,-1,18
 281 328 281 328 212 335 c 0,19,20
 178 339 178 339 151.5 353 c 128,-1,21
 125 367 125 367 107 386.5 c 128,-1,22
 89 406 89 406 80 429 c 128,-1,23
 71 452 71 452 71 473 c 0,24,25
 71 512 71 512 88.5 549 c 128,-1,26
 106 586 106 586 140 614 c 128,-1,27
 174 642 174 642 224.5 659.5 c 128,-1,28
 275 677 275 677 341 677 c 0,29,30
 351 677 351 677 369 676 c 128,-1,31
 387 675 387 675 406.5 673 c 128,-1,32
 426 671 426 671 443.5 668 c 128,-1,33
 461 665 461 665 470 662 c 0,34,35
 489 655 489 655 496 640.5 c 128,-1,36
 503 626 503 626 501 611 c 0,37,38
 498 588 498 588 478.5 586.5 c 128,-1,39
 459 585 459 585 445 589 c 0,40,41
 425 594 425 594 402.5 598.5 c 128,-1,42
 380 603 380 603 333 603 c 0,43,44
 302 603 302 603 271.5 595.5 c 128,-1,45
 241 588 241 588 217.5 574 c 128,-1,46
 194 560 194 560 179.5 540.5 c 128,-1,47
 165 521 165 521 165 496 c 0,48,49
 165 461 165 461 196 435.5 c 128,-1,50
 227 410 227 410 286 407 c 0,51,52
 353 404 353 404 397 384.5 c 128,-1,53
 441 365 441 365 466.5 337 c 128,-1,54
 492 309 492 309 502 275.5 c 128,-1,55
 512 242 512 242 512 210 c 0,56,57
 512 155 512 155 489.5 111 c 128,-1,58
 467 67 467 67 429 36.5 c 128,-1,59
 391 6 391 6 341.5 -10.5 c 128,-1,60
 292 -27 292 -27 238 -27 c 0,61,62
 169 -27 169 -27 119.5 0.5 c 128,-1,63
 70 28 70 28 52 62 c 0,0,1
EndSplineSet
Validated: 33
EndChar

StartChar: T
Encoding: 52 84 55
Width: 550
GlyphClass: 1
Flags: W
LayerCount: 2
Fore
SplineSet
88 667 m 0,0,1
 107 664 107 664 154 661.5 c 128,-1,2
 201 659 201 659 257 658 c 128,-1,3
 313 657 313 657 370.5 656 c 128,-1,4
 428 655 428 655 468 655 c 0,5,6
 492 655 492 655 501 642.5 c 128,-1,7
 510 630 510 630 511 617 c 0,8,9
 511 602 511 602 501 586.5 c 128,-1,10
 491 571 491 571 466 572 c 0,11,12
 447 573 447 573 408.5 574.5 c 128,-1,13
 370 576 370 576 324 577 c 1,14,15
 324 529 324 529 325.5 456 c 128,-1,16
 327 383 327 383 329 306 c 128,-1,17
 331 229 331 229 333 155 c 128,-1,18
 335 81 335 81 336 31 c 0,19,20
 334 10 334 10 317 -1.5 c 128,-1,21
 300 -13 300 -13 281 -12 c 0,22,23
 264 -12 264 -12 251 0 c 128,-1,24
 238 12 238 12 240 36 c 0,25,26
 242 66 242 66 240.5 135.5 c 128,-1,27
 239 205 239 205 236.5 285.5 c 128,-1,28
 234 366 234 366 231.5 447 c 128,-1,29
 229 528 229 528 230 580 c 1,30,31
 184 582 184 582 146 584 c 128,-1,32
 108 586 108 586 89 589 c 0,33,34
 64 593 64 593 52.5 602 c 128,-1,35
 41 611 41 611 41 626 c 0,36,37
 40 641 40 641 51.5 656 c 128,-1,38
 63 671 63 671 88 667 c 0,0,1
EndSplineSet
Validated: 33
EndChar

StartChar: U
Encoding: 53 85 56
Width: 550
GlyphClass: 1
Flags: W
LayerCount: 2
Fore
SplineSet
517 243 m 0,0,1
 514 167 514 167 488.5 114.5 c 128,-1,2
 463 62 463 62 426.5 31 c 128,-1,3
 390 0 390 0 346.5 -13.5 c 128,-1,4
 303 -27 303 -27 266 -27 c 0,5,6
 234 -27 234 -27 196.5 -14.5 c 128,-1,7
 159 -2 159 -2 126.5 26.5 c 128,-1,8
 94 55 94 55 71.5 103.5 c 128,-1,9
 49 152 49 152 47 223 c 0,10,11
 46 279 46 279 44.5 334.5 c 128,-1,12
 43 390 43 390 42.5 439.5 c 128,-1,13
 42 489 42 489 42.5 532.5 c 128,-1,14
 43 576 43 576 44 610 c 0,15,16
 45 636 45 636 59.5 649.5 c 128,-1,17
 74 663 74 663 91 663 c 0,18,19
 107 663 107 663 118.5 652.5 c 128,-1,20
 130 642 130 642 130 615 c 0,21,22
 130 594 130 594 130 539 c 128,-1,23
 130 484 130 484 131 422.5 c 128,-1,24
 132 361 132 361 133 306.5 c 128,-1,25
 134 252 134 252 135 232 c 0,26,27
 137 202 137 202 144.5 171 c 128,-1,28
 152 140 152 140 168 115 c 128,-1,29
 184 90 184 90 209.5 74 c 128,-1,30
 235 58 235 58 273 58 c 0,31,32
 336 58 336 58 379.5 101 c 128,-1,33
 423 144 423 144 429 238 c 0,34,35
 432 281 432 281 433 336.5 c 128,-1,36
 434 392 434 392 433.5 444 c 128,-1,37
 433 496 433 496 432.5 539.5 c 128,-1,38
 432 583 432 583 432 602 c 0,39,40
 432 646 432 646 445.5 655 c 128,-1,41
 459 664 459 664 475 664 c 0,42,43
 492 664 492 664 504 650.5 c 128,-1,44
 516 637 516 637 517 612 c 0,45,46
 520 553 520 553 520.5 454.5 c 128,-1,47
 521 356 521 356 517 243 c 0,0,1
EndSplineSet
Validated: 33
EndChar

StartChar: V
Encoding: 54 86 57
Width: 550
GlyphClass: 1
Flags: W
LayerCount: 2
Fore
SplineSet
503 661 m 0,0,1
 518 654 518 654 526.5 635.5 c 128,-1,2
 535 617 535 617 523 590 c 0,3,4
 514 570 514 570 487 495.5 c 128,-1,5
 460 421 460 421 429 331.5 c 128,-1,6
 398 242 398 242 369.5 155.5 c 128,-1,7
 341 69 341 69 330 25 c 0,8,9
 324 3 324 3 310 -4.5 c 128,-1,10
 296 -12 296 -12 280 -11 c 0,11,12
 267 -11 267 -11 250.5 -4.5 c 128,-1,13
 234 2 234 2 226 23 c 0,14,15
 206 74 206 74 175.5 161.5 c 128,-1,16
 145 249 145 249 115.5 336.5 c 128,-1,17
 86 424 86 424 63.5 496 c 128,-1,18
 41 568 41 568 36 590 c 0,19,20
 29 619 29 619 35 636.5 c 128,-1,21
 41 654 41 654 56 661 c 0,22,23
 72 668 72 668 89.5 660 c 128,-1,24
 107 652 107 652 117 621 c 0,25,26
 124 599 124 599 143.5 535.5 c 128,-1,27
 163 472 163 472 186.5 396 c 128,-1,28
 210 320 210 320 234.5 243.5 c 128,-1,29
 259 167 259 167 275 120 c 1,30,31
 297 185 297 185 323.5 264.5 c 128,-1,32
 350 344 350 344 373.5 416.5 c 128,-1,33
 397 489 397 489 415 545.5 c 128,-1,34
 433 602 433 602 439 621 c 0,35,36
 449 652 449 652 468 660 c 128,-1,37
 487 668 487 668 503 661 c 0,0,1
EndSplineSet
Validated: 33
EndChar

StartChar: W
Encoding: 55 87 58
Width: 550
GlyphClass: 1
Flags: W
LayerCount: 2
Fore
SplineSet
235 642 m 0,0,1
 241 655 241 655 256 660 c 128,-1,2
 271 665 271 665 287 665 c 0,3,4
 306 666 306 666 318 659 c 128,-1,5
 330 652 330 652 333 640 c 0,6,7
 337 623 337 623 342.5 586.5 c 128,-1,8
 348 550 348 550 354 503 c 128,-1,9
 360 456 360 456 366 401 c 128,-1,10
 372 346 372 346 379 291 c 0,11,12
 385 242 385 242 392.5 195 c 128,-1,13
 400 148 400 148 407 108 c 1,14,15
 416 182 416 182 423 268.5 c 128,-1,16
 430 355 430 355 437 461 c 0,17,18
 441 516 441 516 442.5 552 c 128,-1,19
 444 588 444 588 443 603 c 0,20,21
 442 634 442 634 456 651 c 128,-1,22
 470 668 470 668 487 667 c 0,23,24
 507 666 507 666 514 646 c 128,-1,25
 521 626 521 626 521 598 c 0,26,27
 521 583 521 583 518.5 542 c 128,-1,28
 516 501 516 501 512 452 c 0,29,30
 507 395 507 395 501 326.5 c 128,-1,31
 495 258 495 258 488.5 197 c 128,-1,32
 482 136 482 136 474.5 88.5 c 128,-1,33
 467 41 467 41 459 26 c 0,34,35
 449 5 449 5 428.5 -3 c 128,-1,36
 408 -11 408 -11 392 -10 c 0,37,38
 379 -10 379 -10 363 -4 c 128,-1,39
 347 2 347 2 341 24 c 0,40,41
 332 59 332 59 322 123 c 128,-1,42
 312 187 312 187 305 263 c 0,43,44
 301 301 301 301 297.5 341 c 128,-1,45
 294 381 294 381 291 418 c 128,-1,46
 288 455 288 455 285 488.5 c 128,-1,47
 282 522 282 522 279 547 c 1,48,49
 275 499 275 499 267 421.5 c 128,-1,50
 259 344 259 344 250 265.5 c 128,-1,51
 241 187 241 187 232 119.5 c 128,-1,52
 223 52 223 52 216 24 c 0,53,54
 210 2 210 2 188 -4.5 c 128,-1,55
 166 -11 166 -11 150 -10 c 0,56,57
 137 -10 137 -10 115 -6 c 128,-1,58
 93 -2 93 -2 89 29 c 0,59,60
 87 47 87 47 79 90 c 128,-1,61
 71 133 71 133 65 189 c 256,62,63
 59 245 59 245 53.5 308.5 c 128,-1,64
 48 372 48 372 42.5 429 c 128,-1,65
 37 486 37 486 33 530 c 128,-1,66
 29 574 29 574 28 591 c 0,67,68
 26 621 26 621 33 639 c 128,-1,69
 40 657 40 657 55 664 c 0,70,71
 71 671 71 671 90.5 662 c 128,-1,72
 110 653 110 653 109 622 c 0,73,74
 109 605 109 605 111.5 563.5 c 128,-1,75
 114 522 114 522 118 468 c 128,-1,76
 122 414 122 414 127.5 350 c 128,-1,77
 133 286 133 286 139 224 c 0,78,79
 143 183 143 183 147.5 144 c 128,-1,80
 152 105 152 105 156 70 c 1,81,82
 163 124 163 124 173.5 214.5 c 128,-1,83
 184 305 184 305 195.5 394 c 128,-1,84
 207 483 207 483 217.5 554.5 c 128,-1,85
 228 626 228 626 235 642 c 0,0,1
EndSplineSet
Validated: 33
EndChar

StartChar: X
Encoding: 56 88 59
Width: 550
GlyphClass: 1
Flags: W
LayerCount: 2
Fore
SplineSet
429 5 m 0,0,1
 414 21 414 21 395 51 c 128,-1,2
 376 81 376 81 356 116.5 c 128,-1,3
 336 152 336 152 314.5 190.5 c 128,-1,4
 293 229 293 229 274 262 c 1,5,6
 254 233 254 233 229.5 192.5 c 128,-1,7
 205 152 205 152 182 113 c 128,-1,8
 159 74 159 74 141 42 c 128,-1,9
 123 10 123 10 115 0 c 0,10,11
 97 -24 97 -24 80 -22.5 c 128,-1,12
 63 -21 63 -21 50 -9 c 0,13,14
 40 1 40 1 36 17 c 128,-1,15
 32 33 32 33 48 59 c 0,16,17
 58 76 58 76 80.5 109.5 c 128,-1,18
 103 143 103 143 128.5 182.5 c 128,-1,19
 154 222 154 222 180 263 c 128,-1,20
 206 304 206 304 225 336 c 1,21,22
 204 368 204 368 180 403.5 c 128,-1,23
 156 439 156 439 134 472 c 128,-1,24
 112 505 112 505 93.5 533.5 c 128,-1,25
 75 562 75 562 64 578 c 0,26,27
 48 603 48 603 49 620.5 c 128,-1,28
 50 638 50 638 63 648 c 256,29,30
 76 658 76 658 97 659 c 128,-1,31
 118 660 118 660 138 635 c 0,32,33
 148 622 148 622 166.5 594 c 128,-1,34
 185 566 185 566 205.5 532.5 c 128,-1,35
 226 499 226 499 247.5 464 c 128,-1,36
 269 429 269 429 285 403 c 1,37,38
 301 432 301 432 321.5 468 c 128,-1,39
 342 504 342 504 361 537.5 c 128,-1,40
 380 571 380 571 397 598 c 128,-1,41
 414 625 414 625 423 638 c 0,42,43
 439 661 439 661 457.5 662.5 c 128,-1,44
 476 664 476 664 489 654 c 0,45,46
 500 645 500 645 504 628.5 c 128,-1,47
 508 612 508 612 495 591 c 0,48,49
 485 574 485 574 464.5 541 c 128,-1,50
 444 508 444 508 420.5 470.5 c 128,-1,51
 397 433 397 433 374 395.5 c 128,-1,52
 351 358 351 358 336 332 c 0,53,54
 335 331 335 331 334 329.5 c 128,-1,55
 333 328 333 328 332 327 c 0,56,57
 354 292 354 292 377.5 253 c 128,-1,58
 401 214 401 214 422.5 177.5 c 128,-1,59
 444 141 444 141 463 110 c 128,-1,60
 482 79 482 79 495 61 c 0,61,62
 514 36 514 36 514.5 20.5 c 128,-1,63
 515 5 515 5 506 -5 c 0,64,65
 495 -18 495 -18 474.5 -20 c 128,-1,66
 454 -22 454 -22 429 5 c 0,0,1
EndSplineSet
Validated: 33
EndChar

StartChar: Y
Encoding: 57 89 60
Width: 550
GlyphClass: 1
Flags: W
LayerCount: 2
Fore
SplineSet
513 588 m 0,0,1
 505 569 505 569 494 549.5 c 128,-1,2
 483 530 483 530 473 506 c 0,3,4
 460 475 460 475 439 438.5 c 128,-1,5
 418 402 418 402 397 356 c 0,6,7
 365 284 365 284 319.5 194.5 c 128,-1,8
 274 105 274 105 216 -11 c 0,9,10
 208 -27 208 -27 189 -34.5 c 128,-1,11
 170 -42 170 -42 152 -28 c 0,12,13
 139 -18 139 -18 133 -1.5 c 128,-1,14
 127 15 127 15 138 35 c 0,15,16
 165 89 165 89 189.5 137.5 c 128,-1,17
 214 186 214 186 236 229 c 1,18,19
 211 275 211 275 188 314 c 128,-1,20
 165 353 165 353 146 389 c 0,21,22
 117 442 117 442 88.5 488 c 128,-1,23
 60 534 60 534 42 583 c 0,24,25
 30 616 30 616 38.5 634 c 128,-1,26
 47 652 47 652 62 659 c 0,27,28
 78 667 78 667 100 661 c 128,-1,29
 122 655 122 655 133 618 c 0,30,31
 150 562 150 562 175 517 c 128,-1,32
 200 472 200 472 225 429 c 0,33,34
 241 401 241 401 255 373.5 c 128,-1,35
 269 346 269 346 280 320 c 1,36,37
 285 330 285 330 289.5 339 c 128,-1,38
 294 348 294 348 298 358 c 0,39,40
 322 411 322 411 346.5 458 c 128,-1,41
 371 505 371 505 391 554 c 0,42,43
 398 571 398 571 407.5 588 c 128,-1,44
 417 605 417 605 424 624 c 0,45,46
 437 658 437 658 456.5 665 c 128,-1,47
 476 672 476 672 492 665 c 0,48,49
 505 658 505 658 515.5 639 c 128,-1,50
 526 620 526 620 513 588 c 0,0,1
EndSplineSet
Validated: 33
EndChar

StartChar: Z
Encoding: 58 90 61
Width: 550
GlyphClass: 1
Flags: W
LayerCount: 2
Fore
SplineSet
44 49 m 0,0,1
 44 57 44 57 51 77 c 128,-1,2
 58 97 58 97 83 141 c 0,3,4
 98 167 98 167 136 226 c 128,-1,5
 174 285 174 285 219 351.5 c 128,-1,6
 264 418 264 418 308 481.5 c 128,-1,7
 352 545 352 545 379 580 c 1,8,9
 342 579 342 579 302 578.5 c 128,-1,10
 262 578 262 578 224.5 577.5 c 128,-1,11
 187 577 187 577 154 576.5 c 128,-1,12
 121 576 121 576 97 575 c 0,13,14
 75 574 75 574 66 587 c 128,-1,15
 57 600 57 600 57 615 c 0,16,17
 56 631 56 631 72.5 646.5 c 128,-1,18
 89 662 89 662 113 662 c 0,19,20
 144 662 144 662 170 656.5 c 128,-1,21
 196 651 196 651 230 651 c 0,22,23
 298 650 298 650 361 654.5 c 128,-1,24
 424 659 424 659 466 661 c 0,25,26
 482 662 482 662 493.5 647 c 128,-1,27
 505 632 505 632 506 613 c 0,28,29
 506 607 506 607 498.5 596.5 c 128,-1,30
 491 586 491 586 480.5 574.5 c 128,-1,31
 470 563 470 563 459 550.5 c 128,-1,32
 448 538 448 538 442 528 c 0,33,34
 413 481 413 481 374 425 c 128,-1,35
 335 369 335 369 294.5 310 c 128,-1,36
 254 251 254 251 214.5 190 c 128,-1,37
 175 129 175 129 145 72 c 1,38,39
 250 79 250 79 336.5 79 c 128,-1,40
 423 79 423 79 466 73 c 0,41,42
 494 68 494 68 503 58 c 128,-1,43
 512 48 512 48 513 35 c 0,44,45
 514 19 514 19 504.5 5.5 c 128,-1,46
 495 -8 495 -8 464 -8 c 0,47,48
 451 -8 451 -8 406.5 -7 c 128,-1,49
 362 -6 362 -6 305.5 -5 c 128,-1,50
 249 -4 249 -4 189 -3.5 c 128,-1,51
 129 -3 129 -3 85 -5 c 0,52,53
 66 -6 66 -6 55 14 c 128,-1,54
 44 34 44 34 44 49 c 0,0,1
EndSplineSet
Validated: 33
EndChar

StartChar: bracketleft
Encoding: 59 91 62
Width: 550
GlyphClass: 1
Flags: W
LayerCount: 2
Fore
SplineSet
173 792 m 5,0,-1
 219 793 l 5,1,-1
 254 794 l 5,2,-1
 317 795 l 5,3,-1
 337 792 l 5,4,-1
 350 783 l 5,5,-1
 357 770 l 5,6,-1
 360 757 l 5,7,-1
 358 742 l 5,8,-1
 350 725 l 5,9,-1
 336 713 l 5,10,-1
 315 712 l 5,11,-1
 272 713 l 5,12,-1
 220 712 l 5,13,-1
 220 685 l 5,14,-1
 218 645 l 5,15,-1
 217 598 l 5,16,-1
 216 549 l 5,17,-1
 214 498 l 5,18,-1
 214 445 l 5,19,-1
 213 395 l 5,20,-1
 214 350 l 5,21,-1
 215 304 l 5,22,-1
 215 256 l 5,23,-1
 215 206 l 5,24,-1
 214 156 l 5,25,-1
 214 109 l 5,26,-1
 214 64 l 5,27,-1
 213 24 l 5,28,-1
 213 -6 l 5,29,-1
 279 -6 l 5,30,-1
 339 -6 l 5,31,-1
 359 -9 l 5,32,-1
 370 -17 l 5,33,-1
 376 -28 l 5,34,-1
 379 -41 l 5,35,-1
 377 -56 l 5,36,-1
 372 -71 l 5,37,-1
 360 -81 l 5,38,-1
 339 -82 l 5,39,-1
 294 -82 l 5,40,-1
 228 -82 l 5,41,-1
 167 -83 l 5,42,-1
 145 -81 l 5,43,-1
 130 -74 l 5,44,-1
 122 -63 l 5,45,-1
 119 -49 l 5,46,-1
 119 -45 l 5,47,-1
 120 -40 l 5,48,-1
 121 -35 l 5,49,-1
 122 -31 l 5,50,-1
 122 -22 l 5,51,-1
 123 4 l 5,52,-1
 125 44 l 5,53,-1
 127 95 l 5,54,-1
 128 152 l 5,55,-1
 130 215 l 5,56,-1
 130 280 l 5,57,-1
 130 345 l 5,58,-1
 128 405 l 5,59,-1
 127 446 l 5,60,-1
 126 492 l 5,61,-1
 126 539 l 5,62,-1
 127 586 l 5,63,-1
 128 629 l 5,64,-1
 129 670 l 5,65,-1
 130 703 l 5,66,-1
 130 727 l 5,67,-1
 130 733 l 5,68,-1
 128 737 l 5,69,-1
 127 742 l 5,70,-1
 126 747 l 5,71,-1
 126 751 l 5,72,-1
 128 765 l 5,73,-1
 136 778 l 5,74,-1
 151 788 l 5,75,-1
 173 792 l 5,0,-1
EndSplineSet
Validated: 1
EndChar

StartChar: backslash
Encoding: 60 92 63
Width: 550
GlyphClass: 1
Flags: W
LayerCount: 2
Fore
SplineSet
320 166 m 0,0,1
 301 201 301 201 262.5 266 c 128,-1,2
 224 331 224 331 182 400.5 c 128,-1,3
 140 470 140 470 102.5 534 c 128,-1,4
 65 598 65 598 47 632 c 0,5,6
 35 655 35 655 40.5 673 c 128,-1,7
 46 691 46 691 62 699 c 256,8,9
 78 707 78 707 99 702 c 128,-1,10
 120 697 120 697 132 674 c 0,11,12
 150 638 150 638 184 572 c 128,-1,13
 218 506 218 506 261 431 c 0,14,15
 294 372 294 372 329.5 311 c 128,-1,16
 365 250 365 250 396.5 196.5 c 128,-1,17
 428 143 428 143 454 99.5 c 128,-1,18
 480 56 480 56 495 32 c 0,19,20
 509 10 509 10 505.5 -17.5 c 128,-1,21
 502 -45 502 -45 489 -52 c 0,22,23
 472 -62 472 -62 449 -52 c 128,-1,24
 426 -42 426 -42 411 -16 c 0,25,26
 405 -5 405 -5 394 16.5 c 128,-1,27
 383 38 383 38 370.5 64 c 128,-1,28
 358 90 358 90 345 117 c 128,-1,29
 332 144 332 144 320 166 c 0,0,1
EndSplineSet
Validated: 33
EndChar

StartChar: bracketright
Encoding: 61 93 64
Width: 550
GlyphClass: 1
Flags: W
LayerCount: 2
Fore
SplineSet
389 792 m 1,0,-1
 343 793 l 1,1,-1
 308 794 l 1,2,-1
 245 795 l 1,3,-1
 224 793 l 1,4,-1
 212 783 l 1,5,-1
 205 770 l 1,6,-1
 202 757 l 1,7,-1
 204 742 l 1,8,-1
 212 725 l 1,9,-1
 225 713 l 1,10,-1
 247 712 l 1,11,-1
 290 713 l 1,12,-1
 342 712 l 1,13,-1
 342 685 l 1,14,-1
 343 645 l 1,15,-1
 345 599 l 1,16,-1
 346 549 l 1,17,-1
 347 498 l 1,18,-1
 348 445 l 1,19,-1
 348 395 l 1,20,-1
 348 350 l 1,21,-1
 347 304 l 1,22,-1
 347 256 l 1,23,-1
 347 206 l 1,24,-1
 347 157 l 1,25,-1
 348 109 l 1,26,-1
 348 65 l 1,27,-1
 348 24 l 1,28,-1
 349 -6 l 1,29,-1
 283 -6 l 1,30,-1
 223 -6 l 1,31,-1
 203 -9 l 1,32,-1
 191 -17 l 1,33,-1
 185 -28 l 1,34,-1
 183 -41 l 1,35,-1
 184 -56 l 1,36,-1
 190 -71 l 1,37,-1
 202 -81 l 1,38,-1
 223 -82 l 1,39,-1
 268 -82 l 1,40,-1
 333 -82 l 1,41,-1
 395 -83 l 1,42,-1
 416 -80 l 1,43,-1
 431 -73 l 1,44,-1
 440 -62 l 1,45,-1
 443 -49 l 1,46,-1
 442 -45 l 1,47,-1
 442 -40 l 1,48,-1
 441 -35 l 1,49,-1
 440 -31 l 1,50,-1
 440 -22 l 1,51,-1
 438 4 l 1,52,-1
 437 45 l 1,53,-1
 435 95 l 1,54,-1
 433 153 l 1,55,-1
 432 215 l 1,56,-1
 432 281 l 1,57,-1
 432 346 l 1,58,-1
 434 405 l 1,59,-1
 434 446 l 1,60,-1
 435 492 l 1,61,-1
 435 540 l 1,62,-1
 435 586 l 1,63,-1
 434 629 l 1,64,-1
 433 670 l 1,65,-1
 432 703 l 1,66,-1
 432 727 l 1,67,-1
 432 733 l 1,68,-1
 433 737 l 1,69,-1
 435 742 l 1,70,-1
 435 747 l 1,71,-1
 436 751 l 1,72,-1
 434 766 l 1,73,-1
 425 779 l 1,74,-1
 410 788 l 1,75,-1
 389 792 l 1,0,-1
EndSplineSet
Validated: 9
EndChar

StartChar: asciicircum
Encoding: 62 94 65
Width: 550
GlyphClass: 1
Flags: W
LayerCount: 2
Fore
SplineSet
235 866 m 4,0,1
 248 884 248 884 276 883 c 132,-1,2
 304 882 304 882 314 865 c 4,3,4
 351 815 351 815 374 786 c 132,-1,5
 397 757 397 757 416 736 c 132,-1,6
 435 715 435 715 455 695 c 132,-1,7
 475 675 475 675 506 641 c 4,8,9
 518 628 518 628 518.5 615.5 c 132,-1,10
 519 603 519 603 514 593 c 132,-1,11
 509 583 509 583 499.5 575.5 c 132,-1,12
 490 568 490 568 483 565 c 4,13,14
 467 557 467 557 453 569 c 132,-1,15
 439 581 439 581 412 609 c 4,16,17
 386 636 386 636 368.5 654 c 132,-1,18
 351 672 351 672 337.5 687.5 c 132,-1,19
 324 703 324 703 310 721 c 132,-1,20
 296 739 296 739 277 766 c 5,21,22
 250 729 250 729 232.5 709 c 132,-1,23
 215 689 215 689 200 674.5 c 132,-1,24
 185 660 185 660 169 644.5 c 132,-1,25
 153 629 153 629 128 602 c 4,26,27
 104 576 104 576 91.5 564 c 132,-1,28
 79 552 79 552 63 559 c 4,29,30
 56 562 56 562 48 569.5 c 132,-1,31
 40 577 40 577 35.5 587 c 132,-1,32
 31 597 31 597 32 609.5 c 132,-1,33
 33 622 33 622 44 636 c 4,34,35
 62 660 62 660 82 682.5 c 132,-1,36
 102 705 102 705 125.5 731 c 132,-1,37
 149 757 149 757 176 790 c 132,-1,38
 203 823 203 823 235 866 c 4,0,1
EndSplineSet
Validated: 33
EndChar

StartChar: underscore
Encoding: 63 95 66
Width: 550
GlyphClass: 1
Flags: W
LayerCount: 2
Fore
SplineSet
82 -14 m 0,0,1
 145 -15 145 -15 204.5 -15 c 128,-1,2
 264 -15 264 -15 314.5 -14.5 c 128,-1,3
 365 -14 365 -14 404.5 -13.5 c 128,-1,4
 444 -13 444 -13 468 -13 c 256,5,6
 492 -13 492 -13 499.5 -24.5 c 128,-1,7
 507 -36 507 -36 508 -50 c 0,8,9
 508 -65 508 -65 500.5 -78 c 128,-1,10
 493 -91 493 -91 468 -91 c 0,11,12
 447 -91 447 -91 399.5 -91.5 c 128,-1,13
 352 -92 352 -92 295.5 -92 c 128,-1,14
 239 -92 239 -92 181.5 -92.5 c 128,-1,15
 124 -93 124 -93 83 -93 c 0,16,17
 58 -93 58 -93 50.5 -80.5 c 128,-1,18
 43 -68 43 -68 43 -53 c 0,19,20
 42 -39 42 -39 49.5 -26 c 128,-1,21
 57 -13 57 -13 82 -14 c 0,0,1
EndSplineSet
Validated: 33
EndChar

StartChar: grave
Encoding: 64 96 67
Width: 550
GlyphClass: 1
Flags: W
LayerCount: 2
Fore
SplineSet
293 581 m 0,0,1
 266 608 266 608 226.5 650 c 128,-1,2
 187 692 187 692 157 732 c 0,3,4
 144 749 144 749 146 769 c 128,-1,5
 148 789 148 789 157 799 c 0,6,7
 170 809 170 809 192 808 c 128,-1,8
 214 807 214 807 227 791 c 0,9,10
 253 755 253 755 284 711 c 128,-1,11
 315 667 315 667 348 637 c 0,12,13
 366 620 366 620 369.5 599.5 c 128,-1,14
 373 579 373 579 362 569 c 0,15,16
 352 559 352 559 332 560.5 c 128,-1,17
 312 562 312 562 293 581 c 0,0,1
EndSplineSet
Validated: 33
EndChar

StartChar: a
Encoding: 65 97 68
Width: 550
GlyphClass: 1
Flags: W
LayerCount: 2
Fore
SplineSet
488 408 m 1,0,-1
 481 350 l 1,1,-1
 476 299 l 1,2,-1
 473 252 l 1,3,-1
 473 208 l 1,4,-1
 475 164 l 1,5,-1
 480 120 l 1,6,-1
 495 68 l 1,7,-1
 509 34 l 1,8,-1
 520 10 l 1,9,-1
 518 -9 l 1,10,-1
 508 -22 l 1,11,-1
 493 -32 l 1,12,-1
 477 -36 l 1,13,-1
 460 -37 l 1,14,-1
 442 -29 l 1,15,-1
 424 -9 l 1,16,-1
 416 5 l 1,17,-1
 408 18 l 1,18,-1
 389 7 l 1,19,-1
 344 -14 l 1,20,-1
 293 -28 l 1,21,-1
 243 -29 l 1,22,-1
 204 -24 l 1,23,-1
 168 -9 l 1,24,-1
 138 12 l 1,25,-1
 112 38 l 1,26,-1
 92 68 l 1,27,-1
 76 102 l 1,28,-1
 67 135 l 1,29,-1
 64 168 l 1,30,-1
 70 252 l 1,31,-1
 86 322 l 1,32,-1
 112 377 l 1,33,-1
 146 420 l 1,34,-1
 185 451 l 1,35,-1
 230 471 l 1,36,-1
 280 482 l 1,37,-1
 330 486 l 1,38,-1
 377 481 l 1,39,-1
 416 467 l 1,40,-1
 452 443 l 1,41,-1
 488 408 l 1,0,-1
161 198 m 1,42,-1
 162 175 l 1,43,-1
 166 150 l 1,44,-1
 172 126 l 1,45,-1
 182 104 l 1,46,-1
 194 85 l 1,47,-1
 208 68 l 1,48,-1
 226 58 l 1,49,-1
 248 51 l 1,50,-1
 269 49 l 1,51,-1
 293 50 l 1,52,-1
 317 57 l 1,53,-1
 341 67 l 1,54,-1
 364 80 l 1,55,-1
 378 88 l 1,56,-1
 394 101 l 1,57,-1
 390 123 l 1,58,-1
 388 150 l 1,59,-1
 384 190 l 1,60,-1
 384 227 l 1,61,-1
 386 270 l 1,62,-1
 389 317 l 1,63,-1
 394 371 l 1,64,-1
 375 385 l 1,65,-1
 358 394 l 1,66,-1
 337 400 l 1,67,-1
 309 402 l 1,68,-1
 288 400 l 1,69,-1
 264 392 l 1,70,-1
 239 379 l 1,71,-1
 216 358 l 1,72,-1
 195 331 l 1,73,-1
 177 296 l 1,74,-1
 165 252 l 1,75,-1
 161 198 l 1,42,-1
EndSplineSet
Validated: 1
EndChar

StartChar: b
Encoding: 66 98 69
Width: 550
GlyphClass: 1
Flags: W
LayerCount: 2
Fore
SplineSet
505 258 m 0,0,1
 506 192 506 192 489 141 c 128,-1,2
 472 90 472 90 443.5 56 c 128,-1,3
 415 22 415 22 377.5 4.5 c 128,-1,4
 340 -13 340 -13 302 -13 c 0,5,6
 256 -13 256 -13 220.5 -0.5 c 128,-1,7
 185 12 185 12 160 31 c 1,8,9
 158 6 158 6 145.5 -1.5 c 128,-1,10
 133 -9 133 -9 119 -10 c 0,11,12
 103 -11 103 -11 88 -1.5 c 128,-1,13
 73 8 73 8 73 41 c 0,14,15
 73 103 73 103 72.5 192 c 128,-1,16
 72 281 72 281 72.5 371 c 128,-1,17
 73 461 73 461 74 541.5 c 128,-1,18
 75 622 75 622 76 666 c 0,19,20
 76 697 76 697 88 707 c 128,-1,21
 100 717 100 717 116 718 c 0,22,23
 134 719 134 719 150 709 c 128,-1,24
 166 699 166 699 165 666 c 0,25,26
 165 641 165 641 164.5 580.5 c 128,-1,27
 164 520 164 520 164 445 c 1,28,29
 190 463 190 463 225 475 c 128,-1,30
 260 487 260 487 309 487 c 0,31,32
 356 486 356 486 393 468.5 c 128,-1,33
 430 451 430 451 455 421 c 128,-1,34
 480 391 480 391 493 349 c 128,-1,35
 506 307 506 307 505 258 c 0,0,1
288 410 m 0,36,37
 249 411 249 411 217 395.5 c 128,-1,38
 185 380 185 380 163 361 c 1,39,40
 163 292 163 292 162.5 224.5 c 128,-1,41
 162 157 162 157 161 107 c 1,42,43
 183 85 183 85 211 76 c 128,-1,44
 239 67 239 67 276 67 c 0,45,46
 344 67 344 67 380 117.5 c 128,-1,47
 416 168 416 168 415 250 c 0,48,49
 414 281 414 281 405.5 309.5 c 128,-1,50
 397 338 397 338 381 360 c 128,-1,51
 365 382 365 382 341.5 395.5 c 128,-1,52
 318 409 318 409 288 410 c 0,36,37
EndSplineSet
Validated: 33
EndChar

StartChar: c
Encoding: 67 99 70
Width: 550
GlyphClass: 1
Flags: W
LayerCount: 2
Fore
SplineSet
449 455 m 5,0,-1
 470 435 l 5,1,-1
 478 416 l 5,2,-1
 477 398 l 5,3,-1
 471 382 l 5,4,-1
 459 367 l 5,5,-1
 443 358 l 5,6,-1
 423 356 l 5,7,-1
 400 371 l 5,8,-1
 382 388 l 5,9,-1
 365 401 l 5,10,-1
 338 410 l 5,11,-1
 309 408 l 5,12,-1
 289 406 l 5,13,-1
 266 398 l 5,14,-1
 243 386 l 5,15,-1
 220 366 l 5,16,-1
 200 339 l 5,17,-1
 182 304 l 5,18,-1
 163 264 l 5,19,-1
 156 208 l 5,20,-1
 156 186 l 5,21,-1
 157 162 l 5,22,-1
 161 137 l 5,23,-1
 176 111 l 5,24,-1
 190 90 l 5,25,-1
 210 73 l 5,26,-1
 236 60 l 5,27,-1
 270 55 l 5,28,-1
 315 53 l 5,29,-1
 353 61 l 5,30,-1
 401 86 l 5,31,-1
 422 98 l 5,32,-1
 446 106 l 5,33,-1
 463 100 l 5,34,-1
 476 89 l 5,35,-1
 485 75 l 5,36,-1
 489 59 l 5,37,-1
 483 41 l 5,38,-1
 465 22 l 5,39,-1
 450 12 l 5,40,-1
 428 0 l 5,41,-1
 400 -11 l 5,42,-1
 370 -21 l 5,43,-1
 334 -29 l 5,44,-1
 294 -31 l 5,45,-1
 259 -29 l 5,46,-1
 215 -24 l 5,47,-1
 176 -10 l 5,48,-1
 143 10 l 5,49,-1
 116 35 l 5,50,-1
 95 65 l 5,51,-1
 80 100 l 5,52,-1
 70 136 l 5,53,-1
 68 174 l 5,54,-1
 74 250 l 5,55,-1
 94 314 l 5,56,-1
 119 369 l 5,57,-1
 152 413 l 5,58,-1
 189 449 l 5,59,-1
 230 479 l 5,60,-1
 283 494 l 5,61,-1
 330 493 l 5,62,-1
 375 488 l 5,63,-1
 416 474 l 5,64,-1
 449 455 l 5,0,-1
EndSplineSet
Validated: 1
EndChar

StartChar: d
Encoding: 68 100 71
Width: 550
GlyphClass: 1
Flags: W
LayerCount: 2
Fore
SplineSet
510 31 m 0,0,1
 507 12 507 12 495 3.5 c 128,-1,2
 483 -5 483 -5 468 -8 c 0,3,4
 437 -14 437 -14 424 7 c 128,-1,5
 411 28 411 28 408 60 c 1,6,7
 389 32 389 32 357.5 9.5 c 128,-1,8
 326 -13 326 -13 269 -13 c 0,9,10
 231 -13 231 -13 192.5 4 c 128,-1,11
 154 21 154 21 124 54.5 c 128,-1,12
 94 88 94 88 76 138.5 c 128,-1,13
 58 189 58 189 59 255 c 0,14,15
 58 302 58 302 72 342.5 c 128,-1,16
 86 383 86 383 112.5 413 c 128,-1,17
 139 443 139 443 177 460 c 128,-1,18
 215 477 215 477 262 478 c 0,19,20
 308 478 308 478 344.5 466.5 c 128,-1,21
 381 455 381 455 406 438 c 1,22,23
 407 513 407 513 408.5 574 c 128,-1,24
 410 635 410 635 412 661 c 0,25,26
 415 697 415 697 430.5 708 c 128,-1,27
 446 719 446 719 462 719 c 0,28,29
 478 718 478 718 490.5 707.5 c 128,-1,30
 503 697 503 697 501 661 c 0,31,32
 500 636 500 636 497.5 580 c 128,-1,33
 495 524 495 524 493.5 459.5 c 128,-1,34
 492 395 492 395 490.5 331.5 c 128,-1,35
 489 268 489 268 489 227 c 0,36,37
 490 169 490 169 494 134.5 c 128,-1,38
 498 100 498 100 502 80.5 c 128,-1,39
 506 61 506 61 508.5 51 c 128,-1,40
 511 41 511 41 510 31 c 0,0,1
278 70 m 0,41,42
 307 70 307 70 327 78 c 128,-1,43
 347 86 347 86 361 99 c 128,-1,44
 375 112 375 112 385 128 c 128,-1,45
 395 144 395 144 403 158 c 1,46,47
 403 180 403 180 402.5 204 c 128,-1,48
 402 228 402 228 403 253 c 0,49,50
 403 269 403 269 403.5 284.5 c 128,-1,51
 404 300 404 300 404 316 c 1,52,53
 385 347 385 347 351 372 c 128,-1,54
 317 397 317 397 276 396 c 0,55,56
 216 394 216 394 183 349 c 128,-1,57
 150 304 150 304 149 247 c 0,58,59
 148 164 148 164 182 116.5 c 128,-1,60
 216 69 216 69 278 70 c 0,41,42
EndSplineSet
Validated: 33
EndChar

StartChar: e
Encoding: 69 101 72
Width: 550
GlyphClass: 1
Flags: W
LayerCount: 2
Fore
SplineSet
479 56 m 4,0,1
 453 20 453 20 407.5 -3.5 c 132,-1,2
 362 -27 362 -27 265 -26 c 4,3,4
 172 -25 172 -25 120.5 41.5 c 132,-1,5
 69 108 69 108 70 222 c 4,6,7
 71 285 71 285 90 335 c 132,-1,8
 109 385 109 385 140.5 418.5 c 132,-1,9
 172 452 172 452 216 469.5 c 132,-1,10
 260 487 260 487 310 487 c 4,11,12
 331 487 331 487 357 477.5 c 132,-1,13
 383 468 383 468 407 451.5 c 132,-1,14
 431 435 431 435 451 411.5 c 132,-1,15
 471 388 471 388 480 361 c 4,16,17
 483 348 483 348 478.5 334 c 132,-1,18
 474 320 474 320 466 307.5 c 132,-1,19
 458 295 458 295 448 284.5 c 132,-1,20
 438 274 438 274 431 269 c 4,21,22
 408 252 408 252 372 235.5 c 132,-1,23
 336 219 336 219 298 204 c 132,-1,24
 260 189 260 189 224 177 c 132,-1,25
 188 165 188 165 164 156 c 5,26,27
 171 113 171 113 194.5 82.5 c 132,-1,28
 218 52 218 52 270 50 c 4,29,30
 297 49 297 49 320.5 56.5 c 132,-1,31
 344 64 344 64 361 73.5 c 132,-1,32
 378 83 378 83 389 92.5 c 132,-1,33
 400 102 400 102 402 105 c 4,34,35
 424 134 424 134 442 136.5 c 132,-1,36
 460 139 460 139 474 129 c 260,37,38
 488 119 488 119 494 101.5 c 132,-1,39
 500 84 500 84 479 56 c 4,0,1
290 414 m 4,40,41
 271 414 271 414 249.5 405 c 132,-1,42
 228 396 228 396 209 376 c 132,-1,43
 190 356 190 356 177 324.5 c 132,-1,44
 164 293 164 293 161 249 c 5,45,46
 171 252 171 252 201 259.5 c 132,-1,47
 231 267 231 267 266 279 c 132,-1,48
 301 291 301 291 335 306 c 132,-1,49
 369 321 369 321 388 338 c 5,50,51
 366 382 366 382 342 398 c 132,-1,52
 318 414 318 414 290 414 c 4,40,41
EndSplineSet
Validated: 33
EndChar

StartChar: f
Encoding: 70 102 73
Width: 550
GlyphClass: 1
Flags: W
LayerCount: 2
Fore
SplineSet
199 26 m 1,0,-1
 201 33 l 1,1,-1
 203 48 l 1,2,-1
 205 62 l 1,3,-1
 207 76 l 1,4,-1
 209 87 l 1,5,-1
 210 99 l 1,6,-1
 210 112 l 1,7,-1
 210 124 l 1,8,-1
 210 138 l 1,9,-1
 210 156 l 1,10,-1
 209 178 l 1,11,-1
 208 206 l 1,12,-1
 206 236 l 1,13,-1
 204 269 l 1,14,-1
 202 304 l 1,15,-1
 200 341 l 1,16,-1
 198 378 l 1,17,-1
 161 374 l 1,18,-1
 147 373 l 1,19,-1
 126 372 l 1,20,-1
 105 375 l 1,21,-1
 93 383 l 1,22,-1
 87 396 l 1,23,-1
 84 411 l 1,24,-1
 85 425 l 1,25,-1
 90 439 l 1,26,-1
 101 449 l 1,27,-1
 122 453 l 1,28,-1
 200 458 l 1,29,-1
 199 469 l 1,30,-1
 199 480 l 1,31,-1
 199 501 l 1,32,-1
 204 554 l 1,33,-1
 220 599 l 1,34,-1
 246 636 l 1,35,-1
 278 666 l 1,36,-1
 317 688 l 1,37,-1
 362 703 l 1,38,-1
 394 710 l 1,39,-1
 426 709 l 1,40,-1
 444 707 l 1,41,-1
 458 700 l 1,42,-1
 468 688 l 1,43,-1
 471 672 l 1,44,-1
 468 655 l 1,45,-1
 461 640 l 1,46,-1
 450 631 l 1,47,-1
 436 628 l 1,48,-1
 385 622 l 1,49,-1
 332 593 l 1,50,-1
 298 548 l 1,51,-1
 287 492 l 1,52,-1
 287 478 l 1,53,-1
 287 469 l 1,54,-1
 288 459 l 1,55,-1
 316 462 l 1,56,-1
 354 465 l 1,57,-1
 394 466 l 1,58,-1
 427 465 l 1,59,-1
 446 459 l 1,60,-1
 456 449 l 1,61,-1
 460 437 l 1,62,-1
 461 424 l 1,63,-1
 457 410 l 1,64,-1
 449 398 l 1,65,-1
 436 390 l 1,66,-1
 415 390 l 1,67,-1
 399 390 l 1,68,-1
 359 387 l 1,69,-1
 311 384 l 1,70,-1
 287 380 l 1,71,-1
 289 319 l 1,72,-1
 292 250 l 1,73,-1
 296 180 l 1,74,-1
 298 112 l 1,75,-1
 299 95 l 1,76,-1
 299 84 l 1,77,-1
 299 75 l 1,78,-1
 300 67 l 1,79,-1
 300 59 l 1,80,-1
 299 51 l 1,81,-1
 298 40 l 1,82,-1
 296 27 l 1,83,-1
 293 14 l 1,84,-1
 290 6 l 1,85,-1
 287 0 l 1,86,-1
 284 -5 l 1,87,-1
 280 -9 l 1,88,-1
 273 -13 l 1,89,-1
 266 -16 l 1,90,-1
 256 -18 l 1,91,-1
 247 -18 l 1,92,-1
 240 -18 l 1,93,-1
 233 -17 l 1,94,-1
 225 -15 l 1,95,-1
 219 -12 l 1,96,-1
 213 -8 l 1,97,-1
 207 -2 l 1,98,-1
 202 5 l 1,99,-1
 200 11 l 1,100,-1
 198 19 l 1,101,-1
 199 26 l 1,0,-1
EndSplineSet
Validated: 1
EndChar

StartChar: g
Encoding: 71 103 74
Width: 550
GlyphClass: 1
Flags: W
LayerCount: 2
Fore
SplineSet
450 456 m 0,0,1
 463 449 463 449 464.5 433 c 128,-1,2
 466 417 466 417 461 408 c 0,3,4
 460 407 460 407 459 405 c 128,-1,5
 458 403 458 403 457 402 c 1,6,7
 469 399 469 399 474.5 389.5 c 128,-1,8
 480 380 480 380 480 366 c 0,9,10
 480 332 480 332 481 281.5 c 128,-1,11
 482 231 482 231 482 175.5 c 128,-1,12
 482 120 482 120 480 63.5 c 128,-1,13
 478 7 478 7 474 -39 c 0,14,15
 468 -98 468 -98 444 -142.5 c 128,-1,16
 420 -187 420 -187 385 -215.5 c 128,-1,17
 350 -244 350 -244 306 -258.5 c 128,-1,18
 262 -273 262 -273 216 -273 c 0,19,20
 183 -273 183 -273 153.5 -263.5 c 128,-1,21
 124 -254 124 -254 110 -247 c 0,22,23
 94 -238 94 -238 85 -231.5 c 128,-1,24
 76 -225 76 -225 76 -206 c 256,25,26
 76 -187 76 -187 88.5 -175 c 128,-1,27
 101 -163 101 -163 116 -166 c 0,28,29
 129 -168 129 -168 150 -181.5 c 128,-1,30
 171 -195 171 -195 198 -195 c 0,31,32
 270 -195 270 -195 326.5 -150 c 128,-1,33
 383 -105 383 -105 393 -34 c 0,34,35
 395 -21 395 -21 396 -4 c 128,-1,36
 397 13 397 13 398 35 c 1,37,38
 378 7 378 7 342.5 -11 c 128,-1,39
 307 -29 307 -29 248 -29 c 0,40,41
 155 -28 155 -28 114 34 c 128,-1,42
 73 96 73 96 73 210 c 0,43,44
 74 282 74 282 96.5 333 c 128,-1,45
 119 384 119 384 155 415.5 c 128,-1,46
 191 447 191 447 238.5 461.5 c 128,-1,47
 286 476 286 476 336 476 c 0,48,49
 387 476 387 476 408.5 471.5 c 128,-1,50
 430 467 430 467 450 456 c 0,0,1
402 361 m 0,51,52
 402 367 402 367 403.5 372.5 c 128,-1,53
 405 378 405 378 408 383 c 1,54,-1
 402 384 l 2,55,56
 384 389 384 389 358.5 393.5 c 128,-1,57
 333 398 333 398 311 397 c 0,58,59
 288 396 288 396 263 387 c 128,-1,60
 238 378 238 378 216.5 359.5 c 128,-1,61
 195 341 195 341 180 311.5 c 128,-1,62
 165 282 165 282 162 240 c 0,63,64
 160 204 160 204 163 169.5 c 128,-1,65
 166 135 166 135 176.5 109 c 128,-1,66
 187 83 187 83 207 67.5 c 128,-1,67
 227 52 227 52 259 53 c 0,68,69
 294 54 294 54 319.5 66.5 c 128,-1,70
 345 79 345 79 362 97 c 128,-1,71
 379 115 379 115 388 136.5 c 128,-1,72
 397 158 397 158 400 178 c 0,73,74
 401 216 401 216 401 262 c 128,-1,75
 401 308 401 308 402 361 c 0,51,52
EndSplineSet
Validated: 33
EndChar

StartChar: h
Encoding: 72 104 75
Width: 550
GlyphClass: 1
Flags: W
LayerCount: 2
Fore
SplineSet
176 212 m 1,0,-1
 176 213 l 1,1,2
 176 205 176 205 175.5 195.5 c 128,-1,3
 175 186 175 186 175 176 c 0,4,5
 174 127 174 127 174 92 c 128,-1,6
 174 57 174 57 170 23 c 0,7,8
 168 2 168 2 151 -9.5 c 128,-1,9
 134 -21 134 -21 115 -20 c 0,10,11
 98 -20 98 -20 85 -8 c 128,-1,12
 72 4 72 4 74 28 c 0,13,14
 75 38 75 38 77 73.5 c 128,-1,15
 79 109 79 109 80.5 151.5 c 128,-1,16
 82 194 82 194 83.5 234.5 c 128,-1,17
 85 275 85 275 84 296 c 0,18,19
 82 339 82 339 81 390 c 128,-1,20
 80 441 80 441 80 491.5 c 128,-1,21
 80 542 80 542 80.5 588 c 128,-1,22
 81 634 81 634 82 667 c 0,23,24
 83 694 83 694 97 706 c 128,-1,25
 111 718 111 718 128 718 c 0,26,27
 147 719 147 719 161.5 708 c 128,-1,28
 176 697 176 697 176 670 c 0,29,30
 176 661 176 661 176 627.5 c 128,-1,31
 176 594 176 594 176.5 550.5 c 128,-1,32
 177 507 177 507 177.5 461 c 128,-1,33
 178 415 178 415 178 380 c 1,34,35
 197 414 197 414 241 444.5 c 128,-1,36
 285 475 285 475 363 475 c 0,37,38
 395 475 395 475 416.5 460.5 c 128,-1,39
 438 446 438 446 451 421.5 c 128,-1,40
 464 397 464 397 469.5 364.5 c 128,-1,41
 475 332 475 332 475 297 c 0,42,43
 474 221 474 221 479 157 c 128,-1,44
 484 93 484 93 484 38 c 0,45,46
 484 7 484 7 468.5 -7.5 c 128,-1,47
 453 -22 453 -22 435 -21 c 0,48,49
 419 -20 419 -20 403 -6.5 c 128,-1,50
 387 7 387 7 387 30 c 0,51,52
 387 81 387 81 389 136.5 c 128,-1,53
 391 192 391 192 390 255 c 256,54,55
 389 318 389 318 374.5 352.5 c 128,-1,56
 360 387 360 387 332 387 c 0,57,58
 281 386 281 386 250 361 c 128,-1,59
 219 336 219 336 202.5 305 c 128,-1,60
 186 274 186 274 181 246 c 128,-1,61
 176 218 176 218 176 212 c 1,0,-1
EndSplineSet
Validated: 33
EndChar

StartChar: i
Encoding: 73 105 76
Width: 550
GlyphClass: 1
Flags: W
LayerCount: 2
Fore
SplineSet
251 568 m 4,0,1
 227 565 227 565 213 582 c 132,-1,2
 199 599 199 599 199 620 c 260,3,4
 199 641 199 641 215 656 c 132,-1,5
 231 671 231 671 251 671 c 4,6,7
 273 672 273 672 286.5 657 c 132,-1,8
 300 642 300 642 300 621 c 260,9,10
 300 600 300 600 286.5 585 c 132,-1,11
 273 570 273 570 251 568 c 4,0,1
188 256 m 5,12,-1
 190 314 l 5,13,-1
 192 373 l 5,14,-1
 193 389 l 5,15,-1
 193 405 l 5,16,-1
 194 415 l 5,17,-1
 196 423 l 5,18,-1
 200 430 l 5,19,-1
 206 438 l 5,20,-1
 214 445 l 5,21,-1
 223 451 l 5,22,-1
 234 454 l 5,23,-1
 248 452 l 5,24,-1
 259 447 l 5,25,-1
 268 440 l 5,26,-1
 275 431 l 5,27,-1
 279 422 l 5,28,-1
 282 413 l 5,29,-1
 283 405 l 5,30,-1
 284 400 l 5,31,-1
 278 311 l 5,32,-1
 275 255 l 5,33,-1
 275 218 l 5,34,-1
 280 178 l 5,35,-1
 299 134 l 5,36,-1
 319 101 l 5,37,-1
 344 78 l 5,38,-1
 373 70 l 5,39,-1
 394 65 l 5,40,-1
 402 64 l 5,41,-1
 415 63 l 5,42,-1
 428 56 l 5,43,-1
 435 46 l 5,44,-1
 439 33 l 5,45,-1
 438 20 l 5,46,-1
 434 7 l 5,47,-1
 424 -4 l 5,48,-1
 406 -10 l 5,49,-1
 375 -11 l 5,50,-1
 331 -4 l 5,51,-1
 274 20 l 5,52,-1
 235 62 l 5,53,-1
 205 129 l 5,54,-1
 188 186 l 5,55,-1
 188 256 l 5,12,-1
EndSplineSet
Validated: 33
EndChar

StartChar: j
Encoding: 74 106 77
Width: 550
GlyphClass: 1
Flags: W
LayerCount: 2
Fore
SplineSet
358 559 m 0,0,1
 331 559 331 559 317.5 576.5 c 128,-1,2
 304 594 304 594 304 614 c 256,3,4
 304 634 304 634 320.5 645.5 c 128,-1,5
 337 657 337 657 358 658 c 0,6,7
 382 659 382 659 396.5 644.5 c 128,-1,8
 411 630 411 630 411 610 c 256,9,10
 411 590 411 590 396.5 574.5 c 128,-1,11
 382 559 382 559 358 559 c 0,0,1
333 -13 m 1,12,-1
 332 35 l 1,13,-1
 327 116 l 1,14,-1
 324 229 l 1,15,-1
 321 370 l 1,16,-1
 322 412 l 1,17,-1
 326 423 l 1,18,-1
 330 433 l 1,19,-1
 338 444 l 1,20,-1
 345 452 l 1,21,-1
 356 456 l 1,22,-1
 374 457 l 1,23,-1
 388 455 l 1,24,-1
 398 450 l 1,25,-1
 407 443 l 1,26,-1
 414 434 l 1,27,-1
 418 425 l 1,28,-1
 420 416 l 1,29,-1
 422 408 l 1,30,-1
 422 403 l 1,31,-1
 419 381 l 1,32,-1
 416 364 l 1,33,-1
 415 348 l 1,34,-1
 414 328 l 1,35,-1
 414 301 l 1,36,-1
 415 264 l 1,37,-1
 416 222 l 1,38,-1
 417 176 l 1,39,-1
 418 127 l 1,40,-1
 419 75 l 1,41,-1
 424 20 l 1,42,-1
 426 -35 l 1,43,-1
 430 -88 l 1,44,-1
 428 -137 l 1,45,-1
 414 -173 l 1,46,-1
 396 -201 l 1,47,-1
 364 -233 l 1,48,-1
 330 -253 l 1,49,-1
 294 -265 l 1,50,-1
 264 -263 l 1,51,-1
 230 -256 l 1,52,-1
 204 -247 l 1,53,-1
 174 -228 l 1,54,-1
 146 -202 l 1,55,-1
 118 -166 l 1,56,-1
 100 -139 l 1,57,-1
 90 -114 l 1,58,-1
 85 -98 l 1,59,-1
 87 -84 l 1,60,-1
 97 -70 l 1,61,-1
 112 -61 l 1,62,-1
 130 -57 l 1,63,-1
 148 -55 l 1,64,-1
 168 -66 l 1,65,-1
 188 -89 l 1,66,-1
 202 -111 l 1,67,-1
 222 -139 l 1,68,-1
 238 -161 l 1,69,-1
 250 -170 l 1,70,-1
 266 -177 l 1,71,-1
 280 -179 l 1,72,-1
 296 -176 l 1,73,-1
 312 -160 l 1,74,-1
 328 -135 l 1,75,-1
 336 -100 l 1,76,-1
 334 -62 l 1,77,-1
 333 -13 l 1,12,-1
EndSplineSet
Validated: 33
EndChar

StartChar: k
Encoding: 75 107 78
Width: 550
GlyphClass: 1
Flags: W
LayerCount: 2
Fore
SplineSet
419 4 m 0,0,1
 411 15 411 15 388 43 c 128,-1,2
 365 71 365 71 338 105.5 c 128,-1,3
 311 140 311 140 285.5 177 c 128,-1,4
 260 214 260 214 248 243 c 1,5,6
 226 224 226 224 206.5 206.5 c 128,-1,7
 187 189 187 189 172 176 c 0,8,9
 171 175 171 175 171 175 c 129,-1,10
 171 175 171 175 170 175 c 0,11,12
 169 126 169 126 172.5 90.5 c 128,-1,13
 176 55 176 55 175 30 c 0,14,15
 174 -1 174 -1 158 -11.5 c 128,-1,16
 142 -22 142 -22 122 -21 c 0,17,18
 107 -20 107 -20 91.5 -9.5 c 128,-1,19
 76 1 76 1 78 28 c 0,20,21
 82 74 82 74 83 161 c 128,-1,22
 84 248 84 248 84 344 c 128,-1,23
 84 440 84 440 83.5 530 c 128,-1,24
 83 620 83 620 83 671 c 0,25,26
 83 696 83 696 98.5 707 c 128,-1,27
 114 718 114 718 133 718 c 0,28,29
 150 718 150 718 164 707.5 c 128,-1,30
 178 697 178 697 178 672 c 0,31,32
 178 643 178 643 177.5 598 c 128,-1,33
 177 553 177 553 176 501.5 c 128,-1,34
 175 450 175 450 174 395 c 128,-1,35
 173 340 173 340 172 291 c 1,36,37
 207 322 207 322 242 352.5 c 128,-1,38
 277 383 277 383 307 408 c 128,-1,39
 337 433 337 433 359.5 451.5 c 128,-1,40
 382 470 382 470 391 479 c 0,41,42
 411 498 411 498 427.5 497.5 c 128,-1,43
 444 497 444 497 454 487 c 0,44,45
 464 476 464 476 464 460 c 128,-1,46
 464 444 464 444 446 422 c 0,47,48
 436 411 436 411 397 375.5 c 128,-1,49
 358 340 358 340 311 299 c 1,50,51
 328 269 328 269 360 226.5 c 128,-1,52
 392 184 392 184 423 144 c 128,-1,53
 454 104 454 104 478 73 c 128,-1,54
 502 42 502 42 502 35 c 0,55,56
 503 18 503 18 497 6.5 c 128,-1,57
 491 -5 491 -5 481 -12 c 0,58,59
 467 -22 467 -22 450.5 -20 c 128,-1,60
 434 -18 434 -18 419 4 c 0,0,1
EndSplineSet
Validated: 33
EndChar

StartChar: l
Encoding: 76 108 79
Width: 550
GlyphClass: 1
Flags: W
LayerCount: 2
Fore
SplineSet
200 118 m 5,0,-1
 191 148 l 5,1,-1
 186 176 l 5,2,-1
 186 208 l 5,3,-1
 187 267 l 5,4,-1
 189 326 l 5,5,-1
 191 385 l 5,6,-1
 192 400 l 5,7,-1
 193 523 l 5,8,-1
 194 610 l 5,9,-1
 195 663 l 5,10,-1
 196 673 l 5,11,-1
 198 681 l 5,12,-1
 203 689 l 5,13,-1
 209 697 l 5,14,-1
 217 703 l 5,15,-1
 226 709 l 5,16,-1
 238 712 l 5,17,-1
 252 710 l 5,18,-1
 264 705 l 5,19,-1
 273 698 l 5,20,-1
 280 689 l 5,21,-1
 285 680 l 5,22,-1
 288 671 l 5,23,-1
 289 663 l 5,24,-1
 289 658 l 5,25,-1
 287 575 l 5,26,-1
 286 517 l 5,27,-1
 284 451 l 5,28,-1
 281 323 l 5,29,-1
 280 242 l 5,30,-1
 279 203 l 5,31,-1
 280 174 l 5,32,-1
 282 156 l 5,33,-1
 288 139 l 5,34,-1
 298 121 l 5,35,-1
 314 101 l 5,36,-1
 328 87 l 5,37,-1
 343 77 l 5,38,-1
 358 71 l 5,39,-1
 377 67 l 5,40,-1
 394 64 l 5,41,-1
 411 62 l 5,42,-1
 424 59 l 5,43,-1
 436 46 l 5,44,-1
 438 29 l 5,45,-1
 436 16 l 5,46,-1
 432 3 l 5,47,-1
 421 -8 l 5,48,-1
 402 -13 l 5,49,-1
 382 -13 l 5,50,-1
 346 -11 l 5,51,-1
 314 -2 l 5,52,-1
 282 16 l 5,53,-1
 255 36 l 5,54,-1
 231 65 l 5,55,-1
 213 87 l 5,56,-1
 200 118 l 5,0,-1
EndSplineSet
Validated: 1
EndChar

StartChar: m
Encoding: 77 109 80
Width: 550
GlyphClass: 1
Flags: W
LayerCount: 2
Fore
SplineSet
134 28 m 1,0,-1
 130 2 l 1,1,-1
 120 -13 l 1,2,-1
 105 -20 l 1,3,-1
 89 -22 l 1,4,-1
 75 -19 l 1,5,-1
 62 -12 l 1,6,-1
 52 2 l 1,7,-1
 49 28 l 1,8,-1
 48 46 l 1,9,-1
 47 72 l 1,10,-1
 45 104 l 1,11,-1
 44 138 l 1,12,-1
 42 217 l 1,13,-1
 42 294 l 1,14,-1
 43 366 l 1,15,-1
 44 430 l 1,16,-1
 49 459 l 1,17,-1
 62 478 l 1,18,-1
 79 488 l 1,19,-1
 96 491 l 1,20,-1
 111 488 l 1,21,-1
 124 478 l 1,22,-1
 133 460 l 1,23,-1
 133 431 l 1,24,-1
 132 419 l 1,25,-1
 130 408 l 1,26,-1
 127 396 l 1,27,-1
 126 384 l 1,28,-1
 146 418 l 1,29,-1
 173 448 l 1,30,-1
 206 474 l 1,31,-1
 241 468 l 1,32,-1
 261 456 l 1,33,-1
 272 444 l 1,34,-1
 283 422 l 1,35,-1
 289 406 l 1,36,-1
 306 430 l 1,37,-1
 324 446 l 1,38,-1
 354 464 l 1,39,-1
 398 469 l 1,40,-1
 427 458 l 1,41,-1
 447 436 l 1,42,-1
 461 414 l 1,43,-1
 467 386 l 1,44,-1
 475 328 l 1,45,-1
 482 260 l 1,46,-1
 490 188 l 1,47,-1
 498 111 l 1,48,-1
 503 29 l 1,49,-1
 503 -8 l 1,50,-1
 494 -26 l 1,51,-1
 482 -34 l 1,52,-1
 468 -36 l 1,53,-1
 452 -34 l 1,54,-1
 436 -26 l 1,55,-1
 423 -9 l 1,56,-1
 417 24 l 1,57,-1
 412 77 l 1,58,-1
 409 135 l 1,59,-1
 405 192 l 1,60,-1
 399 250 l 1,61,-1
 395 300 l 1,62,-1
 388 342 l 1,63,-1
 379 370 l 1,64,-1
 372 378 l 1,65,-1
 365 378 l 1,66,-1
 356 372 l 1,67,-1
 331 349 l 1,68,-1
 310 328 l 1,69,-1
 299 314 l 1,70,-1
 299 246 l 1,71,-1
 305 155 l 1,72,-1
 309 87 l 1,73,-1
 313 1 l 1,74,-1
 312 -28 l 1,75,-1
 304 -44 l 1,76,-1
 290 -50 l 1,77,-1
 274 -52 l 1,78,-1
 260 -50 l 1,79,-1
 247 -42 l 1,80,-1
 237 -27 l 1,81,-1
 232 1 l 1,82,-1
 230 78 l 1,83,-1
 228 128 l 1,84,-1
 225 182 l 1,85,-1
 223 244 l 1,86,-1
 222 308 l 1,87,-1
 221 350 l 1,88,-1
 220 366 l 1,89,-1
 213 372 l 1,90,-1
 203 369 l 1,91,-1
 190 355 l 1,92,-1
 167 327 l 1,93,-1
 147 297 l 1,94,-1
 133 264 l 1,95,-1
 132 252 l 1,96,-1
 128 234 l 1,97,-1
 129 204 l 1,98,-1
 130 175 l 1,99,-1
 130 132 l 1,100,-1
 132 90 l 1,101,-1
 134 55 l 1,102,-1
 134 28 l 1,0,-1
EndSplineSet
Validated: 1
EndChar

StartChar: n
Encoding: 78 110 81
Width: 600
GlyphClass: 1
Flags: W
LayerCount: 2
Fore
SplineSet
200 427 m 4,0,1
 199 420 199 420 198.5 412 c 132,-1,2
 198 404 198 404 197 396 c 5,3,4
 216 426 216 426 256 451.5 c 132,-1,5
 296 477 296 477 357 477 c 4,6,7
 423 477 423 477 455.5 428 c 132,-1,8
 488 379 488 379 490 297 c 4,9,10
 492 221 492 221 503.5 155 c 132,-1,11
 515 89 515 89 518 35 c 4,12,13
 519 4 519 4 506.5 -8.5 c 132,-1,14
 494 -21 494 -21 478 -21 c 4,15,16
 460 -22 460 -22 443.5 -9.5 c 132,-1,17
 427 3 427 3 425 35 c 4,18,19
 421 78 421 78 414 134.5 c 132,-1,20
 407 191 407 191 404 255 c 4,21,22
 400 332 400 332 389 361 c 132,-1,23
 378 390 378 390 344 390 c 4,24,25
 313 390 313 390 288 378.5 c 132,-1,26
 263 367 263 367 243.5 350 c 132,-1,27
 224 333 224 333 209.5 312.5 c 132,-1,28
 195 292 195 292 186 274 c 5,29,30
 185 250 185 250 184 225 c 132,-1,31
 183 200 183 200 184 175 c 4,32,33
 184 131 184 131 189.5 92 c 132,-1,34
 195 53 195 53 195 28 c 4,35,36
 195 -2 195 -2 179 -12 c 132,-1,37
 163 -22 163 -22 144 -21 c 4,38,39
 129 -20 129 -20 116.5 -9.5 c 132,-1,40
 104 1 104 1 103 28 c 4,41,42
 102 44 102 44 98 73.5 c 132,-1,43
 94 103 94 103 93 138 c 4,44,45
 90 216 90 216 97 291 c 132,-1,46
 104 366 104 366 105 426 c 4,47,48
 106 457 106 457 123.5 469.5 c 132,-1,49
 141 482 141 482 159 481 c 4,50,51
 176 481 176 481 189.5 469.5 c 132,-1,52
 203 458 203 458 200 427 c 4,0,1
EndSplineSet
Validated: 33
EndChar

StartChar: o
Encoding: 79 111 82
Width: 550
GlyphClass: 1
Flags: W
LayerCount: 2
Fore
SplineSet
255 -25 m 0,0,1
 208 -24 208 -24 171 -3 c 128,-1,2
 134 18 134 18 108.5 52.5 c 128,-1,3
 83 87 83 87 69.5 131.5 c 128,-1,4
 56 176 56 176 57 224 c 0,5,6
 57 280 57 280 71.5 328.5 c 128,-1,7
 86 377 86 377 114.5 412.5 c 128,-1,8
 143 448 143 448 185.5 468.5 c 128,-1,9
 228 489 228 489 283 489 c 0,10,11
 324 489 324 489 362.5 474 c 128,-1,12
 401 459 401 459 430 425.5 c 128,-1,13
 459 392 459 392 474.5 338.5 c 128,-1,14
 490 285 490 285 486 209 c 0,15,16
 479 99 479 99 426 36.5 c 128,-1,17
 373 -26 373 -26 255 -25 c 0,0,1
275 54 m 0,18,19
 333 51 333 51 361 101 c 128,-1,20
 389 151 389 151 392 225 c 0,21,22
 396 328 396 328 361.5 372 c 128,-1,23
 327 416 327 416 270 416 c 0,24,25
 214 416 214 416 185.5 364 c 128,-1,26
 157 312 157 312 153 226 c 0,27,28
 151 154 151 154 174.5 106 c 128,-1,29
 198 58 198 58 275 54 c 0,18,19
EndSplineSet
Validated: 33
EndChar

StartChar: p
Encoding: 80 112 83
Width: 550
GlyphClass: 1
Flags: W
LayerCount: 2
Fore
SplineSet
82 484 m 0,0,1
 89 499 89 499 104.5 506.5 c 128,-1,2
 120 514 120 514 134 512 c 0,3,4
 149 511 149 511 160 498.5 c 128,-1,5
 171 486 171 486 167 473 c 0,6,7
 166 467 166 467 164 458.5 c 128,-1,8
 162 450 162 450 161 430 c 1,9,10
 195 453 195 453 228 464.5 c 128,-1,11
 261 476 261 476 295 476 c 0,12,13
 338 476 338 476 373 464 c 128,-1,14
 408 452 408 452 433 421.5 c 128,-1,15
 458 391 458 391 472 338 c 128,-1,16
 486 285 486 285 487 204 c 0,17,18
 488 166 488 166 475.5 125 c 128,-1,19
 463 84 463 84 438.5 50 c 128,-1,20
 414 16 414 16 378 -6 c 128,-1,21
 342 -28 342 -28 295 -29 c 0,22,23
 250 -30 250 -30 219 -27.5 c 128,-1,24
 188 -25 188 -25 167 -18 c 1,25,26
 168 -87 168 -87 169 -144.5 c 128,-1,27
 170 -202 170 -202 170 -230 c 0,28,29
 171 -255 171 -255 157.5 -266.5 c 128,-1,30
 144 -278 144 -278 128 -278 c 0,31,32
 112 -277 112 -277 97 -267.5 c 128,-1,33
 82 -258 82 -258 81 -229 c 0,34,35
 79 -183 79 -183 77 -101 c 128,-1,36
 75 -19 75 -19 74 71.5 c 128,-1,37
 73 162 73 162 73 248 c 128,-1,38
 73 334 73 334 73 386 c 0,39,40
 73 432 73 432 75.5 454.5 c 128,-1,41
 78 477 78 477 82 484 c 0,0,1
160 331 m 2,42,43
 161 288 161 288 162.5 212 c 128,-1,44
 164 136 164 136 165 55 c 1,45,46
 186 47 186 47 216.5 47.5 c 128,-1,47
 247 48 247 48 284 49 c 0,48,49
 314 50 314 50 335 67 c 128,-1,50
 356 84 356 84 368.5 110.5 c 128,-1,51
 381 137 381 137 386 169.5 c 128,-1,52
 391 202 391 202 390 234 c 0,53,54
 388 284 388 284 379.5 316 c 128,-1,55
 371 348 371 348 357.5 366 c 128,-1,56
 344 384 344 384 327 390.5 c 128,-1,57
 310 397 310 397 291 397 c 0,58,59
 258 397 258 397 221.5 380.5 c 128,-1,60
 185 364 185 364 160 342 c 1,61,-1
 160 331 l 2,42,43
EndSplineSet
Validated: 33
EndChar

StartChar: q
Encoding: 81 113 84
Width: 550
GlyphClass: 1
Flags: W
LayerCount: 2
Fore
SplineSet
415 462 m 1,0,-1
 431 474 l 1,1,-1
 447 479 l 1,2,-1
 461 479 l 1,3,-1
 471 475 l 1,4,-1
 475 471 l 1,5,-1
 479 466 l 1,6,-1
 483 462 l 1,7,-1
 486 456 l 1,8,-1
 477 290 l 1,9,-1
 472 211 l 1,10,-1
 467 128 l 1,11,-1
 461 47 l 1,12,-1
 455 -32 l 1,13,-1
 448 -106 l 1,14,-1
 441 -172 l 1,15,-1
 433 -224 l 1,16,-1
 426 -248 l 1,17,-1
 412 -264 l 1,18,-1
 395 -274 l 1,19,-1
 379 -277 l 1,20,-1
 364 -274 l 1,21,-1
 351 -264 l 1,22,-1
 343 -248 l 1,23,-1
 342 -224 l 1,24,-1
 347 -189 l 1,25,-1
 352 -140 l 1,26,-1
 359 -79 l 1,27,-1
 365 -12 l 1,28,-1
 342 -20 l 1,29,-1
 314 -26 l 1,30,-1
 282 -29 l 1,31,-1
 244 -29 l 1,32,-1
 200 -23 l 1,33,-1
 162 -7 l 1,34,-1
 131 17 l 1,35,-1
 105 46 l 1,36,-1
 86 81 l 1,37,-1
 73 118 l 1,38,-1
 66 156 l 1,39,-1
 66 194 l 1,40,-1
 77 270 l 1,41,-1
 98 332 l 1,42,-1
 126 382 l 1,43,-1
 161 422 l 1,44,-1
 202 451 l 1,45,-1
 248 471 l 1,46,-1
 297 482 l 1,47,-1
 346 486 l 1,48,-1
 391 478 l 1,49,-1
 415 462 l 1,0,-1
260 49 m 1,50,-1
 293 50 l 1,51,-1
 323 53 l 1,52,-1
 350 60 l 1,53,-1
 373 69 l 1,54,-1
 380 149 l 1,55,-1
 387 232 l 1,56,-1
 394 312 l 1,57,-1
 401 398 l 1,58,-1
 382 399 l 1,59,-1
 365 400 l 1,60,-1
 345 401 l 1,61,-1
 320 402 l 1,62,-1
 300 400 l 1,63,-1
 276 394 l 1,64,-1
 252 382 l 1,65,-1
 229 364 l 1,66,-1
 207 340 l 1,67,-1
 188 310 l 1,68,-1
 173 271 l 1,69,-1
 164 224 l 1,70,-1
 163 194 l 1,71,-1
 165 164 l 1,72,-1
 170 134 l 1,73,-1
 179 108 l 1,74,-1
 192 85 l 1,75,-1
 210 66 l 1,76,-1
 232 54 l 1,77,-1
 260 49 l 1,50,-1
EndSplineSet
Validated: 1
EndChar

StartChar: r
Encoding: 82 114 85
Width: 550
GlyphClass: 1
Flags: W
LayerCount: 2
Fore
SplineSet
194 428 m 0,0,1
 193 414 193 414 191 399.5 c 128,-1,2
 189 385 189 385 188 371 c 1,3,4
 198 388 198 388 220.5 406.5 c 128,-1,5
 243 425 243 425 275 440.5 c 128,-1,6
 307 456 307 456 350 465 c 128,-1,7
 393 474 393 474 443 473 c 0,8,9
 454 470 454 470 461.5 452.5 c 128,-1,10
 469 435 469 435 472.5 412 c 128,-1,11
 476 389 476 389 476.5 365.5 c 128,-1,12
 477 342 477 342 473 327 c 0,13,14
 469 308 469 308 458 300 c 128,-1,15
 447 292 447 292 434 288 c 0,16,17
 418 284 418 284 403.5 295.5 c 128,-1,18
 389 307 389 307 387 323 c 0,19,20
 383 345 383 345 384 362.5 c 128,-1,21
 385 380 385 380 373 393 c 1,22,23
 333 393 333 393 299 375 c 128,-1,24
 265 357 265 357 239.5 333.5 c 128,-1,25
 214 310 214 310 198 286 c 128,-1,26
 182 262 182 262 178 249 c 0,27,28
 177 231 177 231 176.5 212.5 c 128,-1,29
 176 194 176 194 177 175 c 0,30,31
 177 131 177 131 182 90 c 128,-1,32
 187 49 187 49 188 21 c 256,33,34
 189 -7 189 -7 173.5 -15 c 128,-1,35
 158 -23 158 -23 141 -22 c 0,36,37
 125 -21 125 -21 112.5 -12.5 c 128,-1,38
 100 -4 100 -4 98 21 c 0,39,40
 97 39 97 39 92 71 c 128,-1,41
 87 103 87 103 86 138 c 0,42,43
 83 216 83 216 90.5 291.5 c 128,-1,44
 98 367 98 367 99 427 c 0,45,46
 100 458 100 458 116.5 469.5 c 128,-1,47
 133 481 133 481 152 481 c 0,48,49
 169 481 169 481 182 470 c 128,-1,50
 195 459 195 459 194 428 c 0,0,1
EndSplineSet
Validated: 33
EndChar

StartChar: s
Encoding: 83 115 86
Width: 550
GlyphClass: 1
Flags: W
LayerCount: 2
Fore
SplineSet
92 5 m 1,0,-1
 75 24 l 1,1,-1
 67 42 l 1,2,-1
 66 59 l 1,3,-1
 72 74 l 1,4,-1
 86 88 l 1,5,-1
 103 95 l 1,6,-1
 126 95 l 1,7,-1
 149 84 l 1,8,-1
 169 72 l 1,9,-1
 190 62 l 1,10,-1
 209 52 l 1,11,-1
 242 49 l 1,12,-1
 263 51 l 1,13,-1
 288 56 l 1,14,-1
 314 65 l 1,15,-1
 338 77 l 1,16,-1
 361 91 l 1,17,-1
 380 107 l 1,18,-1
 394 124 l 1,19,-1
 400 142 l 1,20,-1
 396 157 l 1,21,-1
 382 170 l 1,22,-1
 359 180 l 1,23,-1
 331 188 l 1,24,-1
 298 197 l 1,25,-1
 261 206 l 1,26,-1
 222 215 l 1,27,-1
 185 226 l 1,28,-1
 140 245 l 1,29,-1
 112 264 l 1,30,-1
 98 290 l 1,31,-1
 93 325 l 1,32,-1
 113 390 l 1,33,-1
 174 441 l 1,34,-1
 278 474 l 1,35,-1
 424 485 l 1,36,-1
 432 481 l 1,37,-1
 440 470 l 1,38,-1
 446 453 l 1,39,-1
 452 434 l 1,40,-1
 456 414 l 1,41,-1
 460 396 l 1,42,-1
 462 380 l 1,43,-1
 463 372 l 1,44,-1
 463 356 l 1,45,-1
 460 340 l 1,46,-1
 453 326 l 1,47,-1
 438 317 l 1,48,-1
 419 314 l 1,49,-1
 402 320 l 1,50,-1
 390 331 l 1,51,-1
 383 342 l 1,52,-1
 378 354 l 1,53,-1
 374 366 l 1,54,-1
 368 381 l 1,55,-1
 362 403 l 1,56,-1
 335 402 l 1,57,-1
 306 398 l 1,58,-1
 275 393 l 1,59,-1
 247 384 l 1,60,-1
 222 374 l 1,61,-1
 202 360 l 1,62,-1
 190 344 l 1,63,-1
 187 325 l 1,64,-1
 190 317 l 1,65,-1
 198 310 l 1,66,-1
 210 304 l 1,67,-1
 224 299 l 1,68,-1
 239 294 l 1,69,-1
 256 290 l 1,70,-1
 271 287 l 1,71,-1
 285 284 l 1,72,-1
 328 274 l 1,73,-1
 368 264 l 1,74,-1
 405 251 l 1,75,-1
 437 236 l 1,76,-1
 463 217 l 1,77,-1
 482 196 l 1,78,-1
 492 170 l 1,79,-1
 493 141 l 1,80,-1
 484 102 l 1,81,-1
 465 68 l 1,82,-1
 439 38 l 1,83,-1
 407 13 l 1,84,-1
 369 -6 l 1,85,-1
 326 -21 l 1,86,-1
 279 -30 l 1,87,-1
 230 -33 l 1,88,-1
 180 -27 l 1,89,-1
 132 -10 l 1,90,-1
 92 5 l 1,0,-1
EndSplineSet
Validated: 1
EndChar

StartChar: t
Encoding: 84 116 87
Width: 550
GlyphClass: 1
Flags: W
LayerCount: 2
Fore
SplineSet
207 18 m 1,0,-1
 208 32 l 1,1,-1
 209 70 l 1,2,-1
 210 139 l 1,3,-1
 209 209 l 1,4,-1
 205 269 l 1,5,-1
 203 325 l 1,6,-1
 204 377 l 1,7,-1
 150 380 l 1,8,-1
 97 385 l 1,9,-1
 76 389 l 1,10,-1
 65 400 l 1,11,-1
 60 413 l 1,12,-1
 60 428 l 1,13,-1
 63 442 l 1,14,-1
 69 455 l 1,15,-1
 82 464 l 1,16,-1
 103 465 l 1,17,-1
 125 464 l 1,18,-1
 138 463 l 1,19,-1
 206 456 l 1,20,-1
 207 489 l 1,21,-1
 204 522 l 1,22,-1
 203 558 l 1,23,-1
 202 597 l 1,24,-1
 205 613 l 1,25,-1
 211 624 l 1,26,-1
 222 635 l 1,27,-1
 235 639 l 1,28,-1
 255 639 l 1,29,-1
 272 630 l 1,30,-1
 283 613 l 1,31,-1
 288 597 l 1,32,-1
 292 575 l 1,33,-1
 294 541 l 1,34,-1
 294 500 l 1,35,-1
 293 454 l 1,36,-1
 345 460 l 1,37,-1
 389 461 l 1,38,-1
 418 461 l 1,39,-1
 438 455 l 1,40,-1
 450 445 l 1,41,-1
 455 432 l 1,42,-1
 457 417 l 1,43,-1
 454 404 l 1,44,-1
 448 393 l 1,45,-1
 437 385 l 1,46,-1
 417 382 l 1,47,-1
 388 382 l 1,48,-1
 344 382 l 1,49,-1
 292 376 l 1,50,-1
 293 341 l 1,51,-1
 293 306 l 1,52,-1
 293 272 l 1,53,-1
 294 240 l 1,54,-1
 295 212 l 1,55,-1
 296 186 l 1,56,-1
 297 164 l 1,57,-1
 299 148 l 1,58,-1
 299 110 l 1,59,-1
 299 72 l 1,60,-1
 299 41 l 1,61,-1
 296 18 l 1,62,-1
 292 4 l 1,63,-1
 285 -9 l 1,64,-1
 278 -19 l 1,65,-1
 265 -26 l 1,66,-1
 248 -28 l 1,67,-1
 230 -23 l 1,68,-1
 217 -11 l 1,69,-1
 208 6 l 1,70,-1
 207 18 l 1,0,-1
EndSplineSet
Validated: 1
EndChar

StartChar: u
Encoding: 85 117 88
Width: 550
GlyphClass: 1
Flags: W
LayerCount: 2
Fore
SplineSet
391 19 m 1,0,-1
 360 7 l 1,1,-1
 310 -6 l 1,2,-1
 254 -12 l 1,3,-1
 215 -10 l 1,4,-1
 188 -5 l 1,5,-1
 163 5 l 1,6,-1
 140 20 l 1,7,-1
 120 37 l 1,8,-1
 103 57 l 1,9,-1
 91 78 l 1,10,-1
 83 101 l 1,11,-1
 79 122 l 1,12,-1
 76 160 l 1,13,-1
 75 197 l 1,14,-1
 74 233 l 1,15,-1
 74 270 l 1,16,-1
 76 322 l 1,17,-1
 82 366 l 1,18,-1
 87 403 l 1,19,-1
 92 435 l 1,20,-1
 98 455 l 1,21,-1
 110 467 l 1,22,-1
 125 473 l 1,23,-1
 141 474 l 1,24,-1
 158 469 l 1,25,-1
 173 459 l 1,26,-1
 182 444 l 1,27,-1
 184 423 l 1,28,-1
 179 396 l 1,29,-1
 173 361 l 1,30,-1
 168 318 l 1,31,-1
 166 275 l 1,32,-1
 167 239 l 1,33,-1
 167 204 l 1,34,-1
 169 169 l 1,35,-1
 173 133 l 1,36,-1
 180 104 l 1,37,-1
 192 87 l 1,38,-1
 208 80 l 1,39,-1
 230 78 l 1,40,-1
 277 76 l 1,41,-1
 320 84 l 1,42,-1
 361 91 l 1,43,-1
 389 98 l 1,44,-1
 389 131 l 1,45,-1
 387 198 l 1,46,-1
 387 234 l 1,47,-1
 389 274 l 1,48,-1
 389 313 l 1,49,-1
 389 354 l 1,50,-1
 391 406 l 1,51,-1
 397 438 l 1,52,-1
 405 455 l 1,53,-1
 417 466 l 1,54,-1
 432 471 l 1,55,-1
 448 471 l 1,56,-1
 464 465 l 1,57,-1
 479 453 l 1,58,-1
 487 437 l 1,59,-1
 487 417 l 1,60,-1
 484 394 l 1,61,-1
 482 374 l 1,62,-1
 483 341 l 1,63,-1
 484 310 l 1,64,-1
 481 233 l 1,65,-1
 482 162 l 1,66,-1
 487 30 l 1,67,-1
 484 6 l 1,68,-1
 474 -10 l 1,69,-1
 459 -18 l 1,70,-1
 444 -22 l 1,71,-1
 426 -20 l 1,72,-1
 408 -12 l 1,73,-1
 396 3 l 1,74,-1
 391 19 l 1,0,-1
EndSplineSet
Validated: 1
EndChar

StartChar: v
Encoding: 86 118 89
Width: 550
GlyphClass: 1
Flags: W
LayerCount: 2
Fore
SplineSet
320 -7 m 0,0,1
 316 -17 316 -17 305 -21 c 128,-1,2
 294 -25 294 -25 281.5 -24.5 c 128,-1,3
 269 -24 269 -24 257.5 -19.5 c 128,-1,4
 246 -15 246 -15 241 -6 c 0,5,6
 175 116 175 116 132.5 210.5 c 128,-1,7
 90 305 90 305 59 386 c 0,8,9
 47 419 47 419 57 437 c 128,-1,10
 67 455 67 455 82 462 c 0,11,12
 98 470 98 470 120 462.5 c 128,-1,13
 142 455 142 455 153 418 c 0,14,15
 181 327 181 327 215 247.5 c 128,-1,16
 249 168 249 168 278 102 c 1,17,18
 323 189 323 189 358 269 c 128,-1,19
 393 349 393 349 417 425 c 0,20,21
 427 459 427 459 446.5 467 c 128,-1,22
 466 475 466 475 482 468 c 0,23,24
 495 461 495 461 503 442.5 c 128,-1,25
 511 424 511 424 501 391 c 0,26,27
 491 360 491 360 476.5 326 c 128,-1,28
 462 292 462 292 440.5 246.5 c 128,-1,29
 419 201 419 201 389 139.5 c 128,-1,30
 359 78 359 78 320 -7 c 0,0,1
EndSplineSet
Validated: 33
EndChar

StartChar: w
Encoding: 87 119 90
Width: 550
GlyphClass: 1
Flags: W
LayerCount: 2
Fore
SplineSet
448 9 m 0,0,1
 441 -12 441 -12 424.5 -19 c 128,-1,2
 408 -26 408 -26 389 -25 c 0,3,4
 373 -25 373 -25 358.5 -18.5 c 128,-1,5
 344 -12 344 -12 336 8 c 0,6,7
 323 41 323 41 314.5 83.5 c 128,-1,8
 306 126 306 126 299.5 170 c 128,-1,9
 293 214 293 214 288.5 256 c 128,-1,10
 284 298 284 298 279 330 c 1,11,12
 261 260 261 260 247 174 c 128,-1,13
 233 88 233 88 203 -3 c 0,14,15
 198 -19 198 -19 185 -26.5 c 128,-1,16
 172 -34 172 -34 161 -34 c 0,17,18
 149 -34 149 -34 135 -26.5 c 128,-1,19
 121 -19 121 -19 114 3 c 0,20,21
 81 110 81 110 58 214.5 c 128,-1,22
 35 319 35 319 28 413 c 0,23,24
 25 438 25 438 36.5 449.5 c 128,-1,25
 48 461 48 461 64 463 c 256,26,27
 80 465 80 465 96 456.5 c 128,-1,28
 112 448 112 448 116 422 c 0,29,30
 120 380 120 380 126.5 332.5 c 128,-1,31
 133 285 133 285 140 239 c 128,-1,32
 147 193 147 193 154 150 c 128,-1,33
 161 107 161 107 167 75 c 1,34,35
 174 113 174 113 183.5 164 c 128,-1,36
 193 215 193 215 202 265.5 c 128,-1,37
 211 316 211 316 220.5 360.5 c 128,-1,38
 230 405 230 405 237 430 c 0,39,40
 243 452 243 452 256.5 459.5 c 128,-1,41
 270 467 270 467 286 466 c 0,42,43
 299 465 299 465 311.5 458 c 128,-1,44
 324 451 324 451 331 429 c 0,45,46
 332 423 332 423 338.5 383.5 c 128,-1,47
 345 344 345 344 354 290 c 128,-1,48
 363 236 363 236 374.5 176.5 c 128,-1,49
 386 117 386 117 397 73 c 1,50,51
 404 106 404 106 410.5 150 c 128,-1,52
 417 194 417 194 423 241 c 128,-1,53
 429 288 429 288 435 335.5 c 128,-1,54
 441 383 441 383 445 422 c 0,55,56
 448 450 448 450 463.5 457.5 c 128,-1,57
 479 465 479 465 494 462 c 0,58,59
 508 459 508 459 518 446.5 c 128,-1,60
 528 434 528 434 525 405 c 0,61,62
 520 364 520 364 511.5 308.5 c 128,-1,63
 503 253 503 253 493 198 c 128,-1,64
 483 143 483 143 471 92 c 128,-1,65
 459 41 459 41 448 9 c 0,0,1
EndSplineSet
Validated: 33
EndChar

StartChar: x
Encoding: 88 120 91
Width: 550
GlyphClass: 1
Flags: W
LayerCount: 2
Fore
SplineSet
404 0 m 5,0,-1
 374 36 l 5,1,-1
 339 77 l 5,2,-1
 303 123 l 5,3,-1
 268 171 l 5,4,-1
 247 147 l 5,5,-1
 224 123 l 5,6,-1
 202 98 l 5,7,-1
 180 75 l 5,8,-1
 160 53 l 5,9,-1
 142 34 l 5,10,-1
 127 17 l 5,11,-1
 117 6 l 5,12,-1
 99 -11 l 5,13,-1
 82 -16 l 5,14,-1
 66 -11 l 5,15,-1
 52 -1 l 5,16,-1
 44 11 l 5,17,-1
 39 26 l 5,18,-1
 41 44 l 5,19,-1
 53 67 l 5,20,-1
 66 84 l 5,21,-1
 83 102 l 5,22,-1
 104 122 l 5,23,-1
 126 143 l 5,24,-1
 150 166 l 5,25,-1
 174 190 l 5,26,-1
 198 215 l 5,27,-1
 219 241 l 5,28,-1
 183 289 l 5,29,-1
 150 329 l 5,30,-1
 121 368 l 5,31,-1
 92 397 l 5,32,-1
 76 419 l 5,33,-1
 74 439 l 5,34,-1
 79 454 l 5,35,-1
 90 466 l 5,36,-1
 105 473 l 5,37,-1
 123 475 l 5,38,-1
 143 468 l 5,39,-1
 164 450 l 5,40,-1
 176 437 l 5,41,-1
 190 420 l 5,42,-1
 206 400 l 5,43,-1
 222 379 l 5,44,-1
 238 357 l 5,45,-1
 254 335 l 5,46,-1
 270 314 l 5,47,-1
 284 295 l 5,48,-1
 321 340 l 5,49,-1
 354 382 l 5,50,-1
 386 424 l 5,51,-1
 405 454 l 5,52,-1
 419 473 l 5,53,-1
 434 485 l 5,54,-1
 450 488 l 5,55,-1
 465 485 l 5,56,-1
 477 476 l 5,57,-1
 487 463 l 5,58,-1
 492 445 l 5,59,-1
 488 425 l 5,60,-1
 472 392 l 5,61,-1
 449 360 l 5,62,-1
 415 322 l 5,63,-1
 377 279 l 5,64,-1
 334 229 l 5,65,-1
 332 227 l 5,66,-1
 331 226 l 5,67,-1
 370 173 l 5,68,-1
 409 129 l 5,69,-1
 444 91 l 5,70,-1
 473 53 l 5,71,-1
 486 30 l 5,72,-1
 491 12 l 5,73,-1
 488 -2 l 5,74,-1
 481 -13 l 5,75,-1
 467 -23 l 5,76,-1
 449 -27 l 5,77,-1
 428 -21 l 5,78,-1
 404 0 l 5,0,-1
EndSplineSet
Validated: 1
EndChar

StartChar: y
Encoding: 89 121 92
Width: 550
GlyphClass: 1
Flags: W
LayerCount: 2
Fore
SplineSet
513 397 m 4,0,1
 474 305 474 305 393 142.5 c 132,-1,2
 312 -20 312 -20 185 -271 c 4,3,4
 177 -287 177 -287 158 -294.5 c 132,-1,5
 139 -302 139 -302 121 -288 c 4,6,7
 108 -278 108 -278 102 -261.5 c 132,-1,8
 96 -245 96 -245 107 -225 c 4,9,10
 139 -161 139 -161 169.5 -101.5 c 132,-1,11
 200 -42 200 -42 228 12 c 5,12,13
 171 120 171 120 125.5 219 c 132,-1,14
 80 318 80 318 52 392 c 4,15,16
 40 425 40 425 48.5 443 c 132,-1,17
 57 461 57 461 72 468 c 4,18,19
 88 476 88 476 110 470 c 132,-1,20
 132 464 132 464 143 427 c 4,21,22
 168 346 168 346 206 261.5 c 132,-1,23
 244 177 244 177 277 109 c 5,24,25
 320 196 320 196 357 276 c 132,-1,26
 394 356 394 356 424 433 c 4,27,28
 437 467 437 467 456.5 474 c 132,-1,29
 476 481 476 481 492 474 c 4,30,31
 505 467 505 467 515.5 448 c 132,-1,32
 526 429 526 429 513 397 c 4,0,1
EndSplineSet
Validated: 33
EndChar

StartChar: z
Encoding: 90 122 93
Width: 550
GlyphClass: 1
Flags: W
LayerCount: 2
Fore
SplineSet
57 16 m 1,0,-1
 59 26 l 1,1,-1
 65 39 l 1,2,-1
 89 62 l 1,3,-1
 119 90 l 1,4,-1
 143 113 l 1,5,-1
 172 144 l 1,6,-1
 206 181 l 1,7,-1
 239 223 l 1,8,-1
 272 265 l 1,9,-1
 304 307 l 1,10,-1
 332 345 l 1,11,-1
 352 374 l 1,12,-1
 294 375 l 1,13,-1
 224 374 l 1,14,-1
 160 376 l 1,15,-1
 117 385 l 1,16,-1
 98 391 l 1,17,-1
 86 400 l 1,18,-1
 79 411 l 1,19,-1
 77 425 l 1,20,-1
 78 441 l 1,21,-1
 85 456 l 1,22,-1
 98 467 l 1,23,-1
 118 469 l 1,24,-1
 208 461 l 1,25,-1
 292 458 l 1,26,-1
 368 462 l 1,27,-1
 436 467 l 1,28,-1
 460 466 l 1,29,-1
 474 464 l 1,30,-1
 486 456 l 1,31,-1
 494 442 l 1,32,-1
 492 418 l 1,33,-1
 478 388 l 1,34,-1
 458 364 l 1,35,-1
 438 339 l 1,36,-1
 410 308 l 1,37,-1
 380 268 l 1,38,-1
 350 228 l 1,39,-1
 320 190 l 1,40,-1
 296 157 l 1,41,-1
 270 125 l 1,42,-1
 254 103 l 1,43,-1
 238 85 l 1,44,-1
 282 85 l 1,45,-1
 338 84 l 1,46,-1
 390 81 l 1,47,-1
 436 73 l 1,48,-1
 459 67 l 1,49,-1
 473 58 l 1,50,-1
 480 47 l 1,51,-1
 483 35 l 1,52,-1
 481 20 l 1,53,-1
 474 6 l 1,54,-1
 460 -9 l 1,55,-1
 432 -16 l 1,56,-1
 410 -13 l 1,57,-1
 384 -7 l 1,58,-1
 341 -4 l 1,59,-1
 294 -4 l 1,60,-1
 252 -4 l 1,61,-1
 196 -8 l 1,62,-1
 142 -16 l 1,63,-1
 100 -22 l 1,64,-1
 82 -18 l 1,65,-1
 68 -11 l 1,66,-1
 60 0 l 1,67,-1
 57 16 l 1,0,-1
EndSplineSet
Validated: 1
EndChar

StartChar: braceleft
Encoding: 91 123 94
Width: 550
GlyphClass: 1
Flags: W
LayerCount: 2
Fore
SplineSet
353 263 m 4,0,1
 353 234 353 234 344.5 210 c 132,-1,2
 336 186 336 186 326.5 162 c 132,-1,3
 317 138 317 138 308.5 111.5 c 132,-1,4
 300 85 300 85 300 51 c 4,5,6
 300 35 300 35 313 22.5 c 132,-1,7
 326 10 326 10 346 2 c 132,-1,8
 366 -6 366 -6 389.5 -10 c 132,-1,9
 413 -14 413 -14 435 -14 c 4,10,11
 453 -14 453 -14 468 -24 c 132,-1,12
 483 -34 483 -34 483 -51 c 4,13,14
 483 -64 483 -64 473.5 -78.5 c 132,-1,15
 464 -93 464 -93 439 -93 c 4,16,17
 395 -93 395 -93 354 -84.5 c 132,-1,18
 313 -76 313 -76 281.5 -59 c 132,-1,19
 250 -42 250 -42 230.5 -16.5 c 132,-1,20
 211 9 211 9 211 44 c 260,21,22
 211 79 211 79 219.5 106 c 132,-1,23
 228 133 228 133 238.5 157.5 c 132,-1,24
 249 182 249 182 257.5 205.5 c 132,-1,25
 266 229 266 229 266 256 c 4,26,27
 266 264 266 264 226.5 281.5 c 132,-1,28
 187 299 187 299 118 299 c 4,29,30
 99 299 99 299 85 314.5 c 132,-1,31
 71 330 71 330 71 349 c 4,32,33
 71 367 71 367 80.5 380 c 132,-1,34
 90 393 90 393 111 393 c 4,35,36
 139 393 139 393 166 395 c 132,-1,37
 193 397 193 397 213.5 402 c 132,-1,38
 234 407 234 407 247 417.5 c 132,-1,39
 260 428 260 428 260 444 c 4,40,41
 260 453 260 453 252.5 465 c 132,-1,42
 245 477 245 477 235.5 495.5 c 132,-1,43
 226 514 226 514 218.5 540 c 132,-1,44
 211 566 211 566 211 603 c 4,45,46
 211 690 211 690 271.5 742.5 c 132,-1,47
 332 795 332 795 439 795 c 4,48,49
 458 795 458 795 471 784.5 c 132,-1,50
 484 774 484 774 484 761 c 4,51,52
 484 745 484 745 466.5 730.5 c 132,-1,53
 449 716 449 716 435 716 c 4,54,55
 370 716 370 716 334.5 687.5 c 132,-1,56
 299 659 299 659 299 613 c 4,57,58
 299 588 299 588 307.5 562.5 c 132,-1,59
 316 537 316 537 326 514.5 c 132,-1,60
 336 492 336 492 344.5 474 c 132,-1,61
 353 456 353 456 353 447 c 4,62,63
 353 428 353 428 341.5 412 c 132,-1,64
 330 396 330 396 312.5 384 c 132,-1,65
 295 372 295 372 272.5 363.5 c 132,-1,66
 250 355 250 355 229 350 c 5,67,68
 282 334 282 334 317.5 309 c 132,-1,69
 353 284 353 284 353 263 c 4,0,1
EndSplineSet
Validated: 1
EndChar

StartChar: bar
Encoding: 92 124 95
Width: 550
GlyphClass: 1
Flags: W
LayerCount: 2
Fore
SplineSet
328 735 m 0,0,1
 328 692 328 692 326.5 571 c 128,-1,2
 325 450 325 450 323.5 312.5 c 128,-1,3
 322 175 322 175 321.5 48 c 128,-1,4
 321 -79 321 -79 322 -132 c 0,5,6
 320 -153 320 -153 306 -164.5 c 128,-1,7
 292 -176 292 -176 273 -175 c 0,8,9
 256 -175 256 -175 247 -163 c 128,-1,10
 238 -151 238 -151 240 -127 c 0,11,12
 243 -96 243 -96 244 24.5 c 128,-1,13
 245 145 245 145 246 285.5 c 128,-1,14
 247 426 247 426 247 555 c 128,-1,15
 247 684 247 684 248 732 c 0,16,17
 249 759 249 759 259 771 c 128,-1,18
 269 783 269 783 286 783 c 0,19,20
 305 784 305 784 316.5 773 c 128,-1,21
 328 762 328 762 328 735 c 0,0,1
EndSplineSet
Validated: 33
EndChar

StartChar: braceright
Encoding: 93 125 96
Width: 550
GlyphClass: 1
Flags: W
LayerCount: 2
Fore
SplineSet
202 449 m 4,0,1
 202 478 202 478 210.5 500.5 c 132,-1,2
 219 523 219 523 228.5 545 c 132,-1,3
 238 567 238 567 246.5 592 c 132,-1,4
 255 617 255 617 255 651 c 4,5,6
 255 667 255 667 242 679.5 c 132,-1,7
 229 692 229 692 209 700 c 132,-1,8
 189 708 189 708 165.5 712 c 132,-1,9
 142 716 142 716 120 716 c 4,10,11
 102 716 102 716 87 726 c 132,-1,12
 72 736 72 736 72 753 c 4,13,14
 72 766 72 766 81.5 780.5 c 132,-1,15
 91 795 91 795 116 795 c 4,16,17
 160 795 160 795 201 786.5 c 132,-1,18
 242 778 242 778 273.5 761 c 132,-1,19
 305 744 305 744 324.5 718.5 c 132,-1,20
 344 693 344 693 344 658 c 260,21,22
 344 623 344 623 335.5 597.5 c 132,-1,23
 327 572 327 572 316.5 549.5 c 132,-1,24
 306 527 306 527 297.5 505 c 132,-1,25
 289 483 289 483 289 456 c 4,26,27
 289 448 289 448 328.5 430.5 c 132,-1,28
 368 413 368 413 437 413 c 4,29,30
 456 413 456 413 470 397.5 c 132,-1,31
 484 382 484 382 484 363 c 4,32,33
 484 345 484 345 474.5 332 c 132,-1,34
 465 319 465 319 444 319 c 4,35,36
 416 319 416 319 389 317 c 132,-1,37
 362 315 362 315 341.5 310 c 132,-1,38
 321 305 321 305 308 294.5 c 132,-1,39
 295 284 295 284 295 268 c 4,40,41
 295 259 295 259 302.5 245 c 132,-1,42
 310 231 310 231 319.5 211 c 132,-1,43
 329 191 329 191 336.5 163.5 c 132,-1,44
 344 136 344 136 344 99 c 4,45,46
 344 12 344 12 283.5 -40.5 c 132,-1,47
 223 -93 223 -93 116 -93 c 4,48,49
 97 -93 97 -93 84 -82.5 c 132,-1,50
 71 -72 71 -72 71 -59 c 4,51,52
 71 -43 71 -43 88.5 -28.5 c 132,-1,53
 106 -14 106 -14 120 -14 c 4,54,55
 185 -14 185 -14 220.5 14.5 c 132,-1,56
 256 43 256 43 256 89 c 4,57,58
 256 114 256 114 247.5 141 c 132,-1,59
 239 168 239 168 229 192.5 c 132,-1,60
 219 217 219 217 210.5 236.5 c 132,-1,61
 202 256 202 256 202 265 c 4,62,63
 202 284 202 284 213.5 300 c 132,-1,64
 225 316 225 316 242.5 328 c 132,-1,65
 260 340 260 340 282.5 348.5 c 132,-1,66
 305 357 305 357 326 362 c 5,67,68
 273 378 273 378 237.5 403 c 132,-1,69
 202 428 202 428 202 449 c 4,0,1
EndSplineSet
Validated: 1
EndChar

StartChar: asciitilde
Encoding: 94 126 97
Width: 550
GlyphClass: 1
Flags: W
LayerCount: 2
Fore
SplineSet
496 478 m 4,0,1
 515 470 515 470 510.5 444 c 132,-1,2
 506 418 506 418 496 390 c 4,3,4
 461 303 461 303 425 275 c 132,-1,5
 389 247 389 247 358 247 c 4,6,7
 317 247 317 247 291.5 272 c 132,-1,8
 266 297 266 297 244 337 c 4,9,10
 227 366 227 366 216.5 381.5 c 132,-1,11
 206 397 206 397 184 397 c 260,12,13
 162 397 162 397 149.5 372.5 c 132,-1,14
 137 348 137 348 119 297 c 4,15,16
 112 279 112 279 92.5 264 c 132,-1,17
 73 249 73 249 58 253 c 4,18,19
 49 255 49 255 41 270 c 132,-1,20
 33 285 33 285 38 304 c 4,21,22
 63 397 63 397 103.5 446.5 c 132,-1,23
 144 496 144 496 181 496 c 4,24,25
 215 496 215 496 240 483.5 c 132,-1,26
 265 471 265 471 293 418 c 4,27,28
 309 388 309 388 321 366.5 c 132,-1,29
 333 345 333 345 354 345 c 4,30,31
 365 345 365 345 373 345.5 c 132,-1,32
 381 346 381 346 389 352.5 c 132,-1,33
 397 359 397 359 406 374 c 132,-1,34
 415 389 415 389 427 417 c 4,35,36
 431 427 431 427 438 439.5 c 132,-1,37
 445 452 445 452 454 462.5 c 132,-1,38
 463 473 463 473 474 478 c 132,-1,39
 485 483 485 483 496 478 c 4,0,1
EndSplineSet
Validated: 33
EndChar

StartChar: exclamdown
Encoding: 95 161 98
Width: 550
GlyphClass: 1
Flags: W
LayerCount: 2
Fore
SplineSet
185 23 m 0,0,1
 185 46 185 46 186 84 c 128,-1,2
 187 122 187 122 188 167.5 c 128,-1,3
 189 213 189 213 188.5 265 c 128,-1,4
 188 317 188 317 186 368 c 0,5,6
 184 421 184 421 184 438.5 c 128,-1,7
 184 456 184 456 185 461.5 c 128,-1,8
 186 467 186 467 186 473.5 c 128,-1,9
 186 480 186 480 185 510 c 0,10,11
 187 533 187 533 201.5 546 c 128,-1,12
 216 559 216 559 236 559 c 0,13,14
 253 559 253 559 266.5 546 c 128,-1,15
 280 533 280 533 279 506 c 0,16,17
 278 485 278 485 276 475.5 c 128,-1,18
 274 466 274 466 273 450.5 c 128,-1,19
 272 435 272 435 272.5 403.5 c 128,-1,20
 273 372 273 372 276 308 c 0,21,22
 280 221 280 221 279.5 146 c 128,-1,23
 279 71 279 71 278 27 c 0,24,25
 278 -3 278 -3 263.5 -16.5 c 128,-1,26
 249 -30 249 -30 232 -30 c 0,27,28
 212 -32 212 -32 199 -20 c 128,-1,29
 186 -8 186 -8 185 23 c 0,0,1
205 734 m 0,30,31
 228 737 228 737 248 719 c 128,-1,32
 268 701 268 701 276 679 c 256,33,34
 284 657 284 657 273.5 641.5 c 128,-1,35
 263 626 263 626 244 624 c 0,36,37
 222 623 222 623 203 639 c 128,-1,38
 184 655 184 655 176 677 c 256,39,40
 168 699 168 699 176 714.5 c 128,-1,41
 184 730 184 730 205 734 c 0,30,31
EndSplineSet
Validated: 33
EndChar

StartChar: cent
Encoding: 96 162 99
Width: 550
GlyphClass: 1
Flags: W
LayerCount: 2
Fore
SplineSet
481 502 m 1,0,-1
 485 473 l 1,1,-1
 479 454 l 1,2,-1
 467 440 l 1,3,-1
 452 431 l 1,4,-1
 436 428 l 1,5,-1
 419 430 l 1,6,-1
 404 440 l 1,7,-1
 392 464 l 1,8,-1
 385 479 l 1,9,-1
 375 492 l 1,10,-1
 356 502 l 1,11,-1
 333 506 l 1,12,-1
 328 421 l 1,13,-1
 323 330 l 1,14,-1
 319 240 l 1,15,-1
 314 155 l 1,16,-1
 354 158 l 1,17,-1
 384 170 l 1,18,-1
 403 180 l 1,19,-1
 412 189 l 1,20,-1
 426 215 l 1,21,-1
 444 226 l 1,22,-1
 462 228 l 1,23,-1
 479 224 l 1,24,-1
 493 215 l 1,25,-1
 503 202 l 1,26,-1
 505 183 l 1,27,-1
 496 156 l 1,28,-1
 477 132 l 1,29,-1
 442 106 l 1,30,-1
 390 86 l 1,31,-1
 311 74 l 1,32,-1
 308 12 l 1,33,-1
 308 -13 l 1,34,-1
 308 -32 l 1,35,-1
 301 -51 l 1,36,-1
 288 -65 l 1,37,-1
 271 -73 l 1,38,-1
 250 -74 l 1,39,-1
 237 -71 l 1,40,-1
 229 -62 l 1,41,-1
 224 -47 l 1,42,-1
 225 -26 l 1,43,-1
 227 -11 l 1,44,-1
 228 11 l 1,45,-1
 230 39 l 1,46,-1
 232 72 l 1,47,-1
 205 77 l 1,48,-1
 164 90 l 1,49,-1
 128 109 l 1,50,-1
 99 134 l 1,51,-1
 76 162 l 1,52,-1
 60 194 l 1,53,-1
 50 229 l 1,54,-1
 48 264 l 1,55,-1
 53 330 l 1,56,-1
 66 388 l 1,57,-1
 85 439 l 1,58,-1
 110 482 l 1,59,-1
 140 518 l 1,60,-1
 176 546 l 1,61,-1
 214 568 l 1,62,-1
 256 583 l 1,63,-1
 257 631 l 1,64,-1
 258 673 l 1,65,-1
 259 707 l 1,66,-1
 260 732 l 1,67,-1
 263 755 l 1,68,-1
 270 771 l 1,69,-1
 280 780 l 1,70,-1
 294 783 l 1,71,-1
 313 781 l 1,72,-1
 328 773 l 1,73,-1
 338 758 l 1,74,-1
 340 735 l 1,75,-1
 340 712 l 1,76,-1
 339 679 l 1,77,-1
 338 639 l 1,78,-1
 337 593 l 1,79,-1
 340 593 l 1,80,-1
 382 586 l 1,81,-1
 428 566 l 1,82,-1
 463 536 l 1,83,-1
 481 502 l 1,0,-1
141 295 m 1,84,-1
 141 275 l 1,85,-1
 142 254 l 1,86,-1
 146 232 l 1,87,-1
 155 212 l 1,88,-1
 169 193 l 1,89,-1
 190 176 l 1,90,-1
 217 164 l 1,91,-1
 237 157 l 1,92,-1
 241 237 l 1,93,-1
 245 324 l 1,94,-1
 249 413 l 1,95,-1
 253 498 l 1,96,-1
 217 472 l 1,97,-1
 181 433 l 1,98,-1
 154 375 l 1,99,-1
 141 295 l 1,84,-1
EndSplineSet
Validated: 1
EndChar

StartChar: sterling
Encoding: 97 163 100
Width: 550
GlyphClass: 1
Flags: W
LayerCount: 2
Fore
SplineSet
146 238 m 1,0,-1
 146 240 l 1,1,-1
 101 240 l 1,2,-1
 80 243 l 1,3,-1
 66 254 l 1,4,-1
 58 267 l 1,5,-1
 55 282 l 1,6,-1
 57 297 l 1,7,-1
 64 312 l 1,8,-1
 79 322 l 1,9,-1
 100 325 l 1,10,-1
 110 325 l 1,11,-1
 122 324 l 1,12,-1
 133 324 l 1,13,-1
 144 324 l 1,14,-1
 136 339 l 1,15,-1
 128 354 l 1,16,-1
 118 374 l 1,17,-1
 109 392 l 1,18,-1
 100 412 l 1,19,-1
 93 432 l 1,20,-1
 88 457 l 1,21,-1
 86 488 l 1,22,-1
 99 570 l 1,23,-1
 140 628 l 1,24,-1
 204 663 l 1,25,-1
 292 675 l 1,26,-1
 322 672 l 1,27,-1
 352 661 l 1,28,-1
 380 645 l 1,29,-1
 404 626 l 1,30,-1
 425 603 l 1,31,-1
 444 578 l 1,32,-1
 457 554 l 1,33,-1
 465 530 l 1,34,-1
 469 506 l 1,35,-1
 470 488 l 1,36,-1
 465 474 l 1,37,-1
 453 465 l 1,38,-1
 433 459 l 1,39,-1
 412 456 l 1,40,-1
 395 462 l 1,41,-1
 389 484 l 1,42,-1
 386 506 l 1,43,-1
 378 527 l 1,44,-1
 366 547 l 1,45,-1
 351 564 l 1,46,-1
 334 578 l 1,47,-1
 316 588 l 1,48,-1
 298 596 l 1,49,-1
 280 598 l 1,50,-1
 244 593 l 1,51,-1
 210 576 l 1,52,-1
 187 548 l 1,53,-1
 179 504 l 1,54,-1
 181 475 l 1,55,-1
 186 450 l 1,56,-1
 195 428 l 1,57,-1
 204 407 l 1,58,-1
 214 385 l 1,59,-1
 224 362 l 1,60,-1
 231 346 l 1,61,-1
 240 323 l 1,62,-1
 287 322 l 1,63,-1
 329 322 l 1,64,-1
 384 322 l 1,65,-1
 404 319 l 1,66,-1
 416 310 l 1,67,-1
 421 298 l 1,68,-1
 424 285 l 1,69,-1
 422 270 l 1,70,-1
 416 255 l 1,71,-1
 405 244 l 1,72,-1
 384 242 l 1,73,-1
 364 243 l 1,74,-1
 330 243 l 1,75,-1
 286 243 l 1,76,-1
 240 242 l 1,77,-1
 240 240 l 1,78,-1
 240 238 l 1,79,-1
 239 235 l 1,80,-1
 239 233 l 1,81,-1
 234 198 l 1,82,-1
 222 164 l 1,83,-1
 210 144 l 1,84,-1
 198 128 l 1,85,-1
 184 114 l 1,86,-1
 170 100 l 1,87,-1
 158 88 l 1,88,-1
 149 74 l 1,89,-1
 164 81 l 1,90,-1
 176 88 l 1,91,-1
 191 92 l 1,92,-1
 213 94 l 1,93,-1
 244 92 l 1,94,-1
 268 88 l 1,95,-1
 287 81 l 1,96,-1
 304 74 l 1,97,-1
 322 67 l 1,98,-1
 340 60 l 1,99,-1
 361 56 l 1,100,-1
 389 54 l 1,101,-1
 408 56 l 1,102,-1
 428 62 l 1,103,-1
 448 69 l 1,104,-1
 466 76 l 1,105,-1
 482 81 l 1,106,-1
 496 84 l 1,107,-1
 504 82 l 1,108,-1
 507 74 l 1,109,-1
 508 63 l 1,110,-1
 510 48 l 1,111,-1
 511 34 l 1,112,-1
 509 25 l 1,113,-1
 490 -1 l 1,114,-1
 459 -16 l 1,115,-1
 420 -23 l 1,116,-1
 379 -25 l 1,117,-1
 357 -23 l 1,118,-1
 338 -18 l 1,119,-1
 321 -12 l 1,120,-1
 305 -5 l 1,121,-1
 288 2 l 1,122,-1
 270 8 l 1,123,-1
 248 13 l 1,124,-1
 222 15 l 1,125,-1
 201 14 l 1,126,-1
 184 11 l 1,127,-1
 172 7 l 1,128,-1
 160 2 l 1,129,-1
 148 -3 l 1,130,-1
 136 -8 l 1,131,-1
 119 -12 l 1,132,-1
 97 -15 l 1,133,-1
 79 -10 l 1,134,-1
 68 9 l 1,135,-1
 61 39 l 1,136,-1
 59 78 l 1,137,-1
 62 95 l 1,138,-1
 72 110 l 1,139,-1
 85 124 l 1,140,-1
 100 139 l 1,141,-1
 114 155 l 1,142,-1
 128 172 l 1,143,-1
 143 205 l 1,144,-1
 146 238 l 1,0,-1
EndSplineSet
Validated: 1
EndChar

StartChar: currency
Encoding: 98 164 101
Width: 550
GlyphClass: 1
Flags: W
LayerCount: 2
Fore
SplineSet
261 181 m 0,0,1
 244 185 244 185 226 191.5 c 128,-1,2
 208 198 208 198 192 208 c 1,3,4
 179 190 179 190 152.5 162 c 128,-1,5
 126 134 126 134 89 106 c 0,6,7
 79 98 79 98 63.5 97.5 c 128,-1,8
 48 97 48 97 39 109 c 0,9,10
 29 120 29 120 29 140.5 c 128,-1,11
 29 161 29 161 39 168 c 0,12,13
 61 184 61 184 89 212.5 c 128,-1,14
 117 241 117 241 136 258 c 1,15,16
 121 278 121 278 112.5 302.5 c 128,-1,17
 104 327 104 327 104 355 c 0,18,19
 104 387 104 387 111.5 414.5 c 128,-1,20
 119 442 119 442 135 464 c 1,21,22
 115 478 115 478 87.5 498 c 128,-1,23
 60 518 60 518 41 535 c 0,24,25
 31 543 31 543 31 563 c 128,-1,26
 31 583 31 583 41 594 c 0,27,28
 50 606 50 606 66 606 c 128,-1,29
 82 606 82 606 91 597 c 0,30,31
 119 569 119 569 147.5 549 c 128,-1,32
 176 529 176 529 191 514 c 1,33,34
 213 526 213 526 241.5 532.5 c 128,-1,35
 270 539 270 539 304 539 c 0,36,37
 320 539 320 539 339.5 533.5 c 128,-1,38
 359 528 359 528 377 517 c 1,39,40
 391 533 391 533 414 554.5 c 128,-1,41
 437 576 437 576 463 602 c 0,42,43
 472 611 472 611 488 611 c 128,-1,44
 504 611 504 611 513 599 c 0,45,46
 523 588 523 588 523 568 c 128,-1,47
 523 548 523 548 513 540 c 0,48,49
 494 522 494 522 470 499.5 c 128,-1,50
 446 477 446 477 428 462 c 1,51,52
 440 440 440 440 446.5 410 c 128,-1,53
 453 380 453 380 451 343 c 0,54,55
 450 319 450 319 444 297.5 c 128,-1,56
 438 276 438 276 428 257 c 1,57,58
 446 241 446 241 469.5 214.5 c 128,-1,59
 493 188 493 188 512 170 c 0,60,61
 522 162 522 162 522 142 c 128,-1,62
 522 122 522 122 512 111 c 0,63,64
 503 99 503 99 487 99 c 128,-1,65
 471 99 471 99 462 108 c 0,66,67
 436 134 436 134 413 159 c 128,-1,68
 390 184 390 184 377 201 c 1,69,70
 353 185 353 185 323.5 179.5 c 128,-1,71
 294 174 294 174 261 181 c 0,0,1
281 264 m 0,72,73
 324 261 324 261 349.5 282.5 c 128,-1,74
 375 304 375 304 376 355 c 0,75,76
 376 423 376 423 346 441 c 128,-1,77
 316 459 316 459 276 459 c 256,78,79
 236 459 236 459 214 438.5 c 128,-1,80
 192 418 192 418 191 358 c 0,81,82
 190 317 190 317 215.5 292.5 c 128,-1,83
 241 268 241 268 281 264 c 0,72,73
EndSplineSet
Validated: 33
EndChar

StartChar: yen
Encoding: 99 165 102
Width: 550
GlyphClass: 1
Flags: W
LayerCount: 2
Fore
SplineSet
111 178 m 0,0,1
 139 177 139 177 170 177 c 128,-1,2
 201 177 201 177 232 178 c 1,3,4
 232 191 232 191 232.5 205.5 c 128,-1,5
 233 220 233 220 234 233 c 0,6,7
 233 237 233 237 230.5 240 c 128,-1,8
 228 243 228 243 227 246 c 0,9,10
 193 245 193 245 162.5 244.5 c 128,-1,11
 132 244 132 244 113 244 c 0,12,13
 88 244 88 244 75.5 253 c 128,-1,14
 63 262 63 262 63 273 c 0,15,16
 62 288 62 288 72.5 301.5 c 128,-1,17
 83 315 83 315 108 314 c 0,18,19
 127 313 127 313 147.5 313 c 128,-1,20
 168 313 168 313 189 312 c 1,21,22
 178 332 178 332 167 351.5 c 128,-1,23
 156 371 156 371 146 389 c 0,24,25
 117 442 117 442 88.5 488 c 128,-1,26
 60 534 60 534 42 583 c 0,27,28
 30 616 30 616 38.5 634 c 128,-1,29
 47 652 47 652 62 659 c 0,30,31
 78 667 78 667 100 661 c 128,-1,32
 122 655 122 655 133 618 c 0,33,34
 150 562 150 562 175 517 c 128,-1,35
 200 472 200 472 225 429 c 0,36,37
 238 406 238 406 250 383 c 128,-1,38
 262 360 262 360 272 338 c 1,39,40
 282 360 282 360 294 383 c 128,-1,41
 306 406 306 406 319 429 c 0,42,43
 344 472 344 472 369 517 c 128,-1,44
 394 562 394 562 411 618 c 0,45,46
 422 655 422 655 444 661 c 128,-1,47
 466 667 466 667 482 659 c 0,48,49
 497 652 497 652 505.5 634 c 128,-1,50
 514 616 514 616 502 583 c 0,51,52
 484 534 484 534 455.5 488 c 128,-1,53
 427 442 427 442 398 389 c 0,54,55
 388 371 388 371 377 352 c 128,-1,56
 366 333 366 333 355 313 c 1,57,58
 388 313 388 313 413.5 313.5 c 128,-1,59
 439 314 439 314 452 314 c 0,60,61
 476 314 476 314 483.5 303 c 128,-1,62
 491 292 491 292 492 279 c 0,63,64
 492 268 492 268 484.5 257 c 128,-1,65
 477 246 477 246 452 248 c 0,66,67
 439 249 439 249 404.5 249 c 128,-1,68
 370 249 370 249 327 248 c 1,69,70
 326 232 326 232 325 215 c 128,-1,71
 324 198 324 198 323 179 c 1,72,73
 367 180 367 180 401.5 180.5 c 128,-1,74
 436 181 436 181 452 181 c 0,75,76
 476 181 476 181 483.5 173.5 c 128,-1,77
 491 166 491 166 492 156 c 0,78,79
 492 141 492 141 484.5 127 c 128,-1,80
 477 113 477 113 452 115 c 0,81,82
 439 116 439 116 403 116 c 128,-1,83
 367 116 367 116 323 115 c 1,84,85
 323 93 323 93 323.5 69.5 c 128,-1,86
 324 46 324 46 325 21 c 0,87,88
 325 10 325 10 311 4.5 c 128,-1,89
 297 -1 297 -1 280 -1 c 128,-1,90
 263 -1 263 -1 249 5 c 128,-1,91
 235 11 235 11 235 21 c 0,92,93
 232 48 232 48 232 68.5 c 128,-1,94
 232 89 232 89 232 113 c 1,95,96
 195 112 195 112 162.5 111.5 c 128,-1,97
 130 111 130 111 109 111 c 0,98,99
 84 111 84 111 73.5 123.5 c 128,-1,100
 63 136 63 136 63 151 c 0,101,102
 62 162 62 162 74 170.5 c 128,-1,103
 86 179 86 179 111 178 c 0,0,1
EndSplineSet
Validated: 33
EndChar

StartChar: brokenbar
Encoding: 100 166 103
Width: 550
GlyphClass: 1
Flags: W
LayerCount: 2
Fore
SplineSet
329 680 m 0,0,1
 329 665 329 665 329 635.5 c 128,-1,2
 329 606 329 606 328 573.5 c 128,-1,3
 327 541 327 541 325.5 510 c 128,-1,4
 324 479 324 479 322 461 c 0,5,6
 319 441 319 441 304.5 428.5 c 128,-1,7
 290 416 290 416 277 417 c 0,8,9
 261 418 261 418 246.5 426.5 c 128,-1,10
 232 435 232 435 233 457 c 0,11,12
 232 479 232 479 231.5 511 c 128,-1,13
 231 543 231 543 231 576 c 128,-1,14
 231 609 231 609 231 639 c 128,-1,15
 231 669 231 669 230 685 c 0,16,17
 229 710 229 710 248 716.5 c 128,-1,18
 267 723 267 723 282 722 c 0,19,20
 297 722 297 722 312.5 713.5 c 128,-1,21
 328 705 328 705 329 680 c 0,0,1
329 249 m 0,22,23
 329 234 329 234 329 203.5 c 128,-1,24
 329 173 329 173 328 139.5 c 128,-1,25
 327 106 327 106 325.5 73.5 c 128,-1,26
 324 41 324 41 322 23 c 0,27,28
 319 3 319 3 304.5 -6 c 128,-1,29
 290 -15 290 -15 277 -14 c 0,30,31
 261 -13 261 -13 246.5 -2 c 128,-1,32
 232 9 232 9 233 31 c 0,33,34
 233 50 233 50 232 79.5 c 128,-1,35
 231 109 231 109 230.5 141 c 128,-1,36
 230 173 230 173 230 203.5 c 128,-1,37
 230 234 230 234 230 254 c 0,38,39
 231 279 231 279 249 285.5 c 128,-1,40
 267 292 267 292 282 291 c 0,41,42
 297 291 297 291 312.5 282.5 c 128,-1,43
 328 274 328 274 329 249 c 0,22,23
EndSplineSet
Validated: 33
EndChar

StartChar: dieresis
Encoding: 101 168 104
Width: 550
GlyphClass: 1
Flags: W
LayerCount: 2
Fore
SplineSet
363 609 m 0,0,1
 335 606 335 606 318.5 625.5 c 128,-1,2
 302 645 302 645 302 670 c 0,3,4
 302 694 302 694 321 711 c 128,-1,5
 340 728 340 728 363 729 c 0,6,7
 389 730 389 730 404.5 712.5 c 128,-1,8
 420 695 420 695 420 670 c 0,9,10
 420 646 420 646 404.5 629 c 128,-1,11
 389 612 389 612 363 609 c 0,0,1
186 609 m 0,12,13
 158 606 158 606 142 625.5 c 128,-1,14
 126 645 126 645 126 670 c 0,15,16
 126 694 126 694 145 711 c 128,-1,17
 164 728 164 728 186 729 c 0,18,19
 213 730 213 730 228.5 712.5 c 128,-1,20
 244 695 244 695 244 670 c 0,21,22
 244 647 244 647 228.5 629.5 c 128,-1,23
 213 612 213 612 186 609 c 0,12,13
EndSplineSet
Validated: 33
EndChar

StartChar: ordfeminine
Encoding: 102 170 105
Width: 550
GlyphClass: 2
Flags: W
LayerCount: 2
Fore
SplineSet
383 698 m 1,0,-1
 379 672 l 1,1,-1
 376 649 l 1,2,-1
 374 628 l 1,3,-1
 374 608 l 1,4,-1
 375 588 l 1,5,-1
 378 568 l 1,6,-1
 387 545 l 1,7,-1
 395 530 l 1,8,-1
 402 519 l 1,9,-1
 400 511 l 1,10,-1
 394 505 l 1,11,-1
 386 500 l 1,12,-1
 376 498 l 1,13,-1
 365 498 l 1,14,-1
 354 502 l 1,15,-1
 342 511 l 1,16,-1
 338 517 l 1,17,-1
 333 522 l 1,18,-1
 324 518 l 1,19,-1
 298 508 l 1,20,-1
 268 502 l 1,21,-1
 238 502 l 1,22,-1
 215 504 l 1,23,-1
 194 511 l 1,24,-1
 176 520 l 1,25,-1
 161 532 l 1,26,-1
 149 546 l 1,27,-1
 140 560 l 1,28,-1
 134 576 l 1,29,-1
 133 590 l 1,30,-1
 136 628 l 1,31,-1
 146 659 l 1,32,-1
 161 684 l 1,33,-1
 181 703 l 1,34,-1
 204 718 l 1,35,-1
 231 727 l 1,36,-1
 260 732 l 1,37,-1
 290 733 l 1,38,-1
 317 731 l 1,39,-1
 341 725 l 1,40,-1
 362 714 l 1,41,-1
 383 698 l 1,0,-1
198 610 m 1,42,-1
 198 602 l 1,43,-1
 200 594 l 1,44,-1
 203 585 l 1,45,-1
 208 578 l 1,46,-1
 214 571 l 1,47,-1
 221 566 l 1,48,-1
 230 562 l 1,49,-1
 241 560 l 1,50,-1
 252 559 l 1,51,-1
 264 560 l 1,52,-1
 276 562 l 1,53,-1
 288 565 l 1,54,-1
 300 570 l 1,55,-1
 307 572 l 1,56,-1
 315 577 l 1,57,-1
 313 584 l 1,58,-1
 312 594 l 1,59,-1
 310 607 l 1,60,-1
 310 620 l 1,61,-1
 311 634 l 1,62,-1
 312 651 l 1,63,-1
 315 669 l 1,64,-1
 305 674 l 1,65,-1
 296 677 l 1,66,-1
 286 679 l 1,67,-1
 272 680 l 1,68,-1
 262 679 l 1,69,-1
 249 676 l 1,70,-1
 237 672 l 1,71,-1
 225 665 l 1,72,-1
 215 655 l 1,73,-1
 206 643 l 1,74,-1
 200 628 l 1,75,-1
 198 610 l 1,42,-1
EndSplineSet
Validated: 1
EndChar

StartChar: guillemotleft
Encoding: 103 171 106
Width: 550
GlyphClass: 1
Flags: W
LayerCount: 2
Fore
SplineSet
38 345 m 0,0,1
 68 366 68 366 99.5 391 c 128,-1,2
 131 416 131 416 159.5 439.5 c 128,-1,3
 188 463 188 463 213 482.5 c 128,-1,4
 238 502 238 502 256 513 c 0,5,6
 284 530 284 530 297.5 517.5 c 128,-1,7
 311 505 311 505 318 490 c 0,8,9
 323 478 323 478 315.5 466 c 128,-1,10
 308 454 308 454 283 438 c 0,11,12
 240 411 240 411 205.5 377 c 128,-1,13
 171 343 171 343 119 303 c 1,14,15
 159 274 159 274 196 240.5 c 128,-1,16
 233 207 233 207 278 176 c 0,17,18
 303 157 303 157 312 143.5 c 128,-1,19
 321 130 321 130 315 117 c 0,20,21
 308 104 308 104 293.5 91.5 c 128,-1,22
 279 79 279 79 252 95 c 256,23,24
 225 111 225 111 201.5 130.5 c 128,-1,25
 178 150 178 150 153.5 171.5 c 128,-1,26
 129 193 129 193 101.5 216.5 c 128,-1,27
 74 240 74 240 39 265 c 0,28,29
 32 269 32 269 28 280 c 128,-1,30
 24 291 24 291 24 303.5 c 128,-1,31
 24 316 24 316 27.5 327.5 c 128,-1,32
 31 339 31 339 38 345 c 0,0,1
248 343 m 0,33,34
 278 364 278 364 309.5 389 c 128,-1,35
 341 414 341 414 369.5 437.5 c 128,-1,36
 398 461 398 461 423 480.5 c 128,-1,37
 448 500 448 500 466 511 c 0,38,39
 494 528 494 528 507.5 515.5 c 128,-1,40
 521 503 521 503 528 488 c 0,41,42
 533 476 533 476 525.5 464 c 128,-1,43
 518 452 518 452 493 436 c 0,44,45
 450 409 450 409 415.5 375 c 128,-1,46
 381 341 381 341 329 301 c 1,47,48
 369 272 369 272 406 238.5 c 128,-1,49
 443 205 443 205 488 174 c 0,50,51
 513 155 513 155 522 141.5 c 128,-1,52
 531 128 531 128 525 115 c 0,53,54
 518 102 518 102 503.5 89.5 c 128,-1,55
 489 77 489 77 462 93 c 256,56,57
 435 109 435 109 411.5 128.5 c 128,-1,58
 388 148 388 148 363.5 169.5 c 128,-1,59
 339 191 339 191 311.5 214.5 c 128,-1,60
 284 238 284 238 249 263 c 0,61,62
 242 267 242 267 238 278 c 128,-1,63
 234 289 234 289 234 301.5 c 128,-1,64
 234 314 234 314 237.5 325.5 c 128,-1,65
 241 337 241 337 248 343 c 0,33,34
EndSplineSet
Validated: 33
EndChar

StartChar: logicalnot
Encoding: 104 172 107
Width: 550
GlyphClass: 1
Flags: W
LayerCount: 2
Fore
SplineSet
98 426 m 0,0,1
 138 425 138 425 187 424 c 128,-1,2
 236 423 236 423 283.5 423 c 128,-1,3
 331 423 331 423 373 423 c 128,-1,4
 415 423 415 423 440 423 c 1,5,6
 445 428 445 428 452.5 430.5 c 128,-1,7
 460 433 460 433 467 433 c 0,8,9
 482 434 482 434 496 423.5 c 128,-1,10
 510 413 510 413 509 388 c 0,11,12
 508 343 508 343 507.5 311.5 c 128,-1,13
 507 280 507 280 506.5 257.5 c 128,-1,14
 506 235 506 235 506.5 218 c 128,-1,15
 507 201 507 201 507 184 c 0,16,17
 507 160 507 160 495 152.5 c 128,-1,18
 483 145 483 145 470 144 c 0,19,20
 454 143 454 143 441 150.5 c 128,-1,21
 428 158 428 158 429 183 c 0,22,23
 431 209 431 209 430 252 c 128,-1,24
 429 295 429 295 428 344 c 1,25,26
 398 344 398 344 352 344 c 128,-1,27
 306 344 306 344 258 343 c 128,-1,28
 210 342 210 342 167 341.5 c 128,-1,29
 124 341 124 341 99 341 c 256,30,31
 74 341 74 341 63.5 354.5 c 128,-1,32
 53 368 53 368 53 383 c 0,33,34
 52 398 52 398 62.5 412.5 c 128,-1,35
 73 427 73 427 98 426 c 0,0,1
EndSplineSet
Validated: 33
EndChar

StartChar: macron
Encoding: 105 175 108
Width: 550
GlyphClass: 1
Flags: W
LayerCount: 2
Fore
SplineSet
110 623 m 0,0,1
 128 623 128 623 163 623 c 128,-1,2
 198 623 198 623 242 623 c 128,-1,3
 286 623 286 623 336 624 c 128,-1,4
 386 625 386 625 434 626 c 0,5,6
 459 627 459 627 469.5 612.5 c 128,-1,7
 480 598 480 598 479 583 c 0,8,9
 479 568 479 568 468.5 554.5 c 128,-1,10
 458 541 458 541 433 541 c 0,11,12
 402 541 402 541 354 541 c 128,-1,13
 306 541 306 541 257.5 541 c 128,-1,14
 209 541 209 541 168 541.5 c 128,-1,15
 127 542 127 542 110 543 c 0,16,17
 85 544 85 544 77.5 557.5 c 128,-1,18
 70 571 70 571 70 586 c 0,19,20
 71 599 71 599 78.5 611 c 128,-1,21
 86 623 86 623 110 623 c 0,0,1
EndSplineSet
Validated: 33
EndChar

StartChar: degree
Encoding: 106 176 109
Width: 550
GlyphClass: 1
Flags: W
LayerCount: 2
Fore
SplineSet
259 502 m 0,0,1
 201 502 201 502 169 535.5 c 128,-1,2
 137 569 137 569 137 618 c 0,3,4
 137 636 137 636 143 657 c 128,-1,5
 149 678 149 678 164.5 696 c 128,-1,6
 180 714 180 714 207 725.5 c 128,-1,7
 234 737 234 737 275 737 c 0,8,9
 345 737 345 737 366.5 698.5 c 128,-1,10
 388 660 388 660 388 605 c 0,11,12
 388 568 388 568 348.5 535 c 128,-1,13
 309 502 309 502 259 502 c 0,0,1
266 564 m 0,14,15
 284 564 284 564 300 580.5 c 128,-1,16
 316 597 316 597 316 614 c 0,17,18
 316 620 316 620 314.5 630.5 c 128,-1,19
 313 641 313 641 307.5 651 c 128,-1,20
 302 661 302 661 292.5 668 c 128,-1,21
 283 675 283 675 268 675 c 0,22,23
 240 675 240 675 226.5 656.5 c 128,-1,24
 213 638 213 638 214 616 c 0,25,26
 215 597 215 597 227 580.5 c 128,-1,27
 239 564 239 564 266 564 c 0,14,15
EndSplineSet
Validated: 33
EndChar

StartChar: plusminus
Encoding: 107 177 110
Width: 550
GlyphClass: 1
Flags: W
LayerCount: 2
Fore
SplineSet
98 386 m 0,0,1
 129 385 129 385 164.5 384.5 c 128,-1,2
 200 384 200 384 237 383 c 1,3,4
 237 418 237 418 236.5 449.5 c 128,-1,5
 236 481 236 481 235 503 c 0,6,7
 234 528 234 528 248 535.5 c 128,-1,8
 262 543 262 543 277 543 c 0,9,10
 292 544 292 544 306.5 536.5 c 128,-1,11
 321 529 321 529 320 504 c 0,12,13
 319 475 319 475 318 444 c 128,-1,14
 317 413 317 413 317 383 c 1,15,-1
 462 383 l 2,16,17
 486 383 486 383 493.5 371 c 128,-1,18
 501 359 501 359 502 346 c 0,19,20
 502 331 502 331 494.5 316 c 128,-1,21
 487 301 487 301 462 303 c 0,22,23
 448 304 448 304 407 304.5 c 128,-1,24
 366 305 366 305 316 304 c 1,25,26
 316 264 316 264 316.5 232 c 128,-1,27
 317 200 317 200 317 184 c 0,28,29
 317 160 317 160 305 152.5 c 128,-1,30
 293 145 293 145 280 144 c 0,31,32
 265 144 265 144 251 151.5 c 128,-1,33
 237 159 237 159 237 184 c 2,34,-1
 237 303 l 1,35,36
 195 302 195 302 158 301.5 c 128,-1,37
 121 301 121 301 99 301 c 0,38,39
 74 301 74 301 63.5 314.5 c 128,-1,40
 53 328 53 328 53 343 c 0,41,42
 52 358 52 358 62.5 372.5 c 128,-1,43
 73 387 73 387 98 386 c 0,0,1
98 96 m 0,44,45
 143 95 143 95 199.5 94 c 128,-1,46
 256 93 256 93 308.5 93 c 128,-1,47
 361 93 361 93 403 93 c 128,-1,48
 445 93 445 93 462 93 c 0,49,50
 486 93 486 93 493.5 81 c 128,-1,51
 501 69 501 69 502 56 c 0,52,53
 502 41 502 41 494.5 26 c 128,-1,54
 487 11 487 11 462 13 c 0,55,56
 446 14 446 14 398.5 14 c 128,-1,57
 351 14 351 14 294.5 13.5 c 128,-1,58
 238 13 238 13 183 12 c 128,-1,59
 128 11 128 11 99 11 c 0,60,61
 74 11 74 11 63.5 24.5 c 128,-1,62
 53 38 53 38 53 53 c 0,63,64
 52 68 52 68 62.5 82.5 c 128,-1,65
 73 97 73 97 98 96 c 0,44,45
EndSplineSet
Validated: 33
EndChar

StartChar: uni00B2
Encoding: 108 178 111
Width: 550
GlyphClass: 2
Flags: W
LayerCount: 2
Fore
SplineSet
151 685 m 1,0,-1
 157 697 l 1,1,-1
 165 711 l 1,2,-1
 177 725 l 1,3,-1
 191 738 l 1,4,-1
 207 747 l 1,5,-1
 226 754 l 1,6,-1
 252 757 l 1,7,-1
 278 757 l 1,8,-1
 300 755 l 1,9,-1
 318 749 l 1,10,-1
 338 738 l 1,11,-1
 359 722 l 1,12,-1
 370 706 l 1,13,-1
 379 689 l 1,14,-1
 383 663 l 1,15,-1
 381 645 l 1,16,-1
 377 629 l 1,17,-1
 369 616 l 1,18,-1
 358 605 l 1,19,-1
 343 594 l 1,20,-1
 326 584 l 1,21,-1
 305 574 l 1,22,-1
 276 560 l 1,23,-1
 254 548 l 1,24,-1
 231 536 l 1,25,-1
 217 528 l 1,26,-1
 278 526 l 1,27,-1
 323 527 l 1,28,-1
 358 529 l 1,29,-1
 375 531 l 1,30,-1
 385 530 l 1,31,-1
 395 526 l 1,32,-1
 401 518 l 1,33,-1
 401 507 l 1,34,-1
 398 497 l 1,35,-1
 391 487 l 1,36,-1
 382 480 l 1,37,-1
 357 475 l 1,38,-1
 333 473 l 1,39,-1
 316 472 l 1,40,-1
 286 472 l 1,41,-1
 257 471 l 1,42,-1
 229 470 l 1,43,-1
 207 471 l 1,44,-1
 178 474 l 1,45,-1
 162 479 l 1,46,-1
 153 483 l 1,47,-1
 149 490 l 1,48,-1
 145 501 l 1,49,-1
 143 511 l 1,50,-1
 144 525 l 1,51,-1
 148 538 l 1,52,-1
 153 549 l 1,53,-1
 163 560 l 1,54,-1
 174 570 l 1,55,-1
 187 580 l 1,56,-1
 205 590 l 1,57,-1
 225 598 l 1,58,-1
 250 608 l 1,59,-1
 273 618 l 1,60,-1
 289 626 l 1,61,-1
 302 634 l 1,62,-1
 310 642 l 1,63,-1
 316 651 l 1,64,-1
 318 659 l 1,65,-1
 319 669 l 1,66,-1
 315 681 l 1,67,-1
 308 691 l 1,68,-1
 297 698 l 1,69,-1
 280 704 l 1,70,-1
 255 703 l 1,71,-1
 236 694 l 1,72,-1
 225 685 l 1,73,-1
 213 671 l 1,74,-1
 205 658 l 1,75,-1
 195 649 l 1,76,-1
 181 647 l 1,77,-1
 171 648 l 1,78,-1
 159 651 l 1,79,-1
 151 656 l 1,80,-1
 146 663 l 1,81,-1
 146 673 l 1,82,-1
 151 685 l 1,0,-1
EndSplineSet
Validated: 1
EndChar

StartChar: uni00B3
Encoding: 109 179 112
Width: 550
GlyphClass: 2
Flags: W
LayerCount: 2
Fore
SplineSet
405 556 m 1,0,-1
 399 541 l 1,1,-1
 373 517 l 1,2,-1
 332 502 l 1,3,-1
 276 494 l 1,4,-1
 254 493 l 1,5,-1
 236 493 l 1,6,-1
 214 494 l 1,7,-1
 201 496 l 1,8,-1
 186 498 l 1,9,-1
 173 501 l 1,10,-1
 162 505 l 1,11,-1
 154 509 l 1,12,-1
 148 516 l 1,13,-1
 146 523 l 1,14,-1
 148 533 l 1,15,-1
 154 542 l 1,16,-1
 164 549 l 1,17,-1
 173 553 l 1,18,-1
 183 555 l 1,19,-1
 193 552 l 1,20,-1
 208 549 l 1,21,-1
 225 545 l 1,22,-1
 247 544 l 1,23,-1
 269 545 l 1,24,-1
 304 549 l 1,25,-1
 331 557 l 1,26,-1
 340 563 l 1,27,-1
 344 568 l 1,28,-1
 342 575 l 1,29,-1
 338 580 l 1,30,-1
 329 587 l 1,31,-1
 313 593 l 1,32,-1
 294 596 l 1,33,-1
 240 599 l 1,34,-1
 230 601 l 1,35,-1
 221 605 l 1,36,-1
 215 611 l 1,37,-1
 213 617 l 1,38,-1
 214 624 l 1,39,-1
 218 629 l 1,40,-1
 225 633 l 1,41,-1
 236 638 l 1,42,-1
 273 646 l 1,43,-1
 292 649 l 1,44,-1
 310 653 l 1,45,-1
 323 658 l 1,46,-1
 330 667 l 1,47,-1
 325 676 l 1,48,-1
 310 686 l 1,49,-1
 284 694 l 1,50,-1
 249 695 l 1,51,-1
 229 692 l 1,52,-1
 217 689 l 1,53,-1
 207 686 l 1,54,-1
 195 684 l 1,55,-1
 184 685 l 1,56,-1
 174 692 l 1,57,-1
 168 701 l 1,58,-1
 165 712 l 1,59,-1
 166 718 l 1,60,-1
 172 725 l 1,61,-1
 180 730 l 1,62,-1
 198 739 l 1,63,-1
 226 743 l 1,64,-1
 262 745 l 1,65,-1
 288 742 l 1,66,-1
 315 736 l 1,67,-1
 354 722 l 1,68,-1
 377 704 l 1,69,-1
 385 690 l 1,70,-1
 388 678 l 1,71,-1
 388 667 l 1,72,-1
 386 654 l 1,73,-1
 383 646 l 1,74,-1
 379 640 l 1,75,-1
 375 634 l 1,76,-1
 370 630 l 1,77,-1
 364 627 l 1,78,-1
 359 625 l 1,79,-1
 375 618 l 1,80,-1
 392 604 l 1,81,-1
 402 584 l 1,82,-1
 405 556 l 1,0,-1
EndSplineSet
Validated: 1
EndChar

StartChar: acute
Encoding: 110 180 113
Width: 550
GlyphClass: 1
Flags: W
LayerCount: 2
Fore
SplineSet
360 732 m 0,0,1
 330 692 330 692 290.5 650 c 128,-1,2
 251 608 251 608 224 581 c 0,3,4
 205 562 205 562 185 560.5 c 128,-1,5
 165 559 165 559 155 569 c 0,6,7
 144 579 144 579 147.5 599.5 c 128,-1,8
 151 620 151 620 169 637 c 0,9,10
 202 667 202 667 233 711 c 128,-1,11
 264 755 264 755 290 791 c 0,12,13
 303 807 303 807 325 808 c 128,-1,14
 347 809 347 809 360 799 c 0,15,16
 369 789 369 789 371 769 c 128,-1,17
 373 749 373 749 360 732 c 0,0,1
EndSplineSet
Validated: 33
EndChar

StartChar: cedilla
Encoding: 111 184 114
Width: 550
GlyphClass: 1
Flags: W
LayerCount: 2
Fore
SplineSet
308 3 m 0,0,1
 302 -19 302 -19 316 -35.5 c 128,-1,2
 330 -52 330 -52 349 -67 c 128,-1,3
 368 -82 368 -82 385 -98 c 128,-1,4
 402 -114 402 -114 402 -135 c 0,5,6
 402 -155 402 -155 396 -175.5 c 128,-1,7
 390 -196 390 -196 375.5 -212.5 c 128,-1,8
 361 -229 361 -229 336.5 -239.5 c 128,-1,9
 312 -250 312 -250 275 -250 c 0,10,11
 225 -250 225 -250 201 -232 c 128,-1,12
 177 -214 177 -214 164 -190 c 0,13,14
 154 -173 154 -173 158.5 -154.5 c 128,-1,15
 163 -136 163 -136 174 -131 c 0,16,17
 187 -125 187 -125 199.5 -127.5 c 128,-1,18
 212 -130 212 -130 221 -148 c 0,19,20
 228 -164 228 -164 242 -177.5 c 128,-1,21
 256 -191 256 -191 281 -191 c 0,22,23
 308 -191 308 -191 319.5 -179 c 128,-1,24
 331 -167 331 -167 331 -144 c 0,25,26
 331 -122 331 -122 314 -109 c 128,-1,27
 297 -96 297 -96 278 -83.5 c 128,-1,28
 259 -71 259 -71 246 -53 c 128,-1,29
 233 -35 233 -35 241 -2 c 0,30,31
 246 19 246 19 254.5 34.5 c 128,-1,32
 263 50 263 50 285 49 c 0,33,34
 308 48 308 48 310 33 c 128,-1,35
 312 18 312 18 308 3 c 0,0,1
EndSplineSet
Validated: 33
EndChar

StartChar: uni00B9
Encoding: 112 185 115
Width: 550
GlyphClass: 2
Flags: W
LayerCount: 2
Fore
SplineSet
168 533 m 1,0,-1
 187 533 l 1,1,-1
 207 533 l 1,2,-1
 229 532 l 1,3,-1
 244 532 l 1,4,-1
 244 548 l 1,5,-1
 244 566 l 1,6,-1
 245 586 l 1,7,-1
 246 608 l 1,8,-1
 248 632 l 1,9,-1
 249 656 l 1,10,-1
 252 687 l 1,11,-1
 236 676 l 1,12,-1
 218 664 l 1,13,-1
 199 654 l 1,14,-1
 183 647 l 1,15,-1
 170 647 l 1,16,-1
 157 653 l 1,17,-1
 148 662 l 1,18,-1
 145 671 l 1,19,-1
 146 679 l 1,20,-1
 150 686 l 1,21,-1
 156 693 l 1,22,-1
 166 700 l 1,23,-1
 206 726 l 1,24,-1
 233 746 l 1,25,-1
 253 758 l 1,26,-1
 270 762 l 1,27,-1
 284 760 l 1,28,-1
 298 755 l 1,29,-1
 309 748 l 1,30,-1
 312 743 l 1,31,-1
 312 732 l 1,32,-1
 311 716 l 1,33,-1
 310 697 l 1,34,-1
 308 677 l 1,35,-1
 307 657 l 1,36,-1
 306 638 l 1,37,-1
 305 623 l 1,38,-1
 305 614 l 1,39,-1
 305 595 l 1,40,-1
 305 581 l 1,41,-1
 305 573 l 1,42,-1
 305 566 l 1,43,-1
 305 558 l 1,44,-1
 305 549 l 1,45,-1
 307 530 l 1,46,-1
 327 529 l 1,47,-1
 350 528 l 1,48,-1
 367 528 l 1,49,-1
 377 528 l 1,50,-1
 391 526 l 1,51,-1
 399 519 l 1,52,-1
 402 511 l 1,53,-1
 404 502 l 1,54,-1
 403 491 l 1,55,-1
 399 482 l 1,56,-1
 391 474 l 1,57,-1
 376 472 l 1,58,-1
 364 472 l 1,59,-1
 342 472 l 1,60,-1
 313 473 l 1,61,-1
 282 473 l 1,62,-1
 249 473 l 1,63,-1
 217 474 l 1,64,-1
 189 474 l 1,65,-1
 168 474 l 1,66,-1
 157 476 l 1,67,-1
 150 483 l 1,68,-1
 146 492 l 1,69,-1
 145 502 l 1,70,-1
 146 513 l 1,71,-1
 150 523 l 1,72,-1
 157 531 l 1,73,-1
 168 533 l 1,0,-1
EndSplineSet
Validated: 1
EndChar

StartChar: guillemotright
Encoding: 113 187 116
Width: 550
GlyphClass: 1
Flags: W
LayerCount: 2
Fore
SplineSet
474 345 m 0,0,1
 481 339 481 339 484.5 327.5 c 128,-1,2
 488 316 488 316 488 303.5 c 128,-1,3
 488 291 488 291 484 280 c 128,-1,4
 480 269 480 269 473 265 c 0,5,6
 438 240 438 240 410.5 216.5 c 128,-1,7
 383 193 383 193 358.5 171.5 c 128,-1,8
 334 150 334 150 310.5 130.5 c 128,-1,9
 287 111 287 111 260 95 c 256,10,11
 233 79 233 79 218.5 91.5 c 128,-1,12
 204 104 204 104 197 117 c 0,13,14
 191 130 191 130 200 143.5 c 128,-1,15
 209 157 209 157 234 176 c 0,16,17
 279 207 279 207 316 240.5 c 128,-1,18
 353 274 353 274 393 303 c 1,19,20
 341 343 341 343 306.5 377 c 128,-1,21
 272 411 272 411 229 438 c 0,22,23
 204 454 204 454 196.5 466 c 128,-1,24
 189 478 189 478 194 490 c 0,25,26
 201 505 201 505 214.5 517.5 c 128,-1,27
 228 530 228 530 256 513 c 0,28,29
 274 502 274 502 299 482.5 c 128,-1,30
 324 463 324 463 352.5 439.5 c 128,-1,31
 381 416 381 416 412.5 391 c 128,-1,32
 444 366 444 366 474 345 c 0,0,1
264 343 m 0,33,34
 271 337 271 337 274.5 325.5 c 128,-1,35
 278 314 278 314 278 301.5 c 128,-1,36
 278 289 278 289 274 278 c 128,-1,37
 270 267 270 267 263 263 c 0,38,39
 228 238 228 238 200.5 214.5 c 128,-1,40
 173 191 173 191 148.5 169.5 c 128,-1,41
 124 148 124 148 100.5 128.5 c 128,-1,42
 77 109 77 109 50 93 c 256,43,44
 23 77 23 77 8.5 89.5 c 128,-1,45
 -6 102 -6 102 -13 115 c 0,46,47
 -19 128 -19 128 -10 141.5 c 128,-1,48
 -1 155 -1 155 24 174 c 0,49,50
 69 205 69 205 106 238.5 c 128,-1,51
 143 272 143 272 183 301 c 1,52,53
 131 341 131 341 96.5 375 c 128,-1,54
 62 409 62 409 19 436 c 0,55,56
 -6 452 -6 452 -13.5 464 c 128,-1,57
 -21 476 -21 476 -16 488 c 0,58,59
 -9 503 -9 503 4.5 515.5 c 128,-1,60
 18 528 18 528 46 511 c 0,61,62
 64 500 64 500 89 480.5 c 128,-1,63
 114 461 114 461 142.5 437.5 c 128,-1,64
 171 414 171 414 202.5 389 c 128,-1,65
 234 364 234 364 264 343 c 0,33,34
EndSplineSet
Validated: 33
EndChar

StartChar: onequarter
Encoding: 114 188 117
Width: 550
GlyphClass: 1
Flags: W
LayerCount: 2
Fore
SplineSet
151 492 m 0,0,1
 171 492 171 492 195.5 491.5 c 128,-1,2
 220 491 220 491 245 491 c 1,3,4
 246 498 246 498 247.5 505.5 c 128,-1,5
 249 513 249 513 248 523 c 0,6,7
 247 548 247 548 250 590.5 c 128,-1,8
 253 633 253 633 255 679 c 1,9,10
 243 670 243 670 225.5 659 c 128,-1,11
 208 648 208 648 195 644 c 0,12,13
 182 641 182 641 171.5 652.5 c 128,-1,14
 161 664 161 664 162 676 c 0,15,16
 162 684 162 684 166.5 690 c 128,-1,17
 171 696 171 696 183 703 c 0,18,19
 227 729 227 729 244.5 746.5 c 128,-1,20
 262 764 262 764 276 764 c 0,21,22
 293 764 293 764 311 754.5 c 128,-1,23
 329 745 329 745 329 740 c 0,24,25
 329 730 329 730 327.5 706 c 128,-1,26
 326 682 326 682 324.5 656.5 c 128,-1,27
 323 631 323 631 322 608 c 128,-1,28
 321 585 321 585 321 577 c 0,29,30
 321 566 321 566 321.5 559.5 c 128,-1,31
 322 553 322 553 322 543 c 0,32,33
 322 527 322 527 322.5 514.5 c 128,-1,34
 323 502 323 502 324 489 c 1,35,36
 353 488 353 488 375.5 487.5 c 128,-1,37
 398 487 398 487 406 487 c 0,38,39
 426 487 426 487 432.5 481 c 128,-1,40
 439 475 439 475 439 468 c 0,41,42
 440 455 440 455 433 443 c 128,-1,43
 426 431 426 431 405 431 c 0,44,45
 396 431 396 431 362.5 431.5 c 128,-1,46
 329 432 329 432 289 432 c 128,-1,47
 249 432 249 432 210.5 432.5 c 128,-1,48
 172 433 172 433 151 433 c 0,49,50
 135 433 135 433 129 444 c 128,-1,51
 123 455 123 455 123 468 c 0,52,53
 122 477 122 477 128 484.5 c 128,-1,54
 134 492 134 492 151 492 c 0,0,1
86 392 m 0,55,56
 148 391 148 391 206.5 391 c 128,-1,57
 265 391 265 391 315 391.5 c 128,-1,58
 365 392 365 392 404.5 392.5 c 128,-1,59
 444 393 444 393 468 393 c 0,60,61
 490 393 490 393 497 385 c 128,-1,62
 504 377 504 377 505 367 c 0,63,64
 505 354 505 354 497.5 342.5 c 128,-1,65
 490 331 490 331 468 331 c 0,66,67
 447 331 447 331 400 330.5 c 128,-1,68
 353 330 353 330 297 330 c 128,-1,69
 241 330 241 330 184 329.5 c 128,-1,70
 127 329 127 329 87 329 c 0,71,72
 65 329 65 329 57.5 340 c 128,-1,73
 50 351 50 351 50 364 c 0,74,75
 49 374 49 374 56 383.5 c 128,-1,76
 63 393 63 393 86 392 c 0,55,56
322 -17 m 0,77,78
 310 -17 310 -17 298 -9.5 c 128,-1,79
 286 -2 286 -2 285 5 c 0,80,81
 285 10 285 10 286 24 c 128,-1,82
 287 38 287 38 288 57 c 1,83,84
 248 57 248 57 209 55.5 c 128,-1,85
 170 54 170 54 145 50 c 0,86,87
 119 46 119 46 107.5 70 c 128,-1,88
 96 94 96 94 106 116 c 0,89,90
 111 126 111 126 127 145 c 128,-1,91
 143 164 143 164 163.5 186 c 128,-1,92
 184 208 184 208 207 232 c 128,-1,93
 230 256 230 256 248 277 c 0,94,95
 259 290 259 290 276 293 c 128,-1,96
 293 296 293 296 308 296 c 0,97,98
 323 297 323 297 341 293 c 128,-1,99
 359 289 359 289 362 277 c 0,100,101
 370 243 370 243 369.5 201 c 128,-1,102
 369 159 369 159 368 116 c 1,103,104
 385 115 385 115 397.5 115 c 128,-1,105
 410 115 410 115 416 115 c 0,106,107
 432 115 432 115 437.5 109.5 c 128,-1,108
 443 104 443 104 443 97 c 0,109,110
 443 82 443 82 438 68.5 c 128,-1,111
 433 55 433 55 416 55 c 0,112,113
 410 55 410 55 397 55 c 128,-1,114
 384 55 384 55 367 56 c 1,115,116
 368 43 368 43 368.5 30.5 c 128,-1,117
 369 18 369 18 370 6 c 0,118,119
 371 -1 371 -1 360.5 -9 c 128,-1,120
 350 -17 350 -17 322 -17 c 0,77,78
294 222 m 1,121,122
 270 199 270 199 244.5 170.5 c 128,-1,123
 219 142 219 142 201 116 c 1,124,125
 223 117 223 117 246.5 117 c 128,-1,126
 270 117 270 117 292 117 c 1,127,128
 293 142 293 142 294 169.5 c 128,-1,129
 295 197 295 197 294 222 c 1,121,122
EndSplineSet
Validated: 33
EndChar

StartChar: questiondown
Encoding: 115 191 118
Width: 550
GlyphClass: 1
Flags: W
LayerCount: 2
Fore
SplineSet
294 457 m 1,0,-1
 319 485 l 1,1,-1
 337 492 l 1,2,-1
 360 487 l 1,3,-1
 370 478 l 1,4,-1
 381 461 l 1,5,-1
 383 439 l 1,6,-1
 376 411 l 1,7,-1
 348 379 l 1,8,-1
 313 353 l 1,9,-1
 283 327 l 1,10,-1
 253 304 l 1,11,-1
 224 283 l 1,12,-1
 199 262 l 1,13,-1
 181 238 l 1,14,-1
 172 207 l 1,15,-1
 174 161 l 1,16,-1
 186 136 l 1,17,-1
 208 109 l 1,18,-1
 241 88 l 1,19,-1
 255 81 l 1,20,-1
 271 76 l 1,21,-1
 288 76 l 1,22,-1
 305 79 l 1,23,-1
 321 84 l 1,24,-1
 338 91 l 1,25,-1
 353 100 l 1,26,-1
 368 109 l 1,27,-1
 382 118 l 1,28,-1
 404 130 l 1,29,-1
 421 130 l 1,30,-1
 434 123 l 1,31,-1
 448 110 l 1,32,-1
 455 95 l 1,33,-1
 456 78 l 1,34,-1
 448 60 l 1,35,-1
 431 41 l 1,36,-1
 413 28 l 1,37,-1
 393 15 l 1,38,-1
 369 3 l 1,39,-1
 343 -6 l 1,40,-1
 315 -12 l 1,41,-1
 286 -13 l 1,42,-1
 256 -9 l 1,43,-1
 225 2 l 1,44,-1
 194 16 l 1,45,-1
 133 62 l 1,46,-1
 95 126 l 1,47,-1
 83 218 l 1,48,-1
 93 262 l 1,49,-1
 114 293 l 1,50,-1
 138 328 l 1,51,-1
 168 349 l 1,52,-1
 199 370 l 1,53,-1
 230 393 l 1,54,-1
 263 424 l 1,55,-1
 294 457 l 1,0,-1
369 677 m 0,56,57
 393 674 393 674 401 652 c 0,58,59
 408 632 408 632 401 608 c 0,60,61
 394 585 394 585 373 573 c 256,62,63
 352 561 352 561 333 566 c 0,64,65
 312 570 312 570 304 590 c 0,66,67
 296 611 296 611 304 632 c 0,68,69
 312 655 312 655 329 667 c 0,70,71
 348 680 348 680 369 677 c 0,56,57
EndSplineSet
Validated: 33
EndChar

StartChar: Agrave
Encoding: 116 192 119
Width: 550
GlyphClass: 1
Flags: W
LayerCount: 2
Fore
SplineSet
304 761 m 0,0,1
 277 788 277 788 237.5 830 c 128,-1,2
 198 872 198 872 168 912 c 0,3,4
 155 929 155 929 157 949 c 128,-1,5
 159 969 159 969 168 979 c 0,6,7
 181 989 181 989 203 988 c 128,-1,8
 225 987 225 987 238 971 c 0,9,10
 264 935 264 935 295 891 c 128,-1,11
 326 847 326 847 359 817 c 0,12,13
 377 800 377 800 380.5 779.5 c 128,-1,14
 384 759 384 759 373 749 c 0,15,16
 363 739 363 739 343 740.5 c 128,-1,17
 323 742 323 742 304 761 c 0,0,1
503 -2 m 0,18,19
 487 -9 487 -9 469 -1 c 128,-1,20
 451 7 451 7 439 38 c 0,21,22
 432 57 432 57 419.5 110.5 c 128,-1,23
 407 164 407 164 392 235 c 1,24,25
 374 234 374 234 349 232.5 c 128,-1,26
 324 231 324 231 295.5 228.5 c 128,-1,27
 267 226 267 226 236.5 222.5 c 128,-1,28
 206 219 206 219 178 215 c 1,29,30
 156 153 156 153 139.5 104.5 c 128,-1,31
 123 56 123 56 117 38 c 0,32,33
 107 7 107 7 89.5 -1 c 128,-1,34
 72 -9 72 -9 56 -2 c 0,35,36
 41 5 41 5 35 22.5 c 128,-1,37
 29 40 29 40 36 69 c 0,38,39
 39 84 39 84 53.5 123.5 c 128,-1,40
 68 163 68 163 90 215 c 1,41,42
 82 220 82 220 77.5 227.5 c 128,-1,43
 73 235 73 235 73 242 c 0,44,45
 72 255 72 255 85.5 267 c 128,-1,46
 99 279 99 279 118 285 c 1,47,48
 139 335 139 335 163 387.5 c 128,-1,49
 187 440 187 440 210 487.5 c 128,-1,50
 233 535 233 535 255 575.5 c 128,-1,51
 277 616 277 616 295 642 c 0,52,53
 308 660 308 660 319 669 c 128,-1,54
 330 678 330 678 343 678 c 0,55,56
 359 679 359 679 374 671.5 c 128,-1,57
 389 664 389 664 393 642 c 0,58,59
 401 595 401 595 418.5 505.5 c 128,-1,60
 436 416 436 416 456 325.5 c 128,-1,61
 476 235 476 235 494.5 161 c 128,-1,62
 513 87 513 87 523 69 c 0,63,64
 537 43 537 43 527.5 24 c 128,-1,65
 518 5 518 5 503 -2 c 0,18,19
325 563 m 1,66,67
 313 545 313 545 299 516 c 128,-1,68
 285 487 285 487 269.5 452 c 128,-1,69
 254 417 254 417 238.5 377 c 128,-1,70
 223 337 223 337 208 297 c 1,71,72
 259 303 259 303 302.5 306 c 128,-1,73
 346 309 346 309 377 310 c 1,74,75
 364 374 364 374 350.5 440 c 128,-1,76
 337 506 337 506 325 563 c 1,66,67
EndSplineSet
Validated: 33
EndChar

StartChar: Aacute
Encoding: 117 193 120
Width: 550
GlyphClass: 1
Flags: W
LayerCount: 2
Fore
SplineSet
519 912 m 0,0,1
 489 872 489 872 449.5 830 c 128,-1,2
 410 788 410 788 383 761 c 0,3,4
 364 742 364 742 344 740.5 c 128,-1,5
 324 739 324 739 314 749 c 0,6,7
 303 759 303 759 306.5 779.5 c 128,-1,8
 310 800 310 800 328 817 c 0,9,10
 361 847 361 847 392 891 c 128,-1,11
 423 935 423 935 449 971 c 0,12,13
 462 987 462 987 484 988 c 128,-1,14
 506 989 506 989 519 979 c 0,15,16
 528 969 528 969 530 949 c 128,-1,17
 532 929 532 929 519 912 c 0,0,1
503 -2 m 0,18,19
 487 -9 487 -9 469 -1 c 128,-1,20
 451 7 451 7 439 38 c 0,21,22
 432 57 432 57 419.5 110.5 c 128,-1,23
 407 164 407 164 392 235 c 1,24,25
 374 234 374 234 349 232.5 c 128,-1,26
 324 231 324 231 295.5 228.5 c 128,-1,27
 267 226 267 226 236.5 222.5 c 128,-1,28
 206 219 206 219 178 215 c 1,29,30
 156 153 156 153 139.5 104.5 c 128,-1,31
 123 56 123 56 117 38 c 0,32,33
 107 7 107 7 89.5 -1 c 128,-1,34
 72 -9 72 -9 56 -2 c 0,35,36
 41 5 41 5 35 22.5 c 128,-1,37
 29 40 29 40 36 69 c 0,38,39
 39 84 39 84 53.5 123.5 c 128,-1,40
 68 163 68 163 90 215 c 1,41,42
 82 220 82 220 77.5 227.5 c 128,-1,43
 73 235 73 235 73 242 c 0,44,45
 72 255 72 255 85.5 267 c 128,-1,46
 99 279 99 279 118 285 c 1,47,48
 139 335 139 335 163 387.5 c 128,-1,49
 187 440 187 440 210 487.5 c 128,-1,50
 233 535 233 535 255 575.5 c 128,-1,51
 277 616 277 616 295 642 c 0,52,53
 308 660 308 660 319 669 c 128,-1,54
 330 678 330 678 343 678 c 0,55,56
 359 679 359 679 374 671.5 c 128,-1,57
 389 664 389 664 393 642 c 0,58,59
 401 595 401 595 418.5 505.5 c 128,-1,60
 436 416 436 416 456 325.5 c 128,-1,61
 476 235 476 235 494.5 161 c 128,-1,62
 513 87 513 87 523 69 c 0,63,64
 537 43 537 43 527.5 24 c 128,-1,65
 518 5 518 5 503 -2 c 0,18,19
325 563 m 1,66,67
 313 545 313 545 299 516 c 128,-1,68
 285 487 285 487 269.5 452 c 128,-1,69
 254 417 254 417 238.5 377 c 128,-1,70
 223 337 223 337 208 297 c 1,71,72
 259 303 259 303 302.5 306 c 128,-1,73
 346 309 346 309 377 310 c 1,74,75
 364 374 364 374 350.5 440 c 128,-1,76
 337 506 337 506 325 563 c 1,66,67
EndSplineSet
Validated: 33
EndChar

StartChar: Acircumflex
Encoding: 118 194 121
Width: 550
GlyphClass: 1
Flags: W
LayerCount: 2
Fore
SplineSet
486 744 m 0,0,1
 481 745 481 745 466 771 c 128,-1,2
 451 797 451 797 430 832 c 128,-1,3
 409 867 409 867 385 906 c 128,-1,4
 361 945 361 945 338 971 c 1,5,6
 317 946 317 946 293.5 907.5 c 128,-1,7
 270 869 270 869 248.5 833.5 c 128,-1,8
 227 798 227 798 210 772 c 128,-1,9
 193 746 193 746 187 744 c 0,10,11
 163 738 163 738 148.5 742.5 c 128,-1,12
 134 747 134 747 127 760 c 0,13,14
 119 772 119 772 123.5 786 c 128,-1,15
 128 800 128 800 142 820 c 0,16,17
 154 837 154 837 176.5 869.5 c 128,-1,18
 199 902 199 902 223.5 937.5 c 128,-1,19
 248 973 248 973 270.5 1006 c 128,-1,20
 293 1039 293 1039 306 1058 c 0,21,22
 310 1065 310 1065 319 1066 c 128,-1,23
 328 1067 328 1067 336 1067 c 0,24,25
 343 1067 343 1067 351 1065.5 c 128,-1,26
 359 1064 359 1064 364 1058 c 0,27,28
 377 1041 377 1041 398 1009.5 c 128,-1,29
 419 978 419 978 441 943.5 c 128,-1,30
 463 909 463 909 483 876.5 c 128,-1,31
 503 844 503 844 515 826 c 0,32,33
 529 805 529 805 542.5 787 c 128,-1,34
 556 769 556 769 548 757 c 0,35,36
 541 744 541 744 526 741.5 c 128,-1,37
 511 739 511 739 486 744 c 0,0,1
503 -2 m 0,38,39
 487 -9 487 -9 469 -1 c 128,-1,40
 451 7 451 7 439 38 c 0,41,42
 432 57 432 57 419.5 110.5 c 128,-1,43
 407 164 407 164 392 235 c 1,44,45
 374 234 374 234 349 232.5 c 128,-1,46
 324 231 324 231 295.5 228.5 c 128,-1,47
 267 226 267 226 236.5 222.5 c 128,-1,48
 206 219 206 219 178 215 c 1,49,50
 156 153 156 153 139.5 104.5 c 128,-1,51
 123 56 123 56 117 38 c 0,52,53
 107 7 107 7 89.5 -1 c 128,-1,54
 72 -9 72 -9 56 -2 c 0,55,56
 41 5 41 5 35 22.5 c 128,-1,57
 29 40 29 40 36 69 c 0,58,59
 39 84 39 84 53.5 123.5 c 128,-1,60
 68 163 68 163 90 215 c 1,61,62
 82 220 82 220 77.5 227.5 c 128,-1,63
 73 235 73 235 73 242 c 0,64,65
 72 255 72 255 85.5 267 c 128,-1,66
 99 279 99 279 118 285 c 1,67,68
 139 335 139 335 163 387.5 c 128,-1,69
 187 440 187 440 210 487.5 c 128,-1,70
 233 535 233 535 255 575.5 c 128,-1,71
 277 616 277 616 295 642 c 0,72,73
 308 660 308 660 319 669 c 128,-1,74
 330 678 330 678 343 678 c 0,75,76
 359 679 359 679 374 671.5 c 128,-1,77
 389 664 389 664 393 642 c 0,78,79
 401 595 401 595 418.5 505.5 c 128,-1,80
 436 416 436 416 456 325.5 c 128,-1,81
 476 235 476 235 494.5 161 c 128,-1,82
 513 87 513 87 523 69 c 0,83,84
 537 43 537 43 527.5 24 c 128,-1,85
 518 5 518 5 503 -2 c 0,38,39
325 563 m 1,86,87
 313 545 313 545 299 516 c 128,-1,88
 285 487 285 487 269.5 452 c 128,-1,89
 254 417 254 417 238.5 377 c 128,-1,90
 223 337 223 337 208 297 c 1,91,92
 259 303 259 303 302.5 306 c 128,-1,93
 346 309 346 309 377 310 c 1,94,95
 364 374 364 374 350.5 440 c 128,-1,96
 337 506 337 506 325 563 c 1,86,87
EndSplineSet
Validated: 33
EndChar

StartChar: Atilde
Encoding: 119 195 122
Width: 550
GlyphClass: 1
Flags: W
LayerCount: 2
Fore
SplineSet
501 888 m 0,0,1
 514 884 514 884 515.5 866.5 c 128,-1,2
 517 849 517 849 510 833 c 0,3,4
 483 783 483 783 455.5 761.5 c 128,-1,5
 428 740 428 740 403 740 c 0,6,7
 372 740 372 740 353 754.5 c 128,-1,8
 334 769 334 769 317 792 c 0,9,10
 304 810 304 810 295.5 817 c 128,-1,11
 287 824 287 824 271 824 c 0,12,13
 253 824 253 824 246 812 c 128,-1,14
 239 800 239 800 221 768 c 0,15,16
 215 758 215 758 200 755 c 128,-1,17
 185 752 185 752 174 754 c 0,18,19
 167 755 167 755 161 763.5 c 128,-1,20
 155 772 155 772 158 783 c 0,21,22
 177 837 177 837 205.5 871 c 128,-1,23
 234 905 234 905 262 905 c 0,24,25
 289 905 289 905 308 899 c 128,-1,26
 327 893 327 893 348 862 c 0,27,28
 360 845 360 845 369.5 833 c 128,-1,29
 379 821 379 821 395 821 c 256,30,31
 411 821 411 821 421.5 825 c 128,-1,32
 432 829 432 829 451 862 c 0,33,34
 457 873 457 873 470 883.5 c 128,-1,35
 483 894 483 894 501 888 c 0,0,1
503 -2 m 0,36,37
 487 -9 487 -9 469 -1 c 128,-1,38
 451 7 451 7 439 38 c 0,39,40
 432 57 432 57 419.5 110.5 c 128,-1,41
 407 164 407 164 392 235 c 1,42,43
 374 234 374 234 349 232.5 c 128,-1,44
 324 231 324 231 295.5 228.5 c 128,-1,45
 267 226 267 226 236.5 222.5 c 128,-1,46
 206 219 206 219 178 215 c 1,47,48
 156 153 156 153 139.5 104.5 c 128,-1,49
 123 56 123 56 117 38 c 0,50,51
 107 7 107 7 89.5 -1 c 128,-1,52
 72 -9 72 -9 56 -2 c 0,53,54
 41 5 41 5 35 22.5 c 128,-1,55
 29 40 29 40 36 69 c 0,56,57
 39 84 39 84 53.5 123.5 c 128,-1,58
 68 163 68 163 90 215 c 1,59,60
 82 220 82 220 77.5 227.5 c 128,-1,61
 73 235 73 235 73 242 c 0,62,63
 72 255 72 255 85.5 267 c 128,-1,64
 99 279 99 279 118 285 c 1,65,66
 139 335 139 335 163 387.5 c 128,-1,67
 187 440 187 440 210 487.5 c 128,-1,68
 233 535 233 535 255 575.5 c 128,-1,69
 277 616 277 616 295 642 c 0,70,71
 308 660 308 660 319 669 c 128,-1,72
 330 678 330 678 343 678 c 0,73,74
 359 679 359 679 374 671.5 c 128,-1,75
 389 664 389 664 393 642 c 0,76,77
 401 595 401 595 418.5 505.5 c 128,-1,78
 436 416 436 416 456 325.5 c 128,-1,79
 476 235 476 235 494.5 161 c 128,-1,80
 513 87 513 87 523 69 c 0,81,82
 537 43 537 43 527.5 24 c 128,-1,83
 518 5 518 5 503 -2 c 0,36,37
325 563 m 1,84,85
 313 545 313 545 299 516 c 128,-1,86
 285 487 285 487 269.5 452 c 128,-1,87
 254 417 254 417 238.5 377 c 128,-1,88
 223 337 223 337 208 297 c 1,89,90
 259 303 259 303 302.5 306 c 128,-1,91
 346 309 346 309 377 310 c 1,92,93
 364 374 364 374 350.5 440 c 128,-1,94
 337 506 337 506 325 563 c 1,84,85
EndSplineSet
Validated: 33
EndChar

StartChar: Adieresis
Encoding: 120 196 123
Width: 550
GlyphClass: 1
Flags: W
LayerCount: 2
Fore
SplineSet
436 740 m 0,0,1
 408 737 408 737 391.5 756.5 c 128,-1,2
 375 776 375 776 375 801 c 0,3,4
 375 825 375 825 394 842 c 128,-1,5
 413 859 413 859 436 860 c 0,6,7
 462 861 462 861 477.5 843.5 c 128,-1,8
 493 826 493 826 493 801 c 0,9,10
 493 777 493 777 477.5 760 c 128,-1,11
 462 743 462 743 436 740 c 0,0,1
259 740 m 0,12,13
 231 737 231 737 215 756.5 c 128,-1,14
 199 776 199 776 199 801 c 0,15,16
 199 825 199 825 218 842 c 128,-1,17
 237 859 237 859 259 860 c 0,18,19
 286 861 286 861 301.5 843.5 c 128,-1,20
 317 826 317 826 317 801 c 0,21,22
 317 778 317 778 301.5 760.5 c 128,-1,23
 286 743 286 743 259 740 c 0,12,13
503 -2 m 0,24,25
 487 -9 487 -9 469 -1 c 128,-1,26
 451 7 451 7 439 38 c 0,27,28
 432 57 432 57 419.5 110.5 c 128,-1,29
 407 164 407 164 392 235 c 1,30,31
 374 234 374 234 349 232.5 c 128,-1,32
 324 231 324 231 295.5 228.5 c 128,-1,33
 267 226 267 226 236.5 222.5 c 128,-1,34
 206 219 206 219 178 215 c 1,35,36
 156 153 156 153 139.5 104.5 c 128,-1,37
 123 56 123 56 117 38 c 0,38,39
 107 7 107 7 89.5 -1 c 128,-1,40
 72 -9 72 -9 56 -2 c 0,41,42
 41 5 41 5 35 22.5 c 128,-1,43
 29 40 29 40 36 69 c 0,44,45
 39 84 39 84 53.5 123.5 c 128,-1,46
 68 163 68 163 90 215 c 1,47,48
 82 220 82 220 77.5 227.5 c 128,-1,49
 73 235 73 235 73 242 c 0,50,51
 72 255 72 255 85.5 267 c 128,-1,52
 99 279 99 279 118 285 c 1,53,54
 139 335 139 335 163 387.5 c 128,-1,55
 187 440 187 440 210 487.5 c 128,-1,56
 233 535 233 535 255 575.5 c 128,-1,57
 277 616 277 616 295 642 c 0,58,59
 308 660 308 660 319 669 c 128,-1,60
 330 678 330 678 343 678 c 0,61,62
 359 679 359 679 374 671.5 c 128,-1,63
 389 664 389 664 393 642 c 0,64,65
 401 595 401 595 418.5 505.5 c 128,-1,66
 436 416 436 416 456 325.5 c 128,-1,67
 476 235 476 235 494.5 161 c 128,-1,68
 513 87 513 87 523 69 c 0,69,70
 537 43 537 43 527.5 24 c 128,-1,71
 518 5 518 5 503 -2 c 0,24,25
325 563 m 1,72,73
 313 545 313 545 299 516 c 128,-1,74
 285 487 285 487 269.5 452 c 128,-1,75
 254 417 254 417 238.5 377 c 128,-1,76
 223 337 223 337 208 297 c 1,77,78
 259 303 259 303 302.5 306 c 128,-1,79
 346 309 346 309 377 310 c 1,80,81
 364 374 364 374 350.5 440 c 128,-1,82
 337 506 337 506 325 563 c 1,72,73
EndSplineSet
Validated: 33
EndChar

StartChar: Aring
Encoding: 121 197 124
Width: 550
GlyphClass: 1
Flags: W
LayerCount: 2
Fore
SplineSet
337 740 m 0,0,1
 288 740 288 740 261 768 c 128,-1,2
 234 796 234 796 234 838 c 0,3,4
 234 854 234 854 239 871.5 c 128,-1,5
 244 889 244 889 257.5 904 c 128,-1,6
 271 919 271 919 293.5 929 c 128,-1,7
 316 939 316 939 350 939 c 0,8,9
 409 939 409 939 427 906.5 c 128,-1,10
 445 874 445 874 445 827 c 0,11,12
 445 796 445 796 412 768 c 128,-1,13
 379 740 379 740 337 740 c 0,0,1
344 791 m 0,14,15
 360 791 360 791 374.5 805.5 c 128,-1,16
 389 820 389 820 389 836 c 0,17,18
 389 847 389 847 381 868.5 c 128,-1,19
 373 890 373 890 346 890 c 0,20,21
 321 890 321 890 308.5 873.5 c 128,-1,22
 296 857 296 857 297 837 c 0,23,24
 298 820 298 820 309 805.5 c 128,-1,25
 320 791 320 791 344 791 c 0,14,15
503 -2 m 0,26,27
 487 -9 487 -9 469 -1 c 128,-1,28
 451 7 451 7 439 38 c 0,29,30
 432 57 432 57 419.5 110.5 c 128,-1,31
 407 164 407 164 392 235 c 1,32,33
 374 234 374 234 349 232.5 c 128,-1,34
 324 231 324 231 295.5 228.5 c 128,-1,35
 267 226 267 226 236.5 222.5 c 128,-1,36
 206 219 206 219 178 215 c 1,37,38
 156 153 156 153 139.5 104.5 c 128,-1,39
 123 56 123 56 117 38 c 0,40,41
 107 7 107 7 89.5 -1 c 128,-1,42
 72 -9 72 -9 56 -2 c 0,43,44
 41 5 41 5 35 22.5 c 128,-1,45
 29 40 29 40 36 69 c 0,46,47
 39 84 39 84 53.5 123.5 c 128,-1,48
 68 163 68 163 90 215 c 1,49,50
 82 220 82 220 77.5 227.5 c 128,-1,51
 73 235 73 235 73 242 c 0,52,53
 72 255 72 255 85.5 267 c 128,-1,54
 99 279 99 279 118 285 c 1,55,56
 139 335 139 335 163 387.5 c 128,-1,57
 187 440 187 440 210 487.5 c 128,-1,58
 233 535 233 535 255 575.5 c 128,-1,59
 277 616 277 616 295 642 c 0,60,61
 308 660 308 660 319 669 c 128,-1,62
 330 678 330 678 343 678 c 0,63,64
 359 679 359 679 374 671.5 c 128,-1,65
 389 664 389 664 393 642 c 0,66,67
 401 595 401 595 418.5 505.5 c 128,-1,68
 436 416 436 416 456 325.5 c 128,-1,69
 476 235 476 235 494.5 161 c 128,-1,70
 513 87 513 87 523 69 c 0,71,72
 537 43 537 43 527.5 24 c 128,-1,73
 518 5 518 5 503 -2 c 0,26,27
325 563 m 1,74,75
 313 545 313 545 299 516 c 128,-1,76
 285 487 285 487 269.5 452 c 128,-1,77
 254 417 254 417 238.5 377 c 128,-1,78
 223 337 223 337 208 297 c 1,79,80
 259 303 259 303 302.5 306 c 128,-1,81
 346 309 346 309 377 310 c 1,82,83
 364 374 364 374 350.5 440 c 128,-1,84
 337 506 337 506 325 563 c 1,74,75
EndSplineSet
Validated: 33
EndChar

